<svg id="icon-save" xmlns="http://www.w3.org/2000/svg" width="469.334" height="469.334" viewBox="0 0 469.334 469.334">
  <path id="Path_1" data-name="Path 1" d="M466.208,88.458,380.875,3.125A10.659,10.659,0,0,0,373.333,0H42.667A42.716,42.716,0,0,0,0,42.667v384a42.716,42.716,0,0,0,42.667,42.667h384a42.716,42.716,0,0,0,42.667-42.667V96a10.664,10.664,0,0,0-3.125-7.541ZM106.667,21.333H341.334v128A21.355,21.355,0,0,1,320,170.666H128a21.354,21.354,0,0,1-21.333-21.333v-128ZM384,448H85.333V256H384Zm64-21.333A21.355,21.355,0,0,1,426.667,448H405.334V245.333a10.66,10.66,0,0,0-10.667-10.667h-320A10.66,10.66,0,0,0,64,245.333V448H42.667a21.354,21.354,0,0,1-21.333-21.333v-384A21.355,21.355,0,0,1,42.667,21.334H85.334v128A42.714,42.714,0,0,0,128,192H320a42.716,42.716,0,0,0,42.667-42.667v-128h6.25L448,100.417Z"/>
  <path id="Path_2" data-name="Path 2" d="M266.667,149.333h42.667A10.66,10.66,0,0,0,320,138.666V53.333a10.66,10.66,0,0,0-10.667-10.667H266.667A10.66,10.66,0,0,0,256,53.333v85.333a10.66,10.66,0,0,0,10.667,10.667ZM277.333,64h21.333v64H277.333Z"/>
</svg>
