<svg width="15" height="13" viewBox="0 0 15 13" fill="none" xmlns="http://www.w3.org/2000/svg">
<path d="M12.7189 1.93091H10.6461L10.4047 1.20682C10.2884 0.855232 10.0641 0.549314 9.76374 0.332629C9.46342 0.115945 9.10238 -0.000456646 8.73205 1.34634e-06H5.74976C5.37953 -0.000281557 5.01864 0.116196 4.71842 0.332862C4.41821 0.549529 4.19397 0.855351 4.0776 1.20682L3.83575 1.93091H1.76292C1.29552 1.93142 0.847412 2.11732 0.516912 2.44782C0.186411 2.77832 0.000511098 3.22643 0 3.69383V10.7899C0.00102175 11.257 0.187147 11.7046 0.517592 12.0347C0.848038 12.3648 1.29585 12.5504 1.76292 12.5509H12.7208C13.1879 12.5499 13.6355 12.3638 13.9656 12.0333C14.2957 11.7029 14.4813 11.2551 14.4818 10.788V3.6919C14.4808 3.22484 14.2947 2.77722 13.9642 2.44714C13.6338 2.11706 13.186 1.93142 12.7189 1.93091ZM13.5164 10.788C13.5161 10.9994 13.432 11.2021 13.2825 11.3516C13.133 11.5011 12.9303 11.5852 12.7189 11.5855H1.76292C1.5515 11.5852 1.34881 11.5011 1.19931 11.3516C1.04981 11.2021 0.96571 10.9994 0.965454 10.788V3.6919C0.96622 3.48081 1.05055 3.27862 1.19999 3.12954C1.34943 2.98045 1.55183 2.89662 1.76292 2.89637H4.1838C4.28507 2.89629 4.38375 2.86436 4.46588 2.80511C4.54801 2.74585 4.60942 2.66226 4.64142 2.56618L4.99333 1.51046C5.04617 1.35166 5.14769 1.21355 5.28348 1.11572C5.41926 1.01789 5.58241 0.965313 5.74976 0.965456H8.73205C8.89948 0.965273 9.06271 1.01789 9.19851 1.11582C9.33432 1.21375 9.43579 1.35201 9.48848 1.51094L9.84039 2.56618C9.87239 2.66226 9.93381 2.74585 10.0159 2.80511C10.0981 2.86436 10.1967 2.89629 10.298 2.89637H12.7189C12.9303 2.89662 13.133 2.98072 13.2825 3.13022C13.432 3.27972 13.5161 3.48241 13.5164 3.69383V10.788Z" fill="black"/>
<path d="M7.24155 3.37915C6.52549 3.37915 5.82551 3.59149 5.23013 3.98931C4.63475 4.38713 4.17071 4.95256 3.89669 5.61412C3.62266 6.27567 3.55097 7.00362 3.69066 7.70592C3.83036 8.40822 4.17517 9.05332 4.6815 9.55965C5.18783 10.066 5.83293 10.4108 6.53523 10.5505C7.23753 10.6902 7.96548 10.6185 8.62704 10.3445C9.28859 10.0704 9.85403 9.6064 10.2518 9.01102C10.6497 8.41564 10.862 7.71566 10.862 6.9996C10.861 6.03971 10.4792 5.11943 9.80047 4.44069C9.12172 3.76194 8.20144 3.38017 7.24155 3.37915ZM7.24155 9.6546C6.71644 9.6546 6.20312 9.49889 5.76651 9.20715C5.3299 8.91542 4.9896 8.50077 4.78865 8.01563C4.5877 7.53049 4.53512 6.99666 4.63756 6.48164C4.74001 5.96662 4.99287 5.49354 5.36418 5.12224C5.73549 4.75093 6.20856 4.49806 6.72358 4.39562C7.2386 4.29318 7.77244 4.34575 8.25757 4.5467C8.74271 4.74766 9.15736 5.08795 9.4491 5.52457C9.74083 5.96118 9.89655 6.47449 9.89655 6.9996C9.89578 7.70352 9.61581 8.37838 9.11807 8.87612C8.62033 9.37387 7.94546 9.65384 7.24155 9.6546Z" fill="black"/>
<path d="M12.0687 4.82727C12.3353 4.82727 12.5514 4.61115 12.5514 4.34454C12.5514 4.07794 12.3353 3.86182 12.0687 3.86182C11.8021 3.86182 11.5859 4.07794 11.5859 4.34454C11.5859 4.61115 11.8021 4.82727 12.0687 4.82727Z" fill="black"/>
</svg>
