<svg width="158" height="164" viewBox="0 0 158 164" fill="none" xmlns="http://www.w3.org/2000/svg">
<path d="M74.2056 163.992C109.745 163.992 138.555 161.768 138.555 159.024C138.555 156.28 109.745 154.056 74.2056 154.056C38.6661 154.056 9.85565 156.28 9.85565 159.024C9.85565 161.768 38.6661 163.992 74.2056 163.992Z" fill="#F2F2F2"/>
<path d="M68.5748 139.997C106.448 139.997 137.15 109.295 137.15 71.4224C137.15 33.5496 106.448 2.84766 68.5748 2.84766C30.702 2.84766 0 33.5496 0 71.4224C0 109.295 30.702 139.997 68.5748 139.997Z" fill="#03726C"/>
<path d="M70.5752 140.448C108.145 140.448 138.601 109.992 138.601 72.4224C138.601 34.853 108.145 4.39697 70.5752 4.39697C33.0058 4.39697 2.5498 34.853 2.5498 72.4224C2.5498 109.992 33.0058 140.448 70.5752 140.448Z" fill="#F2F2F2"/>
<path d="M26.0951 59.4709C24.8327 60.401 23.041 60.5121 21.6919 59.686C20.4742 58.9404 19.8029 57.4527 19.9193 56.0424C20.6616 56.2054 21.4651 56.178 22.0891 55.7717C22.8389 55.2832 23.1765 54.1249 22.4331 53.4716C21.6765 52.8066 20.5808 53.11 19.9782 53.8148C19.6636 54.1831 19.4458 54.6104 19.3099 55.0666C18.5717 54.6881 17.9323 54.0547 17.6071 53.4186C16.7979 51.8341 17.44 49.8479 18.8965 48.8919C19.3005 48.6265 18.8668 48.0137 18.4624 48.2791C16.7397 49.4097 15.9772 51.7831 16.8948 53.6657C17.3341 54.5676 18.0851 55.3061 18.9933 55.7331C19.0478 55.7586 19.1071 55.78 19.1638 55.804C19.0298 57.075 19.4473 58.4474 20.2256 59.3838C21.7636 61.2345 24.6112 61.4973 26.5291 60.0844C26.9177 59.7976 26.4856 59.1833 26.0951 59.4709ZM21.1294 53.8887C21.4294 53.7949 21.853 53.8602 22.0309 54.1459C22.2814 54.5484 21.9138 55.0264 21.5642 55.2036C21.0832 55.4477 20.5527 55.4653 20.0353 55.3388C20.199 54.7257 20.5283 54.0768 21.1294 53.8887Z" fill="#111111"/>
<path d="M131.253 88.969C130.793 86.6774 128.025 85.3775 125.932 86.3339C125.495 86.5333 125.753 87.2395 126.194 87.0379C127.562 86.4131 129.296 86.9211 130.129 88.1767C130.992 89.477 130.493 91.2751 129.314 92.204C129.301 92.2138 129.286 92.2228 129.273 92.2326C128.937 91.6757 128.469 91.2042 127.888 90.8955C126.935 90.389 125.773 90.8298 125.824 92.0122C125.875 93.1788 127.092 93.6616 128.112 93.5178C128.402 93.4769 128.679 93.3943 128.942 93.2828C129.226 94.0976 129.213 95.0209 128.839 95.7943C128.067 97.3897 125.934 97.9695 124.402 97.1716C123.972 96.9478 123.653 97.6278 124.081 97.8504C125.926 98.8113 128.414 98.1095 129.433 96.2779C129.995 95.266 130.019 94.0014 129.606 92.9137C130.829 92.0535 131.551 90.4555 131.253 88.969ZM126.968 92.6174C126.666 92.4346 126.488 92.0805 126.603 91.7302C126.793 91.1538 127.486 91.4933 127.824 91.7385C128.145 91.9713 128.411 92.2698 128.62 92.6062C128.081 92.8337 127.459 92.9137 126.968 92.6174Z" fill="#111111"/>
<path d="M105.045 15.0025C104.96 14.5309 104.211 14.5917 104.297 15.0678C104.575 16.6091 103.197 18.3217 101.563 18.0945C100.888 18.0006 100.321 17.6105 99.9386 17.0822C100.358 16.1766 100.212 15.0667 99.3927 14.3908C99.1539 14.1937 98.8652 14.3495 98.7818 14.6105C98.5186 15.4358 98.6556 16.3283 99.0589 17.0819C98.9553 17.2227 98.8332 17.3518 98.6939 17.4615C97.9967 18.0115 97.0396 18.1054 96.2169 17.8039C94.388 17.134 93.9892 14.7922 95.3289 13.4416C95.6699 13.0981 95.0924 12.6175 94.7537 12.9588C93.8822 13.8374 93.5732 15.1575 93.9014 16.344C94.2224 17.5054 95.2005 18.3412 96.3521 18.6247C97.4725 18.9007 98.7135 18.5823 99.5005 17.7247C100.02 18.3326 100.736 18.7651 101.548 18.8462C103.59 19.0516 105.405 16.997 105.045 15.0025Z" fill="#111111"/>
<path d="M88.1315 55.2594C87.1398 53.6235 85.5005 52.4625 83.6588 51.9763C82.9278 51.7833 82.1588 51.7105 81.4015 51.7581C80.8796 50.6711 79.6619 49.8398 78.5359 49.6502C76.4279 49.2958 74.4195 50.8844 74.1605 52.9844C74.1015 53.4628 74.8401 53.6002 74.8994 53.1204C75.0695 51.7427 76.1666 50.5194 77.5795 50.3644C78.7352 50.2375 80.0025 50.8378 80.5886 51.8558C79.8729 52.0052 79.0987 52.3521 78.8437 53.0715C78.5779 53.821 79.1103 54.5194 79.8587 54.6298C80.6441 54.7458 81.3395 54.2813 81.5656 53.5274C81.6756 53.1598 81.688 52.7989 81.6283 52.4528C82.4393 52.4381 83.2882 52.6176 83.9472 52.8429C85.4337 53.3516 86.7039 54.3493 87.5187 55.6939C87.7691 56.1069 88.3812 55.6717 88.1315 55.2594ZM80.1485 53.8942C79.936 53.9055 79.6585 53.8465 79.5598 53.634C79.4066 53.3043 79.7408 53.0145 79.9908 52.862C80.2484 52.7051 80.5413 52.6007 80.8525 52.5357C80.9674 53.1072 80.8454 53.8567 80.1485 53.8942Z" fill="#111111"/>
<path d="M14.1842 84.009C12.9181 83.7259 11.7011 84.4217 11.1105 85.5364C10.5864 86.5254 10.6588 87.7056 11.3242 88.5763C10.6468 88.8485 10.0431 89.2934 9.61539 89.9013C8.44804 91.5617 8.7548 93.955 10.2496 95.3067C10.6089 95.6314 11.0906 95.0555 10.7324 94.7314C9.52302 93.638 9.25869 91.6007 10.2657 90.2824C10.6896 89.7271 11.2806 89.3524 11.9276 89.1624C12.7878 89.7785 13.969 89.9404 14.9362 89.4861C15.2392 89.3438 15.252 88.9623 14.9659 88.7944C14.1169 88.2969 13.0881 88.1588 12.1232 88.3427C11.4721 87.718 11.3463 86.7838 11.7346 85.9675C12.1307 85.1351 12.9879 84.5617 13.9258 84.7235C14.8927 84.8903 15.709 85.6908 15.8227 86.6723C15.8783 87.1514 16.6266 87.0879 16.5707 86.6069C16.4227 85.3326 15.43 84.2876 14.1842 84.009Z" fill="#111111"/>
<path d="M21.5843 36.7339C20.7717 37.5115 19.4944 37.7841 18.4427 37.3688C17.6478 37.0549 17.0125 36.3644 16.729 35.5568C17.1124 35.4959 17.4739 35.3435 17.783 35.0717C18.2835 34.6312 18.4314 33.8322 18.0131 33.2818C17.578 32.7088 16.7868 32.7989 16.3363 33.2945C15.9458 33.7241 15.7978 34.2475 15.8125 34.7859C15.1265 34.647 14.4533 34.2336 14.0447 33.7789C13.1177 32.746 13.0696 31.1483 13.8608 30.023C14.1371 29.6299 13.5638 29.1444 13.2855 29.5402C12.2913 30.9546 12.2935 32.9296 13.4624 34.2494C14.0252 34.885 14.9857 35.434 15.9364 35.5586C16.1583 36.3163 16.6423 37.032 17.1878 37.4852C18.6552 38.7032 20.8115 38.5065 22.1595 37.2171C22.5087 36.8826 21.9305 36.4027 21.5843 36.7339ZM17.195 33.6246C17.4248 33.6246 17.5104 33.8709 17.5051 34.0609C17.4976 34.3151 17.3384 34.5051 17.1229 34.6271C16.9509 34.7243 16.7654 34.7829 16.5736 34.8126C16.5732 34.8054 16.5713 34.7987 16.5706 34.7915C16.5514 34.451 16.7159 33.6242 17.195 33.6246Z" fill="#AF6127"/>
<path d="M9.16859 69.3081C8.85244 68.6983 8.35606 68.2226 7.77295 67.9027C8.58773 67.0684 8.65682 65.7482 8.16419 64.7262C7.60361 63.563 6.38783 62.88 5.13111 62.7489C3.65888 62.5957 2.25648 63.1571 1.03394 63.9317C0.62542 64.1904 1.05984 64.8031 1.46798 64.5444C3.12232 63.4961 5.80659 62.7568 7.22663 64.6195C7.76431 65.3247 7.94191 66.4042 7.42038 67.1683C7.31036 67.3293 7.16618 67.4683 7.00323 67.5839C6.28945 67.38 5.51372 67.3857 4.80182 67.6387C4.55776 67.7255 4.44963 68.1197 4.69143 68.2782C5.42436 68.7591 6.33188 68.7745 7.08733 68.4013C7.68584 68.6397 8.2055 69.0697 8.507 69.6573C9.13254 70.8753 8.67784 72.4516 7.57658 73.2239C7.1812 73.5014 7.61375 74.1153 8.01062 73.8367C9.41565 72.8518 9.9676 70.8502 9.16859 69.3081Z" fill="#AF6127"/>
<path d="M100.238 5.92907C99.2982 7.10393 97.4314 7.42646 96.1957 6.51519C95.4823 5.98915 95.0959 5.1218 95.067 4.24582C95.4917 3.69162 95.7312 2.98273 95.6524 2.20549C95.622 1.90436 95.1853 1.71925 94.9908 1.99673C94.5834 2.57721 94.3638 3.27034 94.3285 3.97135C93.7089 4.62956 92.6982 4.88826 91.7824 4.37874C90.2978 3.55307 90.4423 1.46919 91.8635 0.666048C92.2836 0.428748 91.8473 -0.1829 91.4294 0.0532735C90.5489 0.550777 90 1.51162 89.9636 2.51676C89.9245 3.594 90.526 4.54545 91.4613 5.05759C92.468 5.60879 93.5696 5.4601 94.3927 4.89389C94.5511 5.74922 94.9897 6.54823 95.7132 7.09041C97.2621 8.25101 99.6144 7.91083 100.813 6.41156C101.115 6.0342 100.54 5.55059 100.238 5.92907Z" fill="#AF6127"/>
<path d="M141.724 83.7698C141.421 83.0736 140.832 82.2765 140.108 81.7261C140.575 80.6274 140.427 79.2457 139.738 78.2867C138.631 76.748 136.317 76.5066 134.844 77.6469C134.463 77.9417 134.894 78.5567 135.278 78.2597C136.191 77.5534 137.51 77.4753 138.487 78.111C139.449 78.7369 139.823 79.9985 139.534 81.0829C139.514 81.158 139.487 81.2387 139.456 81.3213C138.973 81.09 138.456 80.9879 137.938 81.0998C137.221 81.2541 136.791 82.0257 137.243 82.6734C137.768 83.4251 138.739 83.3143 139.367 82.765C139.498 82.6509 139.613 82.5236 139.717 82.3895C140.358 82.8713 140.863 83.5723 141.121 84.286C141.632 85.6986 141.237 87.2823 140.233 88.3716C139.905 88.7279 140.481 89.2093 140.809 88.8544C142.053 87.5042 142.465 85.4703 141.724 83.7698ZM138.371 82.4657C138.057 82.5052 137.578 82.1368 137.953 81.8815C138.147 81.7493 138.49 81.8064 138.7 81.8654C138.829 81.9018 138.955 81.9502 139.078 82.005C138.889 82.2442 138.653 82.4305 138.371 82.4657Z" fill="#AF6127"/>
<path d="M14.9861 70.949C14.6943 70.8108 14.3857 70.9516 14.2359 71.2174C13.4864 72.5485 12.737 73.8795 11.9875 75.2106C11.8381 75.4757 11.995 75.8373 12.256 75.9608C12.5477 76.099 12.8564 75.9582 13.0062 75.6923C13.7556 74.3613 14.5051 73.0302 15.2545 71.6992C15.404 71.4341 15.247 71.0725 14.9861 70.949Z" fill="#03726C"/>
<path d="M19.8779 68.689C18.8187 68.3147 17.7599 67.9403 16.7007 67.566C16.4236 67.468 16.077 67.5348 15.9505 67.8345C15.842 68.092 15.9223 68.4795 16.219 68.5846C17.2782 68.959 18.337 69.3333 19.3962 69.7077C19.6733 69.8057 20.0199 69.7389 20.1464 69.4392C20.2549 69.1816 20.1746 68.7938 19.8779 68.689Z" fill="#AF6127"/>
<path d="M19.5494 73.01C19.2831 72.8977 18.9152 72.9859 18.7992 73.2784C18.3854 74.3237 17.9716 75.3691 17.5578 76.4144C17.4497 76.6881 17.5338 77.041 17.8263 77.1646C18.0925 77.2768 18.4605 77.1886 18.5765 76.8961C18.9903 75.8508 19.404 74.8055 19.8178 73.7602C19.9263 73.4864 19.8422 73.1331 19.5494 73.01Z" fill="#AF6127"/>
<path d="M12.3747 54.5409C12.1832 54.2705 11.8562 54.2581 11.5896 54.4068C11.7056 54.3422 11.5873 54.4076 11.5595 54.4203C11.5126 54.4421 11.4645 54.4616 11.4161 54.4797C11.3748 54.4951 11.3331 54.509 11.2907 54.5217C11.2832 54.524 11.2502 54.533 11.2235 54.5401C11.1927 54.5454 11.1266 54.5585 11.1169 54.56C11.0733 54.5664 11.0297 54.5713 10.9862 54.575C10.904 54.5822 10.8225 54.5822 10.7403 54.5825C10.7275 54.5818 10.7128 54.581 10.6975 54.5795C10.6535 54.5754 10.6096 54.5702 10.5657 54.5638C10.4778 54.551 10.3903 54.5337 10.3043 54.512C10.2795 54.5056 10.2548 54.4984 10.23 54.4917C10.2214 54.4887 10.1632 54.4714 10.1451 54.4646C10.0543 54.4309 9.96528 54.3926 9.87817 54.3494C9.79744 54.3096 9.72272 54.2611 9.64312 54.2198C9.64012 54.2183 9.64237 54.2198 9.64124 54.2198C9.63486 54.2146 9.63073 54.2112 9.61496 54.1996C9.57328 54.1684 9.53085 54.1384 9.48993 54.1061C9.42046 54.0509 9.35325 53.9923 9.28942 53.9303C9.27666 53.918 9.24362 53.8827 9.2331 53.8725C9.2147 53.8511 9.19593 53.8301 9.17828 53.8083C9.12309 53.74 9.07127 53.6686 9.02396 53.5947C9.01082 53.574 8.99843 53.5526 8.98604 53.5316C8.98754 53.5331 8.95375 53.4749 8.94474 53.455C8.90794 53.375 8.87565 53.2932 8.84899 53.2094C8.84636 53.2015 8.8336 53.1546 8.82383 53.1216C8.81895 53.0919 8.80469 53.0202 8.80319 53.0097C8.76001 52.7187 8.50731 52.4559 8.19304 52.4975C7.90543 52.5358 7.63471 52.7957 7.68089 53.1077C7.82958 54.1079 8.49717 54.9261 9.39606 55.3684C10.3043 55.8156 11.3538 55.8197 12.2399 55.3264C12.5061 55.178 12.5369 54.7699 12.3747 54.5409Z" fill="#03726C"/>
<path d="M82.1675 41.6222C81.839 41.5772 81.6005 41.7709 81.5116 42.0743C81.5097 42.0807 81.5078 42.087 81.5059 42.0931C81.4913 42.1208 81.4808 42.1659 81.4706 42.1922C81.4432 42.2647 81.4128 42.3356 81.3805 42.4058C81.3287 42.5173 81.2694 42.6792 81.1838 42.7715C81.1793 42.7772 81.1736 42.7828 81.1706 42.7873C81.1485 42.8192 81.1259 42.8508 81.103 42.8819C81.0568 42.9443 81.0088 43.0051 80.9588 43.064C80.913 43.1181 80.8654 43.171 80.8165 43.2225C80.7899 43.2506 80.7625 43.2781 80.7351 43.3055C80.7219 43.3186 80.6209 43.4042 80.6893 43.3498C80.7572 43.2961 80.6694 43.3659 80.6551 43.3779C80.6258 43.4031 80.5958 43.4279 80.5657 43.4519C80.5053 43.5003 80.4433 43.5469 80.3799 43.5912C80.3164 43.6355 80.2515 43.6779 80.1854 43.7181C80.158 43.735 80.1298 43.7512 80.102 43.7673C80.096 43.7707 80.0896 43.7741 80.0836 43.7774C79.9541 43.8409 79.8234 43.9006 79.6871 43.9494C79.6143 43.9753 79.5407 43.999 79.466 44.0196C79.4371 44.0275 79.4081 44.0346 79.3792 44.0425C79.3695 44.0444 79.3593 44.0467 79.3496 44.0485C79.0616 44.1052 78.7946 44.3346 78.8374 44.6587C78.8742 44.9346 79.1378 45.2316 79.4476 45.1708C80.9671 44.8719 82.1833 43.7643 82.62 42.2774C82.7029 41.9947 82.4472 41.6605 82.1675 41.6222Z" fill="#AF6127"/>
<path d="M77.6401 41.6459L76.0297 38.0703C75.9092 37.8022 75.5987 37.6148 75.305 37.7388C75.0396 37.851 74.844 38.1754 74.9735 38.463L76.5839 42.0387C76.7044 42.3068 77.015 42.4941 77.3082 42.3702C77.5744 42.2583 77.7697 41.9336 77.6401 41.6459Z" fill="#AF6127"/>
<path d="M100.451 23.4134C100.268 23.1562 99.9221 23.1138 99.6657 23.2794C99.6236 23.3064 99.5812 23.3319 99.538 23.3578C99.5286 23.3635 99.5249 23.3661 99.5188 23.3698C99.5113 23.3725 99.5042 23.3751 99.4911 23.3804C99.407 23.4141 99.3255 23.4513 99.2395 23.4799C99.2008 23.4926 99.1614 23.5046 99.122 23.5159C99.1028 23.5212 99.0743 23.5272 99.0551 23.5313C98.9658 23.5467 98.8764 23.561 98.7859 23.5688C98.6954 23.5764 98.6053 23.5764 98.5145 23.5782C98.5081 23.5782 98.5051 23.5786 98.5021 23.579C98.4983 23.5786 98.4968 23.5782 98.4919 23.5779C98.4424 23.5733 98.3932 23.5692 98.3436 23.5632C98.2449 23.5508 98.1469 23.5339 98.0496 23.5121C98.0091 23.5031 97.9689 23.493 97.9287 23.4821C97.9178 23.4791 97.8544 23.4596 97.8292 23.4524C97.8044 23.4434 97.7665 23.4295 97.7598 23.4269C97.7132 23.4089 97.667 23.3901 97.6216 23.3698C97.5382 23.333 97.4564 23.2925 97.3764 23.2482C97.3666 23.2429 97.3118 23.2106 97.2882 23.1975C97.2668 23.1832 97.2307 23.1596 97.2243 23.1551C97.1436 23.098 97.0659 23.0368 96.9915 22.9718C96.9544 22.9395 96.9183 22.9058 96.883 22.8716C96.8778 22.8663 96.8492 22.8363 96.8312 22.8179C96.8139 22.7969 96.7738 22.7492 96.767 22.7405C96.7415 22.7086 96.7167 22.676 96.6927 22.6429C96.6405 22.5701 96.5928 22.4939 96.5492 22.4154C96.541 22.397 96.5233 22.3617 96.5158 22.3444C96.4955 22.2986 96.4775 22.2521 96.4599 22.2055C96.2045 21.5281 95.1472 21.9179 95.404 22.5986C96.1186 24.4936 98.6245 25.2911 100.316 24.1996C100.572 24.0341 100.621 23.6541 100.451 23.4134Z" fill="#AF6127"/>
<path d="M137.019 71.3154C136.729 71.193 136.415 71.3045 136.269 71.5839C136.235 71.6488 136.2 71.7127 136.163 71.7757C136.162 71.7765 136.146 71.8028 136.133 71.8234C136.121 71.8426 136.103 71.8696 136.099 71.8756C136.016 71.9958 135.926 72.1114 135.83 72.2214C135.782 72.2766 135.733 72.3303 135.682 72.3825C135.652 72.4137 135.621 72.4441 135.59 72.4745C135.477 72.5729 135.362 72.6682 135.24 72.7557C135.121 72.841 134.998 72.9194 134.871 72.9915C134.846 73.0054 134.749 73.0527 134.865 72.996C134.832 73.0122 134.799 73.0291 134.767 73.0448C134.701 73.0764 134.634 73.1064 134.567 73.1346C134.432 73.1905 134.294 73.2393 134.154 73.2799C134.119 73.29 134.084 73.2998 134.048 73.3088C134.039 73.311 134.001 73.3197 133.98 73.3249C133.962 73.3283 133.945 73.3317 133.939 73.3328C133.896 73.3407 133.853 73.3478 133.809 73.3546C133.519 73.3997 133.255 73.649 133.297 73.9648C133.335 74.2509 133.596 74.525 133.907 74.4769C135.347 74.2535 136.611 73.3591 137.287 72.0656C137.425 71.8039 137.292 71.4303 137.019 71.3154Z" fill="#AF6127"/>
<path d="M130.563 76.3001C130.412 76.0455 130.004 75.9903 129.777 76.1661C129.52 76.3658 129.483 76.679 129.643 76.9512C129.648 76.9583 129.669 76.9962 129.68 77.0165C129.687 77.0308 129.694 77.0454 129.696 77.0492C129.726 77.1126 129.753 77.1772 129.777 77.2429C129.801 77.3086 129.822 77.3755 129.841 77.4427C129.842 77.4464 129.845 77.4569 129.848 77.4686C129.852 77.4889 129.863 77.5358 129.865 77.5456C129.889 77.6837 129.903 77.8238 129.906 77.9642C129.907 77.9954 129.906 78.0265 129.907 78.0581C129.907 78.0652 129.907 78.0682 129.907 78.0735C129.9 78.1429 129.895 78.212 129.886 78.2811C129.867 78.4125 129.839 78.5428 129.803 78.6705C129.8 78.6814 129.797 78.6907 129.794 78.6994C129.784 78.7245 129.775 78.7501 129.765 78.7752C129.74 78.8406 129.712 78.9048 129.682 78.9682C129.651 79.0317 129.617 79.0921 129.584 79.1541C129.577 79.1661 129.578 79.1661 129.575 79.1717C129.557 79.1973 129.54 79.2228 129.522 79.248C129.435 79.3685 129.337 79.4792 129.231 79.5833C129.019 79.7901 129.075 80.2039 129.3 80.3766C129.562 80.5779 129.868 80.528 130.094 80.3072C131.154 79.2716 131.301 77.5527 130.563 76.3001Z" fill="#03726C"/>
<path d="M134.826 84.379C134.076 83.3243 133.326 82.2693 132.576 81.2145C132.405 80.9742 132.031 80.8939 131.791 81.0805C131.55 81.2671 131.474 81.6088 131.657 81.8656C132.407 82.9203 133.157 83.9754 133.907 85.0301C134.078 85.2704 134.452 85.3508 134.692 85.1642C134.933 84.9776 135.009 84.6362 134.826 84.379Z" fill="#AF6127"/>
<path d="M27.926 27.1875C27.8577 27.1368 27.792 27.0838 27.73 27.0256C27.7022 26.9994 27.6752 26.9723 27.6485 26.9449C27.7398 27.0369 27.6377 26.9284 27.6256 26.9134C27.578 26.8541 27.5337 26.7921 27.4924 26.7283C27.4698 26.6934 27.4495 26.6581 27.4285 26.6224C27.4248 26.6149 27.421 26.6074 27.4165 26.598C27.3489 26.4508 27.296 26.301 27.2528 26.1448C27.2513 26.1388 27.2505 26.1373 27.249 26.1324C27.2483 26.1256 27.2479 26.1219 27.246 26.1117C27.24 26.0734 27.2333 26.0359 27.2276 25.9976C27.216 25.9135 27.2081 25.8286 27.2044 25.7438C27.2029 25.7051 27.2025 25.6664 27.2017 25.6281C27.2014 25.6154 27.2017 25.6052 27.2017 25.5958C27.2074 25.5181 27.2145 25.4411 27.2265 25.3642C27.2397 25.2808 27.2566 25.1978 27.2776 25.116C27.2795 25.1092 27.2881 25.0781 27.2945 25.0552C27.3024 25.0326 27.3132 25 27.3159 24.9928C27.3459 24.9144 27.3797 24.8378 27.418 24.763C27.4353 24.7292 27.4548 24.6966 27.4724 24.6628C27.4773 24.6534 27.4792 24.6489 27.4822 24.6429C27.4856 24.6384 27.4875 24.6361 27.4924 24.6297C27.5378 24.5682 27.5825 24.507 27.6324 24.4491C27.6628 24.4142 27.6951 24.3819 27.7263 24.3481C27.73 24.3444 27.7308 24.3429 27.7334 24.3399C27.739 24.3354 27.7458 24.3297 27.7567 24.3204C27.9876 24.1229 28.0781 23.7992 27.8907 23.5352C27.727 23.3043 27.338 23.2026 27.1056 23.4012C26.3993 24.005 26.0558 24.8727 26.0802 25.796C26.1031 26.6566 26.5018 27.5329 27.2006 28.0507C27.445 28.2317 27.7901 28.2242 27.994 27.9812C28.1821 27.7586 28.1716 27.3692 27.926 27.1875Z" fill="#425DBC"/>
<path d="M22.7567 42.6733C22.7604 42.6801 22.7638 42.6868 22.7675 42.6935C22.7672 42.6928 22.7668 42.6916 22.7664 42.6909C22.7631 42.6849 22.7604 42.6763 22.7567 42.6733Z" fill="#425DBC"/>
<path d="M23.692 42.0555C23.5422 41.8009 23.1333 41.7457 22.9069 41.9214C22.6542 42.1174 22.6163 42.4223 22.7665 42.6912C22.7717 42.7002 22.777 42.7073 22.7807 42.7189C22.7762 42.7107 22.7717 42.7024 22.7672 42.6942C22.7695 42.6983 22.7699 42.7028 22.7725 42.7069C22.7759 42.7129 22.7792 42.7189 22.7826 42.7246C22.7871 42.7381 22.7916 42.752 22.7946 42.7602C22.8119 42.8034 22.8235 42.8477 22.8374 42.8913C22.8412 42.9149 22.8446 42.939 22.8472 42.963C22.8525 43.0122 22.8532 43.0614 22.8543 43.1109C22.8528 43.1275 22.8513 43.1444 22.8491 43.1609C22.8423 43.2146 22.8326 43.2679 22.8202 43.3208C22.8153 43.3411 22.8097 43.3614 22.8044 43.3817C22.7852 43.4312 22.7665 43.4804 22.7436 43.5288C22.7222 43.5743 22.6974 43.6174 22.673 43.6614C22.6583 43.6813 22.6444 43.7016 22.6294 43.7211C22.5964 43.7639 22.5611 43.8052 22.5239 43.8446C22.5232 43.8454 22.522 43.8465 22.5213 43.8472C22.5175 43.8514 22.5134 43.8551 22.5089 43.8596C22.4946 43.8735 22.48 43.887 22.4668 43.9017C22.4774 43.8897 22.4804 43.887 22.4882 43.8784C22.4481 43.9114 22.4064 43.9426 22.3628 43.9708C22.3482 43.9805 22.3328 43.9892 22.3178 43.9986C22.272 44.0185 22.2269 44.0384 22.1792 44.0538C22.171 44.0564 22.1488 44.0624 22.1304 44.0673C22.124 44.0684 22.1184 44.0695 22.115 44.0699C21.8244 44.1146 21.5612 44.3646 21.6029 44.68C21.6408 44.9665 21.901 45.2399 22.213 45.1922C22.9001 45.0867 23.4652 44.6357 23.7619 44.0102C24.0619 43.3794 24.0468 42.6581 23.692 42.0555Z" fill="#425DBC"/>
<path d="M22.5099 43.8594C22.514 43.8553 22.5181 43.8512 22.5222 43.8471C22.5398 43.8277 22.5379 43.8254 22.4894 43.8785C22.4905 43.8773 22.492 43.8766 22.4931 43.8755C22.4991 43.8706 22.5043 43.865 22.5099 43.8594Z" fill="#425DBC"/>
<path d="M137.449 92.405C137.189 92.2818 136.81 92.3888 136.699 92.6734C136.406 93.4266 135.927 93.9699 135.234 94.3916C135.064 94.4952 134.989 94.5328 134.778 94.6195C134.591 94.6969 134.397 94.7603 134.201 94.8084C134.183 94.8118 134.144 94.8204 134.128 94.8234C134.079 94.8324 134.031 94.8407 133.982 94.8482C133.884 94.8624 133.785 94.8733 133.687 94.8801C133.578 94.8876 133.469 94.8899 133.36 94.888C133.346 94.8876 133.338 94.888 133.335 94.888C133.325 94.8869 133.317 94.8861 133.303 94.885C133.244 94.8794 133.184 94.8737 133.125 94.8666C132.823 94.8302 132.526 95.0066 132.469 95.3187C132.417 95.604 132.618 95.9378 132.921 95.9746C134.915 96.2153 136.982 95.0449 137.718 93.1552C137.828 92.8717 137.737 92.5413 137.449 92.405Z" fill="#425DBC"/>
<path d="M131.219 102.028C131.146 102.076 131.072 102.124 130.995 102.165C130.98 102.173 130.95 102.188 130.935 102.194C130.892 102.213 130.85 102.232 130.807 102.249C130.721 102.284 130.633 102.314 130.544 102.34C130.509 102.351 130.473 102.36 130.437 102.369C130.422 102.373 130.413 102.376 130.405 102.378C130.395 102.379 130.385 102.381 130.367 102.383C130.191 102.407 130.017 102.43 129.839 102.432C129.8 102.432 129.762 102.432 129.723 102.431C129.708 102.43 129.673 102.427 129.654 102.426C129.561 102.416 129.468 102.405 129.376 102.389C129.293 102.375 129.21 102.357 129.129 102.336C129.083 102.325 129.038 102.312 128.993 102.299C128.99 102.298 128.991 102.298 128.988 102.298C128.974 102.293 128.96 102.288 128.946 102.283C128.772 102.215 128.602 102.142 128.44 102.049C128.432 102.045 128.38 102.012 128.358 101.999C128.338 101.985 128.279 101.944 128.281 101.945C128.206 101.89 128.133 101.832 128.064 101.77C128.036 101.746 128.009 101.72 127.982 101.695C127.984 101.696 127.932 101.644 127.915 101.627C127.898 101.608 127.858 101.561 127.853 101.555C127.817 101.511 127.784 101.466 127.751 101.421C127.323 100.837 126.401 101.485 126.831 102.072C127.964 103.621 130.281 104.021 131.869 102.947C132.471 102.541 131.82 101.621 131.219 102.028Z" fill="#425DBC"/>
<path d="M105.507 4.67445C105.233 4.6369 104.872 4.81225 104.851 5.1269C104.84 5.28723 104.818 5.44643 104.781 5.603C104.772 5.64205 104.762 5.68072 104.751 5.7194C104.749 5.72503 104.748 5.73254 104.746 5.74005C104.737 5.80463 104.694 5.88123 104.67 5.93942C104.61 6.08211 104.537 6.21577 104.461 6.35019C104.459 6.35432 104.458 6.35583 104.456 6.35921C104.454 6.36146 104.454 6.36183 104.452 6.36446C104.429 6.39751 104.407 6.43055 104.383 6.46321C104.335 6.52817 104.285 6.59162 104.233 6.65283C104.181 6.71403 104.127 6.77373 104.071 6.83118C104.05 6.8522 104.029 6.87248 104.008 6.89351C104 6.89989 103.993 6.90627 103.986 6.91266C103.87 7.01328 103.746 7.10602 103.617 7.189C103.583 7.21041 103.549 7.23143 103.514 7.25171C103.504 7.25809 103.491 7.26335 103.479 7.26785C103.488 7.26523 103.49 7.26448 103.503 7.26072C103.429 7.28137 103.357 7.33244 103.285 7.36247C103.211 7.39364 103.136 7.42142 103.06 7.4462C103.028 7.45634 102.996 7.4661 102.964 7.47549C102.93 7.48525 102.777 7.52167 102.936 7.48638C102.649 7.55021 102.38 7.76723 102.423 8.09653C102.459 8.36612 102.726 8.67738 103.034 8.60867C103.831 8.4307 104.532 8.02857 105.07 7.40828C105.568 6.83531 105.907 6.09187 105.959 5.33116C105.979 5.03754 105.831 4.71913 105.507 4.67445Z" fill="#425DBC"/>
<path d="M103.478 7.26709C103.43 7.28128 103.447 7.27941 103.478 7.26709V7.26709Z" fill="#425DBC"/>
<path d="M110.204 7.73686C110.064 7.64299 109.932 7.53898 109.811 7.42146C109.806 7.4162 109.776 7.38504 109.757 7.36627C109.74 7.34636 109.704 7.30431 109.705 7.30581C109.651 7.24123 109.601 7.1744 109.553 7.10531C109.511 7.04298 109.47 6.97915 109.432 6.91419C109.422 6.89655 109.41 6.87439 109.404 6.86275C109.389 6.83347 109.375 6.80418 109.361 6.77452C109.291 6.62132 109.233 6.4625 109.188 6.30029C109.179 6.268 109.171 6.23571 109.163 6.20342C109.162 6.19704 109.162 6.19441 109.159 6.17714C109.145 6.09378 109.131 6.01118 109.123 5.92707C109.114 5.84334 109.109 5.75961 109.107 5.6755C109.106 5.63345 109.108 5.5914 109.107 5.54972C109.107 5.54634 109.107 5.54634 109.107 5.54371C109.107 5.53733 109.108 5.53358 109.108 5.52456C109.125 5.35748 109.149 5.19264 109.192 5.02969C109.197 5.01054 109.202 4.99177 109.208 4.97262C109.209 4.97111 109.226 4.9193 109.231 4.90503C109.263 4.8183 109.301 4.73381 109.342 4.65046C109.476 4.37749 109.346 4.02905 109.074 3.90026C108.794 3.76809 108.458 3.89501 108.323 4.16873C107.591 5.66161 108.086 7.66589 109.479 8.59932C109.731 8.76866 110.062 8.78068 110.272 8.52986C110.452 8.31659 110.457 7.90732 110.204 7.73686Z" fill="#425DBC"/>
<path d="M75.811 27.5105C75.7566 27.2112 75.5242 26.9702 75.2009 26.9983C74.9189 27.0231 74.6343 27.3073 74.6888 27.6085C74.9606 29.107 74.5386 30.6517 73.5056 31.792C73.0179 32.3304 73.8822 33.0529 74.3685 32.5159C75.5764 31.183 76.1325 29.2831 75.811 27.5105Z" fill="#425DBC"/>
<path d="M71.3748 40.5097C71.3065 40.4549 71.2393 40.3986 71.1751 40.3385C71.1394 40.3055 71.1049 40.2713 71.0707 40.2368C71.0651 40.2311 71.0557 40.2206 71.0474 40.2116C70.9265 40.0738 70.8173 39.9262 70.7204 39.7708C70.6949 39.7295 70.6701 39.6878 70.6457 39.6458C70.6412 39.6379 70.634 39.6247 70.6284 39.6142C70.5901 39.538 70.5544 39.4603 70.5218 39.3818C70.4504 39.2106 70.3937 39.0345 70.3479 38.855C70.3633 38.9155 70.3483 38.8606 70.3427 38.8314C70.3336 38.7833 70.3246 38.7356 70.3171 38.6876C70.3036 38.6008 70.2927 38.5137 70.2852 38.4266C70.2777 38.3395 70.2736 38.2516 70.2724 38.1641C70.2717 38.1195 70.2721 38.0748 70.2732 38.0305C70.2736 38.0196 70.2743 38.0061 70.2754 37.9948C70.2923 37.8108 70.3186 37.6291 70.3626 37.4492C70.3719 37.4117 70.3821 37.3741 70.3922 37.3366C70.4061 37.2855 70.3787 37.3659 70.4091 37.2814C70.4422 37.1898 70.4793 37.0997 70.5195 37.0111C70.8184 36.3499 69.8001 35.8681 69.5008 36.5293C68.7578 38.1728 69.2369 40.2424 70.6498 41.373C71.2168 41.8254 71.9422 40.9637 71.3748 40.5097Z" fill="#425DBC"/>
<path d="M73.3785 118.468C70.9889 118.469 69.3868 116.103 70.3416 113.99C71.0794 112.357 72.5607 110.903 75.4958 110.903H102.219C102.219 110.903 106.013 110.217 109.107 108.118H116.027C116.027 108.118 118.193 109.236 118.369 112.135C118.58 115.596 115.598 118.467 112.004 118.459L73.3785 118.468Z" fill="#AF6127"/>
<path d="M116.026 108.118C116.026 108.118 120.133 103.249 120.394 94.6896C120.655 86.13 123.357 70.4329 129.104 66.1968H102C102 66.1968 95.0378 73.1329 96.5998 82.7533C98.1618 92.3737 90.6493 108.118 90.6493 108.118H116.026Z" fill="#DC9122"/>
<path d="M108.39 118.469H77.1796V120.572H108.39V118.469Z" fill="#03726C"/>
<path d="M119.857 85.0425C118.16 89.6755 118.659 94.6602 117.896 99.4494C117.678 100.817 117.352 102.17 116.845 103.467C116.76 103.684 117.099 103.84 117.185 103.621C118.981 99.0206 118.505 94.0261 119.211 89.2377C119.414 87.8657 119.717 86.5053 120.196 85.1972C120.277 84.9794 119.938 84.8228 119.857 85.0425Z" fill="black"/>
<path d="M115.777 105.361C115.686 105.32 115.57 105.359 115.527 105.448C115.318 105.884 115.11 106.32 114.901 106.757C114.858 106.846 114.898 106.956 114.99 106.998C115.081 107.04 115.197 107.001 115.24 106.912C115.449 106.475 115.658 106.039 115.866 105.602C115.909 105.514 115.869 105.403 115.777 105.361Z" fill="black"/>
<path d="M73.4492 112.572C73.6166 112.403 73.3279 112.172 73.1616 112.339C72.4808 113.026 71.8962 113.84 71.6762 114.78C71.4708 115.659 71.6199 116.627 72.2018 117.346C72.3498 117.53 72.6577 117.322 72.5082 117.137C71.9687 116.469 71.8549 115.586 72.0625 114.777C72.2811 113.927 72.8304 113.196 73.4492 112.572Z" fill="black"/>
<path d="M73.993 113.505C73.4838 114.639 72.9518 116.012 73.7534 117.149C73.8894 117.342 74.1961 117.133 74.0598 116.94C73.3438 115.924 73.8826 114.662 74.3324 113.66C74.4285 113.446 74.0891 113.291 73.993 113.505Z" fill="black"/>
<path d="M103.192 120.572H80.9132V123.652H103.192V120.572Z" fill="black"/>
<path d="M94.2197 123.651H89.9149V151.143H94.2197V123.651Z" fill="black"/>
<path d="M111.733 153.681H107.978C107.978 152.292 106.807 151.162 105.367 151.162H78.7381C77.2985 151.162 76.1274 152.292 76.1274 153.681H72.3727C72.3727 150.295 75.2282 147.54 78.7385 147.54H105.367C108.877 147.54 111.733 150.295 111.733 153.681Z" fill="black"/>
<path d="M76.4162 159.588C77.9356 158.913 78.3618 156.553 77.3683 154.318C76.3748 152.082 74.3377 150.817 72.8183 151.492C71.2989 152.167 70.8727 154.527 71.8662 156.763C72.8598 158.998 74.8969 160.263 76.4162 159.588Z" fill="#03726C"/>
<path d="M75.7378 158.063C76.6843 157.642 76.9498 156.172 76.3308 154.779C75.7117 153.386 74.4426 152.598 73.4961 153.018C72.5495 153.439 72.2841 154.909 72.9031 156.302C73.5222 157.695 74.7913 158.483 75.7378 158.063Z" fill="#E8A73F"/>
<path d="M111.674 157.658C113.193 156.982 113.62 154.623 112.626 152.387C111.633 150.151 109.595 148.886 108.076 149.562C106.557 150.237 106.13 152.597 107.124 154.832C108.118 157.068 110.155 158.333 111.674 157.658Z" fill="#03726C"/>
<path d="M110.996 156.132C111.943 155.711 112.208 154.241 111.589 152.848C110.97 151.455 109.701 150.667 108.754 151.087C107.808 151.508 107.542 152.978 108.162 154.371C108.781 155.764 110.05 156.553 110.996 156.132Z" fill="#E8A73F"/>
<path d="M124.678 29.0806L122.33 34.035C122.33 34.035 117.565 30.9539 113.152 31.6766C112.575 27.2427 108.257 23.5687 108.257 23.5687L112.083 20.1079L105.811 12.4092L120.841 19.9209L123.861 23.126L132.348 32.1456L124.714 28.9946L124.678 29.0806Z" fill="#03726C"/>
<path d="M124.713 28.9941L124.678 29.0804L115.826 28.0813L113.2 21.4805L116.587 25.6407L124.713 28.9941Z" fill="#020616"/>
<path d="M123.854 23.1204L105.811 12.4097L120.841 19.921L123.854 23.1204Z" fill="#020616"/>
<path d="M137.357 40.8583C135.879 41.8097 133.953 41.8289 132.369 41.129C130.663 40.3754 129.369 38.8867 128.58 37.2237C127.708 35.385 127.46 33.4123 127.238 31.414C127.135 30.4791 126.99 29.5445 126.659 28.6599C126.371 27.8887 125.962 27.158 125.462 26.5047C124.399 25.1158 122.933 24.078 121.272 23.5429C121.225 23.4524 121.171 23.3657 121.112 23.2831C121.107 23.2504 121.096 23.2189 121.073 23.193C120.947 23.0458 120.802 22.9211 120.647 22.8085C120.562 22.7439 120.463 22.6793 120.359 22.626C120.344 22.6181 120.332 22.6065 120.316 22.5986C120.174 22.5284 120.013 22.4567 119.853 22.4488C119.678 22.4405 119.513 22.5273 119.443 22.6925C119.332 22.9549 119.513 23.2339 119.679 23.4243C119.863 23.6353 120.075 23.8159 120.323 23.9465C120.586 24.0843 120.897 24.1482 121.19 24.0877C121.237 24.078 121.276 24.0547 121.31 24.0262C122.807 24.5406 124.135 25.5142 125.096 26.7705C125.617 27.4516 126.03 28.2101 126.308 29.0218C126.635 29.9759 126.74 30.9822 126.843 31.9802C127.05 33.9698 127.402 35.961 128.34 37.7512C129.182 39.3575 130.472 40.7704 132.144 41.5244C133.888 42.3103 135.996 42.2723 137.623 41.2248C137.868 41.0667 137.601 40.701 137.357 40.8583Z" fill="black"/>
<path d="M137.95 40.4872C137.989 40.396 138.032 40.3062 138.079 40.2191C138.1 40.1808 138.121 40.1437 138.143 40.1061C138.149 40.0963 138.155 40.0866 138.161 40.0768C138.174 40.0558 138.188 40.0351 138.202 40.0145C138.308 39.8542 138.429 39.704 138.561 39.5647C138.643 39.4787 138.618 39.3142 138.525 39.2466C138.419 39.1693 138.295 39.1903 138.207 39.2823C137.925 39.5789 137.697 39.9293 137.536 40.3059C137.489 40.4147 137.538 40.5597 137.652 40.604C137.765 40.6475 137.901 40.6036 137.95 40.4872Z" fill="black"/>
<path d="M138.96 39.173C139.271 38.8335 139.668 38.5354 140.08 38.3338C140.186 38.282 140.263 38.1618 140.212 38.0424C140.168 37.9388 140.034 37.8547 139.921 37.9103C139.423 38.1539 138.981 38.4821 138.606 38.891C138.523 38.9811 138.551 39.1366 138.641 39.209C138.743 39.2894 138.877 39.2635 138.96 39.173Z" fill="black"/>
<path d="M141.757 37.36C141.707 37.2436 141.586 37.1876 141.465 37.2278C141.14 37.3359 140.815 37.4441 140.49 37.5518C140.378 37.589 140.311 37.7339 140.358 37.8432C140.408 37.9596 140.529 38.0155 140.649 37.9754C140.974 37.8672 141.3 37.7591 141.625 37.6513C141.737 37.6141 141.804 37.4692 141.757 37.36Z" fill="black"/>
<path d="M139.487 39.9986C139.577 39.922 139.617 39.7835 139.537 39.6825C139.465 39.5927 139.317 39.5499 139.221 39.6325C138.887 39.9179 138.554 40.2029 138.22 40.4883C138.13 40.5648 138.09 40.7034 138.17 40.8044C138.242 40.8941 138.39 40.9369 138.486 40.8543C138.819 40.569 139.153 40.2836 139.487 39.9986Z" fill="black"/>
<path d="M141.072 38.9111C141.022 38.7958 140.9 38.7376 140.781 38.7789C140.448 38.893 140.127 39.0342 139.817 39.2005C139.761 39.2306 139.716 39.2606 139.69 39.3215C139.668 39.3714 139.663 39.4412 139.685 39.4919C139.728 39.5922 139.865 39.6842 139.976 39.6241C140.285 39.4578 140.608 39.3166 140.94 39.2024C141.052 39.1638 141.119 39.0211 141.072 38.9111Z" fill="black"/>
<path d="M142.728 38.6795C142.762 38.637 142.784 38.5706 142.776 38.5158C142.759 38.3937 142.655 38.3014 142.528 38.313C142.329 38.3314 142.13 38.3498 141.931 38.3682C141.872 38.3734 141.813 38.4069 141.776 38.4523C141.743 38.4947 141.72 38.5612 141.728 38.616C141.746 38.738 141.85 38.8304 141.976 38.8188C142.175 38.8004 142.374 38.782 142.573 38.7636C142.632 38.7583 142.691 38.7249 142.728 38.6795Z" fill="black"/>
<path d="M142.809 39.5164C142.759 39.4008 142.637 39.3433 142.518 39.3843C142.139 39.5138 141.76 39.6433 141.381 39.7729C141.269 39.8112 141.202 39.9542 141.249 40.0642C141.298 40.1799 141.42 40.2373 141.54 40.1964C141.919 40.0669 142.298 39.9373 142.677 39.8078C142.789 39.7699 142.856 39.6264 142.809 39.5164Z" fill="black"/>
<path d="M140.521 40.5246C140.542 40.4747 140.547 40.4048 140.525 40.3541C140.482 40.2535 140.345 40.1626 140.234 40.222C139.925 40.386 139.616 40.5501 139.307 40.7142C139.251 40.7439 139.206 40.7743 139.18 40.8351C139.158 40.8851 139.153 40.9549 139.175 41.0056C139.218 41.1062 139.355 41.1971 139.467 41.1377C139.776 40.9737 140.084 40.8096 140.393 40.6455C140.449 40.6158 140.494 40.5851 140.521 40.5246Z" fill="black"/>
<path d="M138.799 41.4065C138.821 41.3565 138.825 41.2867 138.804 41.236C138.78 41.1816 138.74 41.1305 138.683 41.1084C138.63 41.0877 138.566 41.0794 138.512 41.1038C138.442 41.1358 138.369 41.159 138.294 41.1786C138.193 41.1996 138.09 41.2124 137.987 41.2097C137.995 41.2101 138.003 41.2101 138.011 41.2105C137.951 41.2078 137.897 41.2135 137.846 41.2507C137.801 41.2833 137.762 41.3423 137.756 41.3982C137.749 41.4564 137.759 41.5195 137.796 41.5668C137.831 41.6107 137.885 41.6547 137.944 41.6573C138.194 41.6689 138.443 41.6318 138.672 41.5274C138.727 41.5022 138.774 41.4639 138.799 41.4065Z" fill="black"/>
<path d="M85.3025 13.6088C85.5616 12.9705 85.9596 12.3885 86.459 11.9154C86.5379 11.8403 86.658 11.7615 86.7481 11.8215C86.8082 11.8628 86.8232 11.9417 86.827 12.013C86.8495 12.3209 86.7932 12.6288 86.7331 12.9292C86.1098 16.2521 85.7719 19.6464 85.9634 23.0257L81.6604 25.7516C81.6905 24.49 81.7205 23.2209 81.7506 21.9556H81.7017C80.0346 18.8129 79.3325 15.167 79.708 11.6263C79.7418 11.2959 79.7868 10.9655 79.8694 10.6426C79.8882 10.5675 79.9107 10.4886 79.9671 10.436C80.0835 10.3234 80.29 10.376 80.3951 10.4999C80.4965 10.6275 80.5265 10.7965 80.5528 10.9542C80.7518 12.1745 81.0522 13.376 81.4577 14.5437L81.529 14.5212C81.4539 12.4786 81.5666 10.3534 82.4977 8.52863C82.6029 8.32212 82.8169 8.08182 83.0272 8.1907C83.1398 8.24702 83.1849 8.37844 83.2149 8.49859C83.29 8.81775 83.3163 9.14441 83.32 9.47483C83.5115 8.94541 83.7894 8.44227 84.1386 7.99921C84.1724 7.9504 84.2174 7.90159 84.2737 7.89783C84.3676 7.88657 84.4277 7.98795 84.4615 8.07431C84.6342 8.53614 84.638 9.03552 84.6042 9.53115C84.8032 9.12188 85.0322 8.73139 85.2875 8.35591C85.3326 8.28833 85.3851 8.21699 85.464 8.19446C85.5954 8.16067 85.7118 8.27706 85.7756 8.39346C85.9746 8.75392 85.9333 9.19322 85.8845 9.60249C85.7193 10.9429 85.5166 12.2759 85.3025 13.6088Z" fill="#F3CEA3"/>
<path d="M83.1313 9.2655C82.915 10.9694 82.6984 12.6733 82.4821 14.3772C82.4517 14.6164 82.8212 14.6851 82.8516 14.4452C83.0679 12.7413 83.2845 11.0374 83.5008 9.33346C83.5308 9.09429 83.1617 9.02557 83.1313 9.2655Z" fill="black"/>
<path d="M84.308 9.26923C84.1627 10.9386 84.017 12.6083 83.8717 14.2777C83.851 14.5169 84.2201 14.5863 84.2412 14.3456C84.3865 12.6763 84.5321 11.0066 84.6775 9.33719C84.6981 9.09802 84.329 9.02856 84.308 9.26923Z" fill="black"/>
<path d="M85.4281 13.1385C85.3339 13.1212 85.2208 13.188 85.2096 13.289C85.1499 13.8275 85.0898 14.3659 85.0297 14.9043C85.0185 15.0049 85.0759 15.1037 85.1807 15.1228C85.2749 15.1401 85.3879 15.0733 85.3992 14.9723C85.4589 14.4338 85.519 13.8954 85.5787 13.357C85.5899 13.2564 85.5329 13.1576 85.4281 13.1385Z" fill="black"/>
<path d="M81.9024 15.3934C81.7811 15.0803 81.6598 14.7668 81.5386 14.4536C81.5033 14.362 81.3914 14.3034 81.2971 14.3432C81.2044 14.3823 81.1488 14.4867 81.1867 14.5847C81.308 14.8978 81.4293 15.2113 81.5506 15.5245C81.5859 15.6161 81.6978 15.6747 81.792 15.6349C81.8847 15.5958 81.9403 15.4914 81.9024 15.3934Z" fill="black"/>
<path d="M149.749 26.3447C149.929 26.5737 150.215 26.6413 150.508 26.6075C149.546 27.7339 146.242 30.1632 146.242 30.1632L144.185 33.5726C142.724 31.8003 140.978 30.1933 140.002 29.3447V29.341L142.623 26.9454C142.623 26.9454 143.283 19.7063 144.571 17.5511C145.859 15.3921 146.242 20.0555 146.242 20.0555L146.28 20.0855C146.047 20.3671 145.859 20.6788 145.72 21.0129C145.608 21.2833 145.533 21.6174 145.709 21.8502C145.897 22.0981 146.268 22.0981 146.573 22.038C147.095 21.9328 147.598 21.7226 148.033 21.4184C147.643 21.9779 147.399 22.635 147.331 23.3146C147.312 23.4911 147.331 23.7088 147.496 23.7839C147.605 23.829 147.729 23.7839 147.838 23.7389C148.289 23.5474 148.72 23.3071 149.122 23.033C148.773 23.5023 148.536 24.058 148.442 24.64C148.416 24.809 148.401 24.993 148.465 25.1544C148.6 25.4961 149.051 25.62 149.404 25.5111C149.513 25.4773 149.614 25.4285 149.712 25.3684C149.569 25.7101 149.528 26.0668 149.749 26.3447Z" fill="#F3CEA3"/>
<path d="M141.607 16.3087L156.425 27.342C157.211 27.9274 157.374 29.0388 156.788 29.8246L156.506 30.2039C155.921 30.9897 154.809 31.1527 154.023 30.5673L139.206 19.534C138.42 18.9486 138.257 17.8372 138.842 17.0514L139.125 16.6721C139.71 15.8863 140.821 15.7237 141.607 16.3087Z" fill="#F0FEFF"/>
<path d="M138.554 18.4673C138.866 18.8161 139.32 18.5165 139.607 18.2953C139.959 18.0239 140.332 17.6135 140.467 17.1805C140.525 16.9969 140.464 16.7664 140.263 16.6999C140.017 16.6185 139.794 16.8956 139.628 17.0326C139.428 17.1978 139.683 17.5087 139.882 17.3439C139.916 17.3165 139.949 17.2887 139.982 17.2613C139.944 17.327 139.905 17.3923 139.861 17.4543C139.689 17.6972 139.475 17.906 139.229 18.0734C139.151 18.1267 138.985 18.2604 138.884 18.2195C138.758 18.1688 138.768 17.9424 138.785 17.8365C138.835 17.5166 139.039 17.2324 139.242 16.9898C139.44 16.7548 139.672 16.5498 139.925 16.3759C140.116 16.2445 140.46 15.9888 140.702 16.1243C140.927 16.2505 140.965 16.5651 140.942 16.7934C140.916 17.0574 140.816 17.309 140.702 17.5463C140.413 18.1448 139.886 18.8266 139.236 19.0508C138.991 19.1353 139.16 19.4999 139.402 19.4161C139.82 19.2719 140.167 18.9464 140.457 18.6231C140.771 18.2721 141.025 17.8583 141.195 17.4182C141.321 17.0908 141.404 16.7108 141.314 16.3639C141.218 15.9959 140.932 15.6715 140.526 15.6892C140.111 15.7072 139.702 16.017 139.396 16.2734C139.057 16.5576 138.751 16.9042 138.55 17.2996C138.372 17.6488 138.263 18.1433 138.554 18.4673Z" fill="black"/>
<path d="M150.508 26.6075C150.215 26.6413 149.93 26.5737 149.75 26.3446C149.528 26.0668 149.569 25.7101 149.712 25.3684C149.614 25.4285 149.513 25.4773 149.404 25.5111C149.051 25.62 148.601 25.4961 148.465 25.1544C148.402 24.9929 148.417 24.8089 148.443 24.64C148.537 24.058 148.773 23.5023 149.123 23.033C148.721 23.3071 148.289 23.5474 147.838 23.7388C147.73 23.7839 147.606 23.829 147.497 23.7839C147.332 23.7088 147.313 23.491 147.332 23.3146C147.399 22.635 147.643 21.9779 148.034 21.4184C147.598 21.7226 147.095 21.9328 146.573 22.0379C146.269 22.098 145.897 22.098 145.709 21.8502C145.533 21.6174 145.608 21.2832 145.721 21.0129C145.86 20.6787 146.047 20.3671 146.28 20.0855C146.881 19.3345 147.756 18.8014 148.71 18.6399C148.83 18.6211 148.957 18.6061 149.07 18.6549C149.25 18.7375 149.322 18.9515 149.352 19.1468C149.4 19.4622 149.382 19.7851 149.299 20.093C149.674 19.9128 150.054 19.7476 150.44 19.5936C150.538 19.5561 150.643 19.5185 150.745 19.541C150.962 19.5899 151.034 19.8564 151.037 20.078C151.052 20.6262 150.91 21.1744 150.628 21.6437C150.951 21.5611 151.221 21.3433 151.537 21.2307C151.849 21.118 152.277 21.1668 152.408 21.4747C152.487 21.655 152.434 21.8615 152.374 22.0492C152.198 22.5786 151.95 23.0818 151.642 23.5398C151.894 23.4084 152.22 23.277 152.449 23.4497C152.697 23.6337 152.633 24.0129 152.532 24.3058C152.258 25.083 151.864 25.864 151.188 26.3371C150.992 26.4723 150.748 26.5737 150.508 26.6075Z" fill="#F3CEA3"/>
<path d="M149.238 20.1083C149.157 20.0404 149.043 20.0569 148.974 20.1316C148.583 20.5521 148.192 20.9727 147.801 21.3936C147.732 21.4679 147.749 21.5952 147.824 21.6579C147.906 21.7259 148.02 21.7094 148.089 21.6346C148.48 21.2141 148.871 20.7936 149.262 20.3727C149.33 20.2987 149.313 20.1714 149.238 20.1083Z" fill="black"/>
<path d="M150.722 21.6601C150.638 21.5899 150.529 21.6117 150.457 21.6834C149.981 22.158 149.504 22.6322 149.027 23.1068C148.955 23.1785 148.978 23.3103 149.051 23.3711C149.134 23.4413 149.243 23.4199 149.315 23.3479C149.792 22.8733 150.268 22.399 150.745 21.9244C150.817 21.8531 150.794 21.7213 150.722 21.6601Z" fill="black"/>
<path d="M151.509 23.6308C151.425 23.5602 151.317 23.5828 151.245 23.6541C150.735 24.1531 150.226 24.6521 149.716 25.1511C149.643 25.2221 149.667 25.355 149.739 25.4155C149.823 25.4861 149.931 25.4635 150.003 25.3922C150.513 24.8932 151.023 24.3942 151.533 23.8952C151.605 23.8242 151.582 23.6917 151.509 23.6308Z" fill="black"/>
<path d="M136.866 63.7008C136.276 64.6583 135.465 65.4806 134.729 66.3217C133.888 67.2829 133.047 68.2441 132.206 69.2053C131.376 70.159 130.547 71.1127 129.713 72.0627C129.048 72.8174 128.324 73.5908 127.344 73.9137C126.274 74.2704 125.136 74.0527 124.073 73.7936C123.514 73.6584 122.962 73.5045 122.395 73.4031C121.776 73.2905 121.149 73.2492 120.518 73.2416C118.325 73.2266 116.095 73.5983 113.981 72.8436C113.155 72.547 112.377 72.0889 111.788 71.4319C111.161 70.7222 110.853 69.8211 110.778 68.8861C110.631 66.9449 111.42 64.786 110.44 62.9687C109.693 61.5869 108.191 60.821 106.892 60.0512C105.585 59.2778 104.211 58.4067 103.599 56.9536C102.912 55.3278 103.419 53.5405 103.922 51.9372C104.425 50.3189 105.123 48.5054 104.62 46.8007C104.001 44.7206 101.845 43.6881 100.497 42.1486C99.8666 41.4277 99.3935 40.5641 99.341 39.5916C99.3222 39.2913 99.3485 38.9909 99.4123 38.7055C98.8153 38.7881 98.207 38.8294 97.6175 38.7243C97.5162 38.7055 97.4185 38.683 97.3209 38.6567C96.4123 38.4164 95.6012 37.8269 95.0831 37.0422L94.8315 36.6029L94.8127 36.5616C94.7752 36.4865 94.7451 36.4114 94.7151 36.3363C94.5762 35.9796 94.5048 35.544 94.7339 35.2399C95.0418 34.8344 95.6463 34.9057 96.1532 34.917C97.1782 34.9358 98.1732 34.5302 99.0556 33.9971C99.9342 33.4639 100.73 32.8031 101.586 32.2323C102.589 31.5678 103.678 31.0308 104.819 30.6366C106.133 30.186 107.583 29.9307 108.916 30.3362C110.17 30.7192 111.27 31.8156 111.371 33.1072C111.645 32.9645 111.938 32.8519 112.246 32.7805C113.853 32.3976 115.595 32.9983 116.444 34.4551C116.575 34.6804 116.68 34.9132 116.774 35.1498C117.244 36.0697 117.499 37.1248 117.796 38.1273C118.07 39.0547 118.449 40.0122 119.042 40.7556C120.176 41.698 121.776 42.0435 123.202 42.2763C125.038 42.5729 127.07 42.8019 128.538 44.056C131.609 46.6768 129.368 51.2201 131.17 54.3928C132.206 56.2214 134.279 57.0324 135.754 58.4254C136.464 59.0975 137.106 59.9236 137.358 60.8848C137.617 61.8685 137.395 62.8448 136.866 63.7008Z" fill="black"/>
<path d="M112.37 46.0421L114.169 51.5316C114.169 51.5316 103.017 61.3202 100.025 67.7108L103.317 58.4929V56.3527C103.317 56.3527 107.688 54.8207 110.215 49.6317C109.175 51.2575 106.933 53.2663 103.317 52.6805H103.314C102.777 52.5942 102.214 52.4515 101.617 52.2412C97.7755 50.8895 97.2385 44.4163 97.246 40.8268C97.2498 39.813 97.2949 39.0283 97.3211 38.6566C97.4188 38.6829 97.5164 38.7054 97.6178 38.7242C98.2523 38.8368 98.9056 38.7842 99.5439 38.6866C100.486 38.5402 101.414 38.2924 102.304 37.9507C103.449 37.5114 104.534 36.9106 105.514 36.1747C105.848 35.9231 106.175 35.6528 106.558 35.4801C106.941 35.3073 107.395 35.2473 107.774 35.4237C108.139 35.5927 108.375 35.9494 108.57 36.2986C109.089 37.2185 109.464 38.2098 109.956 39.1409C110.444 40.0608 111.075 40.9432 111.957 41.4952C112.205 41.146 112.783 40.5039 113.583 40.6541C113.85 40.7029 114.142 40.8418 114.454 41.1047C116.042 42.4489 112.37 46.0421 112.37 46.0421Z" fill="#F3CEA3"/>
<path d="M113.628 41.4541C113.688 41.5367 113.673 41.6757 113.583 41.7282C113.271 41.9047 113.004 42.1375 112.783 42.4191C112.58 42.6819 112.362 43.0424 112.34 43.3841C112.328 43.5155 112.374 43.692 112.516 43.7408C112.663 43.7896 112.824 43.6544 112.922 43.5605C113.042 43.4516 113.177 43.3052 113.241 43.155C113.26 43.11 113.282 43.0574 113.252 43.0123C113.241 42.9936 113.23 42.9861 113.215 42.9785C113.211 42.9823 113.211 42.9823 113.211 42.9823C113.012 43.14 112.783 42.8171 112.982 42.6594C113.158 42.5205 113.399 42.5843 113.541 42.742C113.699 42.9222 113.684 43.1738 113.571 43.3728C113.387 43.7032 113.042 44.09 112.644 44.1388C112.175 44.1951 111.915 43.7295 111.949 43.3202C111.987 42.911 112.227 42.4979 112.471 42.1788C112.708 41.8671 113.012 41.6006 113.353 41.4091C113.447 41.3527 113.564 41.3603 113.628 41.4541Z" fill="#AF6127"/>
<path d="M108.543 42.9409C109.445 42.9409 110.173 43.6731 110.173 44.5742C110.173 45.4754 109.445 46.2075 108.543 46.2075C107.642 46.2075 106.91 45.4754 106.91 44.5742C106.91 43.6731 107.642 42.9409 108.543 42.9409Z" fill="#AF6127"/>
<path d="M106.629 39.141C106.847 39.1523 106.971 39.4114 106.945 39.6028C106.915 39.8319 106.689 39.9295 106.487 39.9182C105.792 39.8807 105.094 39.8431 104.399 39.8056C104.181 39.7943 104.057 39.5353 104.084 39.3475C104.114 39.1185 104.339 39.0209 104.542 39.0321C105.236 39.0697 105.935 39.1035 106.629 39.141Z" fill="black"/>
<path d="M105.525 40.6318C105.972 40.6318 106.336 41.0561 106.336 41.5818C106.336 42.1075 105.972 42.5317 105.525 42.5317C105.078 42.5317 104.718 42.1075 104.718 41.5818C104.718 41.0561 105.078 40.6318 105.525 40.6318Z" fill="black"/>
<path d="M110.216 49.6318C107.689 54.8209 103.318 56.3528 103.318 56.3528V52.6807C106.934 53.2664 109.176 51.2576 110.216 49.6318Z" fill="black"/>
<path d="M106.031 46.7817C106.031 46.7817 106.662 48.5652 104.522 49.4138C102.386 50.2661 101.999 48.3738 101.999 48.3738L106.031 46.7817Z" fill="white"/>
<path d="M102 42.1187L102.961 45.1637C101.11 46.6732 98.8194 46.0123 100.134 45.1637C101.452 44.3152 102 42.1187 102 42.1187Z" fill="#AF6127"/>
<path d="M100.249 39.9031C100.264 40.0007 100.223 40.1171 100.159 40.1922C100.088 40.2785 100.001 40.3048 99.8924 40.3311C99.3254 40.4588 98.7585 40.5864 98.1915 40.7103C97.9737 40.7592 97.7897 40.5414 97.7635 40.3536C97.7522 40.256 97.7935 40.1396 97.8536 40.0645C97.9287 39.9782 98.015 39.9481 98.1239 39.9256C98.6909 39.7979 99.2578 39.6703 99.8248 39.5426C100.039 39.4976 100.227 39.7153 100.249 39.9031Z" fill="black"/>
<path d="M99.3267 43.0684C99.7725 43.0684 100.134 42.643 100.134 42.1184C100.134 41.5938 99.7725 41.1685 99.3267 41.1685C98.8808 41.1685 98.5194 41.5938 98.5194 42.1184C98.5194 42.643 98.8808 43.0684 99.3267 43.0684Z" fill="black"/>
<path d="M119.937 42.4685C118.682 42.5053 117.833 41.3984 117.398 40.3497C116.93 39.2207 116.732 37.9944 116.092 36.937C115.967 36.7301 115.661 36.9479 115.786 37.154C116.492 38.3214 116.635 39.7193 117.251 40.9276C117.781 41.9684 118.73 42.8789 119.97 42.8425C120.212 42.8357 120.178 42.4618 119.937 42.4685Z" fill="white"/>
<path d="M121.919 43.8301C121.432 43.7377 120.945 43.645 120.458 43.5526C120.22 43.5076 120.152 43.877 120.39 43.9221C120.877 44.0148 121.364 44.1072 121.851 44.1996C122.089 44.2446 122.156 43.8752 121.919 43.8301Z" fill="white"/>
<path d="M135.522 61.1458C135.248 60.3404 134.62 59.6623 133.773 59.4776C133.536 59.4261 133.469 59.7956 133.705 59.847C134.448 60.0092 134.969 60.6344 135.19 61.3384C135.438 62.1303 135.238 62.9717 134.852 63.684C133.96 65.3289 132.212 66.22 130.935 67.5168C130.277 68.1859 129.735 68.9741 129.505 69.8936C129.447 70.1286 129.816 70.1947 129.875 69.9616C130.363 68.0083 132.255 66.9349 133.656 65.6857C134.903 64.5739 136.117 62.9023 135.522 61.1458Z" fill="white"/>
<path d="M129.674 66.9882C129.322 67.6588 128.97 68.3294 128.618 69C128.505 69.2148 128.846 69.374 128.958 69.1607C129.309 68.4901 129.662 67.8195 130.013 67.1489C130.126 66.9342 129.786 66.7746 129.674 66.9882Z" fill="white"/>
<path d="M99.2927 37.4027C98.5568 37.4898 97.81 37.4244 97.1037 37.1961C96.5307 37.0107 95.74 36.7084 95.5526 36.0701C95.4847 35.8384 95.1328 35.9698 95.2008 36.2011C95.4118 36.919 96.2187 37.2863 96.8679 37.5104C97.6575 37.783 98.4963 37.875 99.3258 37.7766C99.5649 37.7485 99.5334 37.3745 99.2927 37.4027Z" fill="white"/>
<path d="M102.208 36.7866C102.171 36.6867 102.064 36.6462 101.966 36.6762C101.388 36.8542 100.809 37.0325 100.23 37.2105C100.134 37.2402 100.086 37.3607 100.12 37.4519C100.157 37.5518 100.264 37.5924 100.362 37.5623C100.94 37.3843 101.519 37.2064 102.097 37.028C102.194 36.998 102.242 36.8775 102.208 36.7866Z" fill="white"/>
<path d="M100.585 36.078L98.7084 36.369C98.6082 36.3844 98.5286 36.4666 98.5376 36.5725C98.5458 36.6686 98.6401 36.7587 98.7411 36.7433L100.618 36.4523C100.718 36.4369 100.798 36.3547 100.789 36.2488C100.78 36.1523 100.686 36.0622 100.585 36.078Z" fill="white"/>
<path d="M110.893 33.0929C110.514 32.1606 109.752 31.3991 108.812 31.0338C108.718 30.997 108.608 31.027 108.562 31.1231C108.521 31.2099 108.557 31.3364 108.652 31.3732C109.502 31.7036 110.197 32.3768 110.541 33.2235C110.632 33.4469 110.984 33.3178 110.893 33.0929Z" fill="white"/>
<path d="M107.659 30.7613C107.015 30.6873 106.375 30.8191 105.81 31.1364C105.722 31.1859 105.711 31.3215 105.766 31.3981C105.829 31.4878 105.939 31.4927 106.027 31.4428C106.498 31.1784 107.055 31.0688 107.591 31.1304C107.691 31.142 107.79 31.0842 107.809 30.9798C107.827 30.8852 107.76 30.7729 107.659 30.7613Z" fill="white"/>
<path d="M123.143 64.6581L112.048 84.1414C112.048 84.1414 122.324 114.412 99.2289 114.412H67.1596C62.4212 109.418 60.0294 105.371 58.8279 102.615C57.6864 100.001 57.6113 98.5446 57.6113 98.5446L87.6718 91.1891C87.6718 91.1891 99.4279 91.5007 103.453 96.1904C103.359 95.9539 100.216 88.3092 88.3251 87.134H88.3214C89.812 81.209 93.3077 71.931 93.3077 71.931C90.0486 67.2413 93.5405 61.6242 96.3753 58.275C97.896 56.4802 99.2289 55.335 99.2289 55.335L90.6531 48.4714H90.6493L78.5365 27.7264L81.6605 25.7514L85.9634 23.0255L86.7857 22.5073L94.8133 36.5613L94.8321 36.6026C94.9072 36.7566 94.9898 36.903 95.0837 37.0419L97.2464 40.8267C97.2389 44.4163 97.7758 50.8894 101.617 52.2411C102.214 52.4514 102.777 52.5941 103.314 52.6804C98.1062 61.3426 100.025 67.7107 100.025 67.7107C103.813 63.787 115.825 56.5741 115.825 56.5741L115.754 56.3601L126.124 44.1121L139.248 28.7023C139.248 28.7023 139.537 28.9388 140.003 29.3443C140.979 30.1929 142.725 31.7999 144.186 33.5722C145.458 35.1154 146.514 36.7862 146.66 38.198L123.143 64.6581Z" fill="#03726C"/>
<path d="M115.753 56.3598L115.824 56.5739C115.824 56.5739 103.813 63.7867 100.024 67.7104C103.017 61.3199 114.169 51.5312 114.169 51.5312L115.753 56.3598Z" fill="#111111"/>
<path d="M107.215 77.7244L95.4891 74.593C97.359 68.6417 107.215 77.7244 107.215 77.7244Z" fill="black"/>
<path d="M103.318 56.3528V58.493L100.025 67.7109C100.025 67.7109 98.1061 61.3429 103.314 52.6807H103.318V56.3528Z" fill="#111111"/>
<path d="M88.325 87.1338C100.216 88.309 103.359 95.9537 103.453 96.1902C99.4278 91.5006 87.6717 91.1889 87.6717 91.1889C87.6191 90.3478 87.882 88.8873 88.3213 87.1338H88.325Z" fill="black"/>
<path d="M90.6532 48.4717L99.229 55.3354C99.229 55.3354 97.8961 56.4805 96.3754 58.2753L90.6494 48.4717H90.6532Z" fill="black"/>
<path d="M94.832 36.6025L95.0836 37.0418C94.9897 36.9029 94.9071 36.7565 94.832 36.6025Z" fill="#E8A73F"/>
<path d="M122.611 43.0074C122.194 42.9124 121.777 42.817 121.36 42.722C121.264 42.7003 121.155 42.7754 121.142 42.8726C121.127 42.977 121.19 43.0679 121.293 43.0911C121.709 43.1861 122.127 43.2815 122.544 43.3765C122.639 43.3983 122.749 43.3232 122.762 43.2259C122.776 43.1216 122.714 43.0311 122.611 43.0074Z" fill="white"/>
<path d="M88.3367 41.5066C87.5981 40.307 86.8595 39.1077 86.1206 37.9081C85.9937 37.7023 85.6877 37.9197 85.8142 38.1251C86.5528 39.3247 87.2913 40.524 88.0303 41.7237C88.1572 41.9294 88.4632 41.712 88.3367 41.5066Z" fill="black"/>
<path d="M90.0238 44.5141C89.6517 43.842 89.2792 43.1699 88.9071 42.4978C88.8579 42.4091 88.7216 42.399 88.6454 42.4531C88.5553 42.5169 88.5515 42.6258 88.6007 42.7148C88.9728 43.3869 89.3453 44.059 89.7174 44.7307C89.7666 44.8193 89.9029 44.8295 89.9791 44.7754C90.0692 44.7119 90.073 44.603 90.0238 44.5141Z" fill="black"/>
<path d="M89.8099 42.0147C89.487 41.5728 89.1641 41.1305 88.8412 40.6886C88.7815 40.6067 88.6629 40.5846 88.5795 40.6439C88.4977 40.7021 88.4748 40.8234 88.5348 40.9056C88.8577 41.3475 89.1807 41.7898 89.5036 42.2318C89.5633 42.3136 89.6819 42.3358 89.7653 42.2764C89.8475 42.2182 89.87 42.097 89.8099 42.0147Z" fill="black"/>
<path d="M127.355 57.5466C126.359 58.6836 125.362 59.8209 124.365 60.9578C124.206 61.1399 124.494 61.381 124.653 61.1993C125.65 60.0623 126.647 58.925 127.643 57.7881C127.803 57.606 127.515 57.3645 127.355 57.5466Z" fill="black"/>
<path d="M129.839 54.535C129.253 55.2491 128.668 55.9637 128.082 56.6778C127.929 56.8648 128.216 57.1062 128.369 56.9192C128.955 56.2051 129.541 55.4906 130.127 54.7764C130.28 54.589 129.993 54.3476 129.839 54.535Z" fill="black"/>
<path d="M127.621 55.5158C127.08 56.1594 126.54 56.8026 125.999 57.4462C125.843 57.6313 126.131 57.8727 126.287 57.6876C126.827 57.044 127.368 56.4008 127.909 55.7573C128.064 55.5718 127.776 55.3304 127.621 55.5158Z" fill="black"/>
<path d="M112.826 94.4235C112.776 94.1903 112.401 94.2204 112.452 94.4562C112.82 96.1593 112.845 97.9139 112.52 99.6261C112.475 99.8638 112.845 99.9313 112.89 99.694C113.22 97.9515 113.2 96.1571 112.826 94.4235Z" fill="black"/>
<path d="M112.32 100.9C111.944 102.267 111.568 103.634 111.192 105.002C111.128 105.235 111.498 105.301 111.561 105.07C111.937 103.703 112.314 102.336 112.689 100.968C112.753 100.735 112.383 100.669 112.32 100.9Z" fill="black"/>
<path d="M111.231 98.5166C111.114 99.4906 110.996 100.465 110.879 101.439C110.85 101.678 111.22 101.747 111.249 101.507C111.366 100.533 111.483 99.559 111.6 98.5846C111.629 98.3454 111.26 98.2763 111.231 98.5166Z" fill="black"/>
<path d="M61.399 103.764C60.8576 102.538 60.3165 101.312 59.7751 100.086C59.6782 99.8667 59.3253 99.9955 59.4233 100.217C59.9647 101.443 60.5058 102.669 61.0472 103.895C61.1441 104.115 61.497 103.986 61.399 103.764Z" fill="black"/>
<path d="M63.9095 107.365C63.2925 106.454 62.676 105.543 62.0591 104.632C61.9236 104.432 61.6168 104.648 61.7527 104.849L63.6031 107.582C63.7386 107.782 64.0454 107.565 63.9095 107.365Z" fill="black"/>
<path d="M64.3366 105.478C63.7813 104.596 63.2259 103.714 62.6702 102.831C62.5415 102.627 62.2351 102.844 62.3639 103.048C62.9192 103.931 63.4745 104.813 64.0302 105.695C64.159 105.899 64.4654 105.682 64.3366 105.478Z" fill="black"/>
<path d="M74.2182 159.661L74.1694 161.031L53.6272 161.245C53.6272 161.245 50.1165 157.919 53.7398 155.662C53.7398 155.662 48.5357 150.439 50.338 148.712C52.7223 146.418 55.3656 154.648 55.3656 154.648L56.8638 154.359C56.8638 154.359 58.6247 146.497 60.8888 146.767C63.3632 147.067 60.7574 151.461 59.3982 153.511C58.9777 154.141 58.6773 154.551 58.6773 154.551C58.6773 154.551 60.7049 155.433 61.1967 158.854C61.223 159.023 61.2455 159.195 61.2606 159.376L74.2182 159.661Z" fill="#E8A73F"/>
<path d="M70.2147 142.509C70.2147 142.509 72.7041 149.05 72.4 149.748C72.0958 150.447 64.8717 158.125 64.8717 158.125L61.1958 158.854C60.7039 155.433 58.6764 154.551 58.6764 154.551C58.6764 154.551 58.9768 154.141 59.3973 153.511H60.0769L63.9743 144.458C65.7466 144.443 68.7691 144.142 70.0495 142.445L70.2147 142.509Z" fill="#F3CEA3"/>
<path d="M63.9747 144.458C63.1675 144.469 62.6193 144.421 62.6193 144.421L56.3151 124.059L62.4616 115.873L67.1588 114.413L70.2902 142.074C70.2189 142.205 70.14 142.329 70.0499 142.446C68.7695 144.143 65.747 144.443 63.9747 144.458Z" fill="#111111"/>
<path d="M67.1588 114.413L62.4616 115.873L56.3151 124.059L61.628 114.413C61.628 114.413 63.5692 114.413 67.1588 114.413Z" fill="black"/>
<path d="M44.9236 143.114C43.5644 142.881 40.8873 142.16 39.4642 140.009C39.2277 139.66 39.0287 139.269 38.8748 138.837C38.8748 138.837 50.2516 106.167 52.8612 104.808C54.6522 103.877 57.3256 103.047 58.8275 102.615C60.029 105.371 62.4208 109.419 67.1592 114.413C63.5697 114.413 61.6285 114.413 61.6285 114.413L56.3155 124.059L45.761 143.223C45.761 143.223 45.438 143.204 44.9236 143.114Z" fill="#111111"/>
<path d="M44.9232 143.114C44.4463 145.085 43.2486 149.752 42.5164 149.981C41.604 150.263 32.878 151.915 32.6527 151.96H32.6489L28.9205 148.329C30.0281 146.899 30.4411 145.641 30.5575 144.683L38.1759 142.25L39.4638 140.009C40.8868 142.16 43.564 142.881 44.9232 143.114Z" fill="#F3CEA3"/>
<path d="M38.6864 157.833L37.6651 158.854L21.7037 144.301C21.7037 144.301 21.3846 139.224 25.7889 140.084C25.7889 140.084 25.5298 132.338 28.1544 132.297C31.6313 132.24 27.7714 140.467 27.7714 140.467L29.1269 141.319C29.1269 141.319 36.1182 136.528 37.6651 138.361C37.8078 138.533 37.9017 138.699 37.9543 138.864C38.6789 141.203 30.3884 142.765 30.3884 142.765C30.3884 142.765 30.7038 143.49 30.5574 144.684C30.441 145.641 30.028 146.899 28.9203 148.329L32.6488 151.96H32.6526L38.6864 157.833Z" fill="#E8A73F"/>
<path d="M60.8998 110.153C60.869 109.914 60.4951 109.945 60.5258 110.186L60.8743 112.9C60.9051 113.139 61.279 113.107 61.2483 112.867C61.1322 111.962 61.0158 111.058 60.8998 110.153Z" fill="black"/>
<path d="M60.0284 113.202C59.4265 112.505 58.825 111.808 58.2231 111.111C58.157 111.034 58.0497 111.004 57.9614 111.066C57.8848 111.121 57.8503 111.251 57.9167 111.328C58.5186 112.025 59.1201 112.722 59.722 113.419C59.7881 113.496 59.8955 113.526 59.9837 113.464C60.0603 113.41 60.0952 113.279 60.0284 113.202Z" fill="black"/>
<path d="M60.7098 133.2C60.4613 132.224 60.2123 131.248 59.9638 130.272C59.9041 130.039 59.5526 130.171 59.6119 130.403C59.8605 131.379 60.1094 132.355 60.358 133.331C60.4173 133.565 60.7692 133.432 60.7098 133.2Z" fill="black"/>
<path d="M62.6554 139.343C62.2248 137.809 61.7941 136.276 61.3634 134.742C61.2981 134.509 60.9463 134.641 61.0116 134.873L62.3036 139.474C62.3686 139.706 62.7204 139.575 62.6554 139.343Z" fill="black"/>
<path d="M62.7091 134.875C62.4537 134.109 62.1988 133.344 61.9435 132.578C61.8672 132.349 61.515 132.48 61.5916 132.709C61.847 133.475 62.1019 134.24 62.3572 135.006C62.4335 135.235 62.7853 135.104 62.7091 134.875Z" fill="black"/>
<path d="M41.479 133.187L40.1434 137.172C40.0676 137.399 40.4063 137.562 40.4829 137.333L41.8184 133.348C41.8943 133.121 41.5556 132.958 41.479 133.187Z" fill="black"/>
<path d="M43.6519 128.083L42.0896 131.718C41.9942 131.94 42.3337 132.101 42.429 131.879L43.9914 128.244C44.0867 128.022 43.7473 127.861 43.6519 128.083Z" fill="black"/>
<path d="M43.1391 131.69C43.0295 131.67 42.9507 131.743 42.9206 131.84L42.3161 133.795C42.2861 133.892 42.3754 133.997 42.4667 134.014C42.5763 134.034 42.6552 133.961 42.6852 133.863L43.2897 131.908C43.3198 131.811 43.2304 131.706 43.1391 131.69Z" fill="black"/>
<path d="M55.1966 157.141C55.2207 156.714 54.996 156.354 54.6948 156.337C54.3936 156.32 54.1298 156.653 54.1057 157.08C54.0816 157.506 54.3062 157.866 54.6075 157.883C54.9087 157.9 55.1724 157.568 55.1966 157.141Z" fill="white"/>
<path d="M57.7992 156.939C57.8233 156.512 57.5987 156.152 57.2975 156.135C56.9962 156.118 56.7325 156.45 56.7083 156.877C56.6842 157.304 56.9089 157.664 57.2101 157.681C57.5114 157.698 57.7751 157.365 57.7992 156.939Z" fill="white"/>
<path d="M56.3666 158.153C56.3354 158.083 56.2911 158.017 56.2296 157.97C56.1691 157.924 56.0955 157.888 56.0185 157.884C55.9566 157.88 55.9123 157.884 55.8515 157.9C55.8488 157.901 55.8462 157.903 55.8436 157.904C55.8349 157.905 55.8267 157.904 55.818 157.908C55.755 157.932 55.702 157.974 55.6581 158.023C55.6551 158.026 55.6513 158.029 55.6483 158.032C55.6476 158.032 55.6472 158.033 55.6468 158.034C55.5973 158.094 55.5623 158.167 55.5488 158.245C55.5233 158.393 55.5717 158.562 55.6971 158.654C55.8218 158.745 55.9836 158.768 56.1293 158.715C56.2697 158.663 56.3858 158.533 56.3985 158.381C56.4053 158.303 56.3985 158.225 56.3666 158.153Z" fill="black"/>
<path d="M60.2799 147.717C60.2078 147.656 60.0734 147.656 60.0156 147.74C59.5076 148.472 59.066 149.247 58.701 150.06C58.6019 150.28 58.9414 150.441 59.0405 150.22C59.3923 149.437 59.8136 148.686 60.3032 147.981C60.361 147.898 60.3625 147.786 60.2799 147.717Z" fill="black"/>
<path d="M58.384 150.779C58.1107 151.485 57.8377 152.191 57.5644 152.898C57.4776 153.123 57.8167 153.284 57.9038 153.059C58.1771 152.352 58.4501 151.646 58.7235 150.939C58.8106 150.714 58.4711 150.553 58.384 150.779Z" fill="black"/>
<path d="M59.8994 149.813C59.8266 149.752 59.6937 149.753 59.6351 149.836C59.3257 150.274 59.0993 150.758 58.9611 151.276C58.9352 151.374 59.0178 151.477 59.1117 151.495C59.2183 151.514 59.3043 151.442 59.3302 151.344C59.45 150.894 59.6527 150.459 59.9223 150.078C59.9813 149.995 59.9817 149.882 59.8994 149.813Z" fill="black"/>
<path d="M53.4227 151.712C52.9451 150.964 52.4675 150.215 51.9896 149.467C51.8596 149.263 51.5533 149.481 51.6832 149.684C52.1608 150.433 52.6384 151.181 53.1164 151.93C53.2463 152.133 53.5527 151.916 53.4227 151.712Z" fill="black"/>
<path d="M54.3942 153.802C54.2376 153.436 54.0807 153.071 53.9241 152.706C53.8854 152.616 53.7792 152.555 53.6827 152.595C53.593 152.633 53.5306 152.74 53.5723 152.837C53.7289 153.202 53.8858 153.567 54.0424 153.933C54.0811 154.023 54.1873 154.084 54.2838 154.043C54.3736 154.005 54.4355 153.898 54.3942 153.802Z" fill="black"/>
<path d="M53.3244 152.992L52.7769 151.948C52.7315 151.861 52.6369 151.795 52.5355 151.838C52.4514 151.873 52.3763 151.986 52.4251 152.079L52.9726 153.123C53.018 153.21 53.1122 153.277 53.214 153.234C53.2977 153.198 53.3732 153.085 53.3244 152.992Z" fill="black"/>
<path d="M54.1188 158.722C53.9153 158.478 53.5642 158.437 53.2957 158.598C53.0438 158.748 52.9627 159.094 53.081 159.355C53.0862 159.366 53.0937 159.377 53.0997 159.388C53.1305 159.464 53.1763 159.534 53.2349 159.591C53.4715 159.82 53.883 159.774 54.0966 159.54C54.2934 159.324 54.3069 158.948 54.1188 158.722Z" fill="#E8A73F"/>
<path d="M59.4353 158.103C59.2318 157.859 58.8807 157.818 58.6123 157.978C58.3603 158.129 58.2792 158.474 58.3975 158.735C58.4028 158.747 58.4103 158.757 58.4163 158.769C58.4471 158.845 58.4929 158.914 58.5515 158.971C58.788 159.201 59.1995 159.155 59.4132 158.92C59.6099 158.704 59.6234 158.328 59.4353 158.103Z" fill="#E8A73F"/>
<path d="M57.3455 158.716C57.2385 158.697 57.1536 158.769 57.127 158.867C57.0673 159.086 56.9633 159.36 56.6839 159.268C56.4012 159.174 56.3017 158.838 56.2161 158.586C56.1864 158.499 56.0865 158.449 55.9991 158.47C55.9014 158.494 55.8564 158.572 55.853 158.668C55.8455 158.892 55.8391 159.165 55.6653 159.331C55.5579 159.434 55.3581 159.451 55.3138 159.281C55.2883 159.183 55.1606 159.138 55.0724 159.171C54.9695 159.209 54.9361 159.314 54.962 159.412C55.0589 159.784 55.5207 159.87 55.8151 159.689C55.9758 159.589 56.0704 159.444 56.1293 159.281C56.2566 159.463 56.4263 159.605 56.6682 159.651C56.8784 159.69 57.0872 159.628 57.2377 159.477C57.3823 159.331 57.4443 159.128 57.4968 158.935C57.5227 158.837 57.439 158.734 57.3455 158.716Z" fill="black"/>
<path d="M25.6518 142.372C25.9844 142.104 26.1004 141.695 25.9108 141.461C25.7212 141.226 25.2978 141.254 24.9652 141.522C24.6326 141.791 24.5166 142.199 24.7062 142.434C24.8958 142.668 25.3192 142.641 25.6518 142.372Z" fill="white"/>
<path d="M27.5483 144.165C27.8809 143.896 27.9969 143.488 27.8072 143.253C27.6176 143.018 27.1943 143.046 26.8617 143.315C26.529 143.583 26.4131 143.992 26.6027 144.226C26.7923 144.461 27.2157 144.433 27.5483 144.165Z" fill="white"/>
<path d="M25.6828 143.917C25.7136 143.846 25.7331 143.769 25.7268 143.692C25.7204 143.616 25.6975 143.538 25.649 143.478C25.61 143.429 25.5773 143.399 25.5248 143.365C25.5225 143.363 25.5191 143.363 25.5169 143.361C25.5097 143.356 25.5049 143.349 25.497 143.345C25.4365 143.315 25.3701 143.303 25.304 143.304C25.2998 143.304 25.2953 143.303 25.2912 143.303C25.2901 143.303 25.2893 143.303 25.2882 143.303C25.2105 143.307 25.1331 143.33 25.0663 143.372C24.9394 143.453 24.8466 143.602 24.8628 143.757C24.8789 143.91 24.9702 144.046 25.1076 144.118C25.2401 144.187 25.4144 144.186 25.536 144.093C25.5976 144.046 25.6513 143.989 25.6828 143.917Z" fill="black"/>
<path d="M36.0461 139.811C36.0427 139.717 35.9526 139.617 35.8512 139.631C34.9678 139.745 34.0967 139.938 33.2492 140.213C33.019 140.288 33.1279 140.647 33.3581 140.573C34.1748 140.308 35.0136 140.116 35.8651 140.006C35.9661 139.993 36.0502 139.919 36.0461 139.811Z" fill="black"/>
<path d="M32.5038 140.462C31.7967 140.733 31.0897 141.005 30.3823 141.277C30.1574 141.363 30.2656 141.723 30.4912 141.636C31.1982 141.364 31.9053 141.093 32.6127 140.821C32.8372 140.735 32.7294 140.375 32.5038 140.462Z" fill="black"/>
<path d="M34.2379 140.937C34.2342 140.842 34.1444 140.744 34.0434 140.756C33.511 140.821 33.0004 140.978 32.5235 141.224C32.4334 141.27 32.4124 141.401 32.4627 141.482C32.5198 141.574 32.6309 141.589 32.721 141.543C33.1348 141.329 33.5936 141.188 34.0573 141.132C34.158 141.12 34.2421 141.044 34.2379 140.937Z" fill="black"/>
<path d="M28.4819 137.411C28.7162 136.555 28.9501 135.698 29.1844 134.842C29.2483 134.609 28.8814 134.527 28.818 134.76C28.5837 135.617 28.3498 136.473 28.1155 137.33C28.0516 137.563 28.4181 137.644 28.4819 137.411Z" fill="black"/>
<path d="M27.585 139.534C27.7506 139.173 27.9162 138.811 28.0814 138.45C28.1223 138.361 28.0964 138.241 28.001 138.197C27.9124 138.156 27.7915 138.182 27.7479 138.278C27.5824 138.639 27.4168 139 27.2516 139.362C27.2106 139.451 27.2366 139.571 27.3319 139.615C27.4202 139.656 27.5411 139.63 27.585 139.534Z" fill="black"/>
<path d="M27.4668 138.198L27.873 137.092C27.9068 137 27.8929 136.885 27.7927 136.839C27.7101 136.8 27.5757 136.82 27.5396 136.919L27.1334 138.025C27.0996 138.117 27.1135 138.232 27.2137 138.278C27.2959 138.317 27.4304 138.297 27.4668 138.198Z" fill="black"/>
<path d="M23.753 142.633C23.7973 142.318 23.5919 142.03 23.293 141.939C23.0122 141.854 22.702 142.026 22.5883 142.288C22.583 142.3 22.5804 142.312 22.5759 142.324C22.5406 142.398 22.5196 142.479 22.5166 142.561C22.5049 142.89 22.8158 143.164 23.1327 143.165C23.4237 143.166 23.7121 142.924 23.753 142.633Z" fill="#E8A73F"/>
<path d="M27.7812 146.158C27.8256 145.843 27.6202 145.555 27.3213 145.464C27.0404 145.378 26.7303 145.55 26.6165 145.813C26.6113 145.825 26.6086 145.837 26.6041 145.849C26.5688 145.923 26.5478 146.004 26.5448 146.085C26.5332 146.415 26.8441 146.689 27.161 146.69C27.4523 146.691 27.7403 146.448 27.7812 146.158Z" fill="#E8A73F"/>
<path d="M25.9227 145.02C25.8653 144.928 25.7549 144.913 25.6644 144.96C25.4624 145.062 25.1887 145.169 25.07 144.9C24.9499 144.628 25.1324 144.328 25.2615 144.096C25.3066 144.015 25.2762 143.908 25.2018 143.857C25.1188 143.8 25.0306 143.819 24.957 143.881C24.7862 144.026 24.5793 144.205 24.3394 144.187C24.191 144.177 24.0446 144.04 24.1407 143.893C24.1963 143.808 24.1441 143.683 24.0604 143.64C23.9628 143.589 23.8629 143.635 23.8073 143.72C23.597 144.042 23.843 144.441 24.1753 144.538C24.3566 144.591 24.5278 144.563 24.6885 144.497C24.6394 144.714 24.6476 144.935 24.776 145.145C24.8875 145.327 25.0738 145.44 25.287 145.45C25.4917 145.46 25.6843 145.369 25.8623 145.279C25.9524 145.233 25.973 145.102 25.9227 145.02Z" fill="black"/>
<path d="M107.215 87.1338H19.2511V91.662H107.215V87.1338Z" fill="#111111"/>
<path d="M58.8982 89.7998H20.9044C20.6629 89.7998 20.6971 90.1738 20.937 90.1738H58.9309C59.1727 90.1738 59.1385 89.7998 58.8982 89.7998Z" fill="black"/>
<path d="M95.0139 90.0088H61.6124C61.371 90.0088 61.4052 90.3828 61.6451 90.3828H95.0466C95.2884 90.3828 95.2542 90.0088 95.0139 90.0088Z" fill="black"/>
<path d="M107.215 91.6621H19.2511V92.701H107.215V91.6621Z" fill="black"/>
<path d="M19.9749 92.7012L23.4173 159.779H27.0432V92.7012H19.9749Z" fill="black"/>
<path d="M103.668 92.7012L100.225 159.779H96.5996V92.7012H103.668Z" fill="black"/>
<path d="M34.3841 87.1337L30.2587 65.8721H60.3169L65.4369 85.2345H79.6084L79.2649 87.1337H34.3841Z" fill="#AF6127"/>
<path d="M30.2587 65.8721L65.4369 85.2345L60.3169 65.8721H30.2587Z" fill="#E8A73F"/>
<path d="M79.6081 85.2344H33.8262L34.3838 87.1335H79.2646L79.6081 85.2344Z" fill="#AF6127"/>
<path d="M33.5184 73.7659C33.4744 73.5304 33.0997 73.5609 33.1444 73.7985C33.5138 75.7705 33.8829 77.7425 34.252 79.7145C34.296 79.9499 34.6707 79.9195 34.626 79.6818C34.2569 77.7095 33.8874 75.7379 33.5184 73.7659Z" fill="black"/>
<path d="M34.9446 81.831C34.904 81.5945 34.5293 81.6253 34.5706 81.8637C34.7065 82.6529 34.8425 83.4422 34.9788 84.2314C35.0197 84.468 35.394 84.4372 35.3527 84.1988C35.2168 83.4095 35.0809 82.6203 34.9446 81.831Z" fill="black"/>
<path d="M35.881 79.9457C35.8607 79.8462 35.7867 79.7655 35.6775 79.7752C35.5855 79.7831 35.4864 79.8785 35.5066 79.9787C35.6489 80.6741 35.7909 81.3691 35.9332 82.0645C35.9534 82.164 36.0274 82.2447 36.1367 82.2353C36.2287 82.2274 36.3278 82.1321 36.3075 82.0318C36.1652 81.3361 36.0233 80.6407 35.881 79.9457Z" fill="black"/>
<path d="M63.2608 80.7372C62.5887 78.0233 61.9162 75.3093 61.2441 72.5954C61.1863 72.3615 60.8344 72.4936 60.8923 72.7264C61.5644 75.4404 62.2368 78.1543 62.9089 80.8682C62.9668 81.1022 63.3182 80.9696 63.2608 80.7372Z" fill="black"/>
<path d="M64.0313 83.2409C63.9153 82.8699 63.7993 82.4986 63.6833 82.1276C63.654 82.0337 63.5316 81.9789 63.4419 82.0172C63.3442 82.0585 63.2999 82.158 63.3315 82.2586C63.4475 82.6296 63.5635 83.001 63.6795 83.3719C63.7088 83.4658 63.8312 83.5206 63.921 83.4823C64.0186 83.441 64.0625 83.3415 64.0313 83.2409Z" fill="black"/>
<path d="M71.8092 72.7918C71.7866 71.7401 72.3453 70.7928 72.6052 69.7997C72.8368 68.9143 72.8248 67.9681 72.2391 67.2209C71.7487 66.5961 71.0297 66.2008 70.5389 65.5786C69.8912 64.7571 70.0853 63.7185 70.035 62.7471C69.9457 61.0327 68.8846 59.2222 67.0196 59.0803C66.2345 59.0206 65.4362 59.2939 64.956 59.9405C64.528 60.5172 64.3519 61.3203 64.6278 62.0007C64.944 62.7806 65.7911 63.0468 66.2461 63.7057C66.8566 64.5896 66.1395 65.6965 65.8121 66.5417C65.5068 67.3302 65.4163 68.187 65.963 68.8899C66.3809 69.4276 66.9948 69.761 67.552 70.132C68.128 70.5157 68.719 70.9753 68.8564 71.6951C69.0062 72.4794 68.6683 73.2848 68.4472 74.0226C68.2249 74.7634 68.0473 75.5779 68.3597 76.3213C68.7201 77.1781 69.548 77.676 70.0583 78.4251C70.1601 78.5745 70.2479 78.7322 70.3114 78.8967C70.2205 78.9076 70.1383 78.974 70.1514 79.0915C70.177 79.3161 70.2663 79.5128 70.3921 79.6818C70.3869 79.7092 70.3842 79.7362 70.3771 79.7636C70.3309 79.9416 70.5322 80.0216 70.6587 79.9488C70.9797 80.1917 71.4055 80.304 71.8148 80.2161C72.6641 80.0344 73.2123 79.22 73.3309 78.3999C73.6272 76.3513 71.852 74.7758 71.8092 72.7918ZM72.9551 78.3703C72.8308 79.1482 72.1523 80.0775 71.2535 79.8406C71.0781 79.7944 70.9163 79.7021 70.7886 79.5774C70.9846 77.9039 68.6525 77.1665 68.5669 75.5437C68.4896 74.0801 69.729 72.6507 69.0915 71.1923C68.5557 69.9668 67.0992 69.6904 66.3017 68.7131C65.036 67.1623 67.4563 65.4464 66.7091 63.7684C66.3869 63.0453 65.5992 62.7761 65.1482 62.1659C64.7146 61.5794 64.8257 60.7459 65.2432 60.1812C65.7344 59.5177 66.5901 59.3311 67.3662 59.5136C68.2189 59.7137 68.8861 60.3404 69.2559 61.1202C69.6524 61.9564 69.6663 62.8219 69.6667 63.7275C69.6671 64.1886 69.6904 64.6579 69.8439 65.0972C69.9667 65.4487 70.1788 65.7543 70.4319 66.0243C70.9429 66.5702 71.6229 66.9633 72.045 67.5915C72.5965 68.4127 72.3596 69.4464 72.0543 70.313C71.7442 71.1931 71.3668 72.0713 71.4464 73.0258C71.5245 73.9603 71.9571 74.8126 72.342 75.6515C72.7257 76.4891 73.1053 77.4308 72.9551 78.3703Z" fill="#AF6127"/>
<path d="M90.6756 64.4175C90.5855 66.554 88.3551 67.3951 86.7969 68.3375C85.8883 68.8857 85.1373 69.5653 84.7694 70.5828C84.4502 71.4689 84.3676 72.4189 84.0635 73.3088C83.7706 74.1649 83.2374 74.852 82.4452 75.295C81.713 75.7081 80.8982 75.9258 80.1172 76.2225C79.3062 76.5303 78.5252 76.9509 78.1047 77.7469C77.8606 78.2125 77.7217 78.7194 77.5152 79.2C77.32 79.6656 77.0496 80.0861 76.6816 80.4353C76.0696 81.0173 75.1084 81.5279 74.2336 81.3627C73.8581 81.2951 73.5051 81.0586 73.4375 80.6606C73.4225 80.578 73.4263 80.4954 73.4375 80.4203C73.3887 80.3414 73.385 80.2363 73.4751 80.1649C73.4939 80.1499 73.5089 80.1274 73.5277 80.1124C73.6365 79.8833 73.8243 79.6843 74.0083 79.5116C74.0984 79.3426 74.181 79.1699 74.2373 78.9859C74.8831 76.9509 73.5464 74.6079 74.9056 72.7381C75.5064 71.9083 76.4977 71.7468 77.3913 71.3939C77.8118 71.2286 78.1873 70.9996 78.4652 70.6354C78.7167 70.3012 78.8594 69.8957 78.9683 69.4977C79.1861 68.6942 79.2687 67.8419 79.6216 67.0759C80.0008 66.2536 80.703 65.7655 81.5666 65.544C82.4865 65.3112 83.4815 65.3074 84.3413 64.8719C85.2988 64.3837 85.9634 63.5051 86.8382 62.9081C87.6042 62.39 88.633 62.0295 89.5341 62.4012C90.3414 62.7317 90.7131 63.5877 90.6756 64.4175Z" fill="#AF6127"/>
<path d="M78.9489 67.5228C78.8888 68.0034 79.0202 68.4803 79.1591 68.9346C79.4295 69.8395 79.7261 70.7519 79.3018 71.6643C78.9001 72.5166 78.1153 73.0873 77.4019 73.6656C77.0114 73.9772 76.6284 74.3076 76.3356 74.7206C76.0239 75.1562 75.8625 75.6706 75.7648 76.1925C75.7273 76.399 75.701 76.613 75.6747 76.8233C75.6747 77.0936 75.6635 77.364 75.6334 77.6343C75.5245 78.6068 75.2242 79.6544 74.6422 80.4541C74.1541 81.1187 73.2942 81.6519 72.4907 81.175C71.7623 80.7395 71.4694 79.7482 71.2366 78.986C71.0864 78.4829 70.9775 77.946 71.0639 77.4203C71.1352 76.9847 71.3493 76.598 71.6234 76.2601C72.2166 75.5354 72.9938 75.006 73.1591 74.0185C73.3393 72.9446 72.9187 71.8896 72.6672 70.8645C72.4231 69.877 72.333 68.8745 72.7911 67.9358C73.1666 67.1623 73.7673 66.5353 74.1879 65.7881C74.3869 65.4276 74.5408 65.0409 74.5708 64.6241C74.6084 64.0797 74.4282 63.5503 74.2629 63.0396C74.0039 62.2324 73.7786 61.365 74.1466 60.5502C74.5183 59.7279 75.3894 59.5327 76.1854 59.8519C76.6848 60.0546 77.1241 60.3888 77.5634 60.6929L79.0465 61.718C79.7636 62.2136 80.7324 62.7393 80.8901 63.6854C81.0628 64.718 80.2142 65.5178 79.6135 66.2312C79.2981 66.6104 79.0127 67.0234 78.9489 67.5228Z" fill="#E8A73F"/>
<path d="M78.7948 64.4003C78.9889 64.2568 78.7726 63.9497 78.5778 64.0939C78.0206 64.5061 77.463 64.918 76.9058 65.3299C76.8254 64.401 76.9317 63.4736 77.7983 62.9712C78.0071 62.8503 77.7893 62.5443 77.5813 62.6648C76.7057 63.1724 76.4864 64.1622 76.5149 65.1091C76.198 64.6661 75.8815 64.2234 75.5646 63.7803C75.4242 63.584 75.117 63.8002 75.2582 63.9974C75.6998 64.6146 76.1409 65.2319 76.5825 65.8492C76.6858 66.5476 76.854 67.2527 76.7939 67.9635C76.7417 68.5812 76.4905 69.0798 76.0839 69.5386C76.0294 69.6002 75.9716 69.6591 75.9149 69.7188C75.5935 69.0779 75.2717 68.437 74.9503 67.796C74.8433 67.5828 74.4896 67.7108 74.5985 67.9271C74.9458 68.6195 75.2931 69.3118 75.6404 70.0038C75.4091 70.2385 75.1797 70.4747 74.9882 70.7431C74.6683 71.1915 74.508 71.6908 74.535 72.2447C74.5606 72.7748 74.7239 73.2847 74.8058 73.8066C74.5219 73.5712 74.2377 73.3358 73.9538 73.1004C73.878 73.0377 73.7514 73.0429 73.6895 73.1236C73.6279 73.204 73.6317 73.3211 73.7128 73.388C74.0924 73.7026 74.4716 74.0173 74.8512 74.3319C74.8392 74.9485 74.5696 75.5098 74.2373 76.0246C74.0529 76.3103 73.8415 76.6066 73.6388 76.9126C73.5303 76.376 73.4214 75.8395 73.3125 75.3025C73.2922 75.203 73.2183 75.1223 73.109 75.1317C73.0166 75.1399 72.9182 75.2349 72.9382 75.3352C73.0756 76.0137 73.213 76.6922 73.3504 77.371C72.9074 78.1261 72.6134 78.9394 72.9573 79.8124C73.0455 80.0365 73.3981 79.907 73.3091 79.6813C72.812 78.4205 73.887 77.2449 74.5242 76.266C74.8429 75.776 75.1302 75.244 75.2071 74.6556C75.227 74.5046 75.2312 74.3548 75.2248 74.2058C75.2383 74.2009 75.2526 74.1971 75.2653 74.1892C75.856 73.8224 76.4466 73.4559 77.0372 73.0891C77.1232 73.0358 77.1378 72.9066 77.0819 72.8274C77.0203 72.7403 76.9065 72.729 76.8202 72.7827C76.2746 73.1214 75.7291 73.4601 75.1835 73.7987C75.1358 73.4803 75.0588 73.1646 74.9961 72.848C74.8748 72.2364 74.8549 71.648 75.1966 71.1017C75.3941 70.7863 75.6566 70.5182 75.9194 70.2535C75.9296 70.2516 75.9393 70.2528 75.9498 70.2494C76.7263 70.0046 77.5032 69.7601 78.28 69.5153C78.5106 69.4429 78.3795 69.0907 78.149 69.1635C77.5779 69.3434 77.0064 69.5236 76.4353 69.7034C76.6985 69.3918 76.9212 69.0524 77.044 68.6548C77.2234 68.0735 77.2002 67.4499 77.1206 66.8536C77.0796 66.5468 77.0188 66.2018 76.9685 65.847C76.9771 65.8139 76.9715 65.7779 76.9565 65.7411C76.979 65.7354 77.0019 65.7261 77.0244 65.7095C77.6139 65.2732 78.2042 64.8369 78.7948 64.4003Z" fill="#AF6127"/>
<path d="M89.4868 63.8388C88.8324 63.3154 87.9305 63.5569 87.365 64.0897C86.7042 64.7129 86.4493 65.6208 85.8692 66.3038C84.888 67.4592 83.1383 67.2162 82.0127 68.1467C81.401 68.6524 81.2001 69.385 81.1588 70.1509C81.1149 70.9683 81.2118 71.88 80.7372 72.5975C80.332 73.2099 79.6494 73.5704 79.0329 73.9316C78.3935 74.3063 77.7548 74.7092 77.3342 75.3362C76.7819 76.16 76.6284 77.1554 76.3862 78.0975C76.1579 78.9859 75.7971 79.9223 74.977 80.4202C74.7705 80.5456 74.9879 80.8516 75.194 80.7266C76.6708 79.8303 76.6907 77.9311 77.1991 76.4706C77.4754 75.6768 77.9358 75.0813 78.633 74.6168C79.2278 74.2203 79.8886 73.9192 80.4421 73.4619C81.0094 72.9925 81.3556 72.3921 81.4554 71.6592C81.5655 70.8519 81.4112 69.9801 81.7029 69.2036C82.2338 67.7896 84.0872 67.835 85.244 67.2497C85.6172 67.0608 85.9427 66.8122 86.2063 66.4856C86.5086 66.1112 86.7245 65.6779 86.9622 65.2623C87.2002 64.8459 87.4769 64.4163 87.887 64.1494C88.2887 63.8877 88.8519 63.8107 89.2458 64.1257C89.4343 64.2774 89.6761 63.9902 89.4868 63.8388Z" fill="#E8A73F"/>
<path d="M78.0538 87.1339H70.7715L69.1134 79.0747H79.6087L78.0538 87.1339Z" fill="#111111"/>
<path d="M79.6349 78.9448H68.9883C68.7469 78.9448 68.781 79.3188 69.0209 79.3188H79.6675C79.909 79.3188 79.8752 78.9448 79.6349 78.9448Z" fill="black"/>
<path d="M62.2705 43.2352C62.2705 50.9399 56.92 57.3943 49.7297 59.0877L45.9787 64.1867L41.3829 58.8662V58.8624C34.6244 56.8837 29.6869 50.6358 29.6869 43.2352C29.6869 34.2351 36.9824 26.9434 45.9787 26.9434C54.9751 26.9434 62.2705 34.2351 62.2705 43.2352Z" fill="white"/>
<path d="M58.3452 36.6665H33.612V51.2285H58.3452V36.6665Z" fill="white"/>
<path d="M58.7214 51.604H33.2372V36.291H58.7214V51.604ZM33.9882 50.853H57.9705V37.042H33.9882V50.853Z" fill="#111111"/>
<path d="M52.1687 47.9746L51.9821 50.1148L53.4487 49.3631L54.824 50.1148L54.3881 47.9746H52.1687Z" fill="#111111"/>
<path d="M53.4501 48.7451C51.8787 48.7451 50.6002 47.4666 50.6002 45.8953C50.6002 44.3239 51.8787 43.0454 53.4501 43.0454C55.0214 43.0454 56.2999 44.3239 56.2999 45.8953C56.3003 47.4666 55.0218 48.7451 53.4501 48.7451ZM53.4501 43.8564C52.3259 43.8564 51.4116 44.7711 51.4116 45.8949C51.4116 47.0191 52.3263 47.9333 53.4501 47.9333C54.5742 47.9333 55.4885 47.0187 55.4885 45.8949C55.4889 44.7711 54.5742 43.8564 53.4501 43.8564Z" fill="#111111"/>
<path d="M53.4491 48.3398C54.7991 48.3398 55.8934 47.2455 55.8934 45.8955C55.8934 44.5455 54.7991 43.4512 53.4491 43.4512C52.0991 43.4512 51.0048 44.5455 51.0048 45.8955C51.0048 47.2455 52.0991 48.3398 53.4491 48.3398Z" fill="#E8A73F"/>
<path d="M53.0656 47.6474C54.0374 47.6474 54.8251 46.8596 54.8251 45.8879C54.8251 44.9162 54.0374 44.1284 53.0656 44.1284C52.0939 44.1284 51.3062 44.9162 51.3062 45.8879C51.3062 46.8596 52.0939 47.6474 53.0656 47.6474Z" fill="#AF6127"/>
<path d="M56.2996 38.355H36.3345V39.4683H56.2996V38.355Z" fill="#03726C"/>
<path d="M49.0338 41.208H36.3345V42.0081H49.0338V41.208Z" fill="#03726C"/>
<path d="M49.0338 43.4561H36.3345V44.2562H49.0338V43.4561Z" fill="#03726C"/>
<path d="M49.0338 45.2905H36.3345V46.0907H49.0338V45.2905Z" fill="#03726C"/>
<path d="M49.0338 47.5391H36.3345V48.3392H49.0338V47.5391Z" fill="#03726C"/>
<path d="M45.8879 29.7282C45.8793 29.245 45.131 29.3122 45.14 29.7936C45.1704 31.4637 45.2008 33.1338 45.2312 34.8039C45.2398 35.2871 45.9882 35.2199 45.9792 34.7385C45.9487 33.0684 45.9183 31.3983 45.8879 29.7282Z" fill="#111111"/>
<path d="M43.0355 34.5262L40.9569 32.0657C40.8262 31.911 40.6088 31.852 40.4334 31.9763C40.2787 32.086 40.2127 32.3443 40.3441 32.4997L42.4227 34.9602C42.5534 35.1149 42.7708 35.1739 42.9461 35.0496C43.1008 34.9399 43.1673 34.682 43.0355 34.5262Z" fill="#111111"/>
<path d="M51.0381 31.927C50.8448 31.8353 50.6364 31.9281 50.538 32.1061C50.0784 32.937 49.6192 33.7683 49.1596 34.5992C49.0616 34.7768 49.1634 35.0164 49.3387 35.0993C49.5321 35.191 49.7405 35.0982 49.8389 34.9202C50.2985 34.0893 50.7577 33.258 51.2172 32.4271C51.3152 32.2491 51.2131 32.0096 51.0381 31.927Z" fill="#111111"/>
</svg>
