<svg width="46" height="47" viewBox="0 0 46 47" fill="none" xmlns="http://www.w3.org/2000/svg">
<g opacity="0.3">
<path fill-rule="evenodd" clip-rule="evenodd" d="M30.3972 29.351C21.9895 29.351 15.1986 22.385 15.1986 13.822C15.1986 22.385 8.38078 29.351 0 29.351C8.38078 29.351 15.1986 36.2895 15.1986 44.8525C15.1986 36.2895 21.9895 29.351 30.3972 29.351Z" fill="#03726C"/>
<path fill-rule="evenodd" clip-rule="evenodd" d="M46 37.3632C41.3919 37.3632 37.6731 33.5361 37.6731 28.8553C37.6731 33.5361 33.9273 37.3632 29.3462 37.3632C33.9273 37.3632 37.6731 41.1629 37.6731 45.8711C37.6731 41.1629 41.3919 37.3632 46 37.3632ZM41.2033 11.4816C35.5981 11.4816 31.0709 6.85591 31.0709 1.12891C31.0709 6.85591 26.5436 11.4816 20.9385 11.4816C26.5436 11.4816 31.0709 16.1072 31.0709 21.8342C31.0709 16.1072 35.5981 11.4816 41.2033 11.4816Z" fill="#03726C"/>
</g>
</svg>
