<svg width="16" height="16" viewBox="0 0 16 16" fill="none" xmlns="http://www.w3.org/2000/svg">
<path fill-rule="evenodd" clip-rule="evenodd" d="M10.2538 9.52011C7.41767 9.52011 5.12692 7.17027 5.12692 4.28174C5.12692 7.17027 2.82708 9.52011 0 9.52011C2.82708 9.52011 5.12692 11.8607 5.12692 14.7492C5.12692 11.8607 7.41767 9.52011 10.2538 9.52011Z" fill="#03726C"/>
<path fill-rule="evenodd" clip-rule="evenodd" d="M15.5171 12.2231C13.9626 12.2231 12.7082 10.9321 12.7082 9.35315C12.7082 10.9321 11.4446 12.2231 9.89928 12.2231C11.4446 12.2231 12.7082 13.5048 12.7082 15.0931C12.7082 13.5048 13.9626 12.2231 15.5171 12.2231ZM13.899 3.49249C12.0082 3.49249 10.4811 1.93213 10.4811 0.000244141C10.4811 1.93213 8.95389 3.49249 7.06311 3.49249C8.95389 3.49249 10.4811 5.05286 10.4811 6.98474C10.4811 5.05286 12.0082 3.49249 13.899 3.49249Z" fill="#03726C"/>
</svg>
