<svg width="20" height="20" viewBox="0 0 20 20" fill="none" xmlns="http://www.w3.org/2000/svg">
<path d="M16.3969 10.7544L10.1029 17.0489C10.0053 17.1466 9.87246 17.2018 9.73418 17.2018H2.99332C2.52875 17.2018 2.2959 16.6402 2.62457 16.3121C4.54949 14.3853 8.93367 9.99935 8.93367 9.99935C8.93367 9.99935 4.5489 5.61454 2.62457 3.68778C2.29586 3.3597 2.52875 2.7981 2.99332 2.7981H9.73422C9.8725 2.7981 10.0053 2.85329 10.103 2.95091L12.9595 5.80739L16.3969 9.24427C16.8135 9.66153 16.8135 10.3371 16.3969 10.7544Z" fill="#90CBD3"/>
<path d="M12.4548 10.7544L6.1609 17.0489C6.06324 17.1466 5.93043 17.2018 5.79215 17.2018H2.99332C2.52875 17.2018 2.2959 16.6402 2.62457 16.3121C4.54949 14.3853 8.93367 9.99935 8.93367 9.99935C8.93367 9.99935 4.5489 5.61454 2.62457 3.68778C2.29586 3.3597 2.52875 2.7981 2.99332 2.7981H5.79219C5.93047 2.7981 6.06328 2.85329 6.16094 2.95091L12.4549 9.24423C12.8715 9.66153 12.8715 10.3371 12.4548 10.7544Z" fill="#0B847E"/>
<path d="M12.4549 10.7543L6.16098 17.0489C6.06332 17.1465 5.93051 17.2017 5.79223 17.2017H4.15234C4.29063 17.2017 4.42344 17.1465 4.52109 17.0489L10.997 10.5724C11.4136 10.1551 11.4136 9.84341 10.997 9.42618L4.52109 2.95091C4.42344 2.85325 4.29063 2.7981 4.15234 2.7981H5.79223C5.93051 2.7981 6.06332 2.85329 6.16098 2.95091L12.4549 9.24423C12.8716 9.66149 12.8716 10.3371 12.4549 10.7543Z" fill="#03726C"/>
<path d="M18.8885 19.0852C18.8108 19.0852 18.7363 19.1161 18.6813 19.171C18.6264 19.226 18.5955 19.3005 18.5955 19.3782V19.707C18.5955 19.7847 18.6264 19.8592 18.6813 19.9141C18.7363 19.9691 18.8108 19.9999 18.8885 19.9999C18.9662 19.9999 19.0407 19.9691 19.0956 19.9141C19.1506 19.8592 19.1814 19.7847 19.1814 19.707V19.3782C19.1814 19.3005 19.1506 19.226 19.0956 19.171C19.0407 19.1161 18.9662 19.0852 18.8885 19.0852ZM17.1591 19.0852C17.0814 19.0852 17.0069 19.1161 16.9519 19.171C16.897 19.226 16.8661 19.3005 16.8661 19.3782V19.707C16.8661 19.7847 16.897 19.8592 16.9519 19.9141C17.0069 19.9691 17.0814 19.9999 17.1591 19.9999C17.2368 19.9999 17.3113 19.9691 17.3663 19.9141C17.4212 19.8592 17.4521 19.7847 17.4521 19.707V19.3782C17.4521 19.3005 17.4212 19.226 17.3663 19.171C17.3113 19.1161 17.2368 19.0852 17.1591 19.0852ZM15.4297 19.0852C15.352 19.0852 15.2775 19.1161 15.2225 19.171C15.1676 19.226 15.1367 19.3005 15.1367 19.3782V19.707C15.1367 19.7847 15.1676 19.8592 15.2225 19.9141C15.2775 19.9691 15.352 19.9999 15.4297 19.9999C15.5074 19.9999 15.5819 19.9691 15.6368 19.9141C15.6918 19.8592 15.7227 19.7847 15.7227 19.707V19.3782C15.7227 19.3005 15.6918 19.226 15.6368 19.171C15.5819 19.1161 15.5074 19.0852 15.4297 19.0852Z" fill="#03726C"/>
<path d="M3.75176 0.914727C3.82946 0.914727 3.90398 0.88386 3.95892 0.828918C4.01386 0.773976 4.04473 0.699458 4.04473 0.621758V0.292969C4.04473 0.215269 4.01386 0.140751 3.95892 0.0858086C3.90398 0.0308663 3.82946 0 3.75176 0C3.67406 0 3.59954 0.0308663 3.5446 0.0858086C3.48966 0.140751 3.45879 0.215269 3.45879 0.292969V0.621758C3.45879 0.699458 3.48966 0.773976 3.5446 0.828918C3.59954 0.88386 3.67406 0.914727 3.75176 0.914727ZM2.31531 0.621758V0.292969C2.31531 0.215269 2.28445 0.140751 2.2295 0.0858086C2.17456 0.0308663 2.10004 0 2.02234 0C1.94464 0 1.87013 0.0308663 1.81518 0.0858086C1.76024 0.140751 1.72938 0.215269 1.72938 0.292969V0.621758C1.72938 0.699458 1.76024 0.773976 1.81518 0.828918C1.87013 0.88386 1.94464 0.914727 2.02234 0.914727C2.10004 0.914727 2.17456 0.88386 2.2295 0.828918C2.28445 0.773976 2.31531 0.699458 2.31531 0.621758ZM0.292969 0C0.215269 0 0.140751 0.0308663 0.0858086 0.0858086C0.0308663 0.140751 0 0.215269 0 0.292969V0.621758C1.15782e-09 0.699458 0.0308663 0.773976 0.0858086 0.828918C0.140751 0.88386 0.215269 0.914727 0.292969 0.914727C0.370669 0.914727 0.445187 0.88386 0.500129 0.828918C0.555071 0.773976 0.585938 0.699458 0.585938 0.621758V0.292969C0.585938 0.215269 0.555071 0.140751 0.500129 0.0858086C0.445187 0.0308663 0.370669 0 0.292969 0Z" fill="#03726C"/>
</svg>
