<svg width="563" height="1444" viewBox="0 0 563 1444" fill="none" xmlns="http://www.w3.org/2000/svg">
<g filter="url(#filter0_f_449_1152)">
<path d="M593.926 686.272C663.26 663.506 737.921 701.256 760.688 770.59C783.454 839.923 745.704 914.585 676.37 937.352C607.036 960.118 532.375 922.368 509.608 853.034C486.842 783.7 524.592 709.038 593.926 686.272Z" fill="#E5BF08"/>
<path d="M583.986 506.123C648.012 485.099 716.958 519.96 737.981 583.985C759.005 648.011 724.145 716.957 660.119 737.981C596.093 759.004 527.147 724.144 506.123 660.118C485.1 596.092 519.96 527.146 583.986 506.123Z" fill="#07A6FE"/>
<path d="M784.797 541.491C870.187 513.452 962.138 559.945 990.176 645.334C1018.21 730.723 971.722 822.674 886.333 850.713C800.944 878.751 708.993 832.259 680.954 746.87C652.916 661.48 699.408 569.529 784.797 541.491Z" fill="#08736D"/>
</g>
<defs>
<filter id="filter0_f_449_1152" x="0" y="0" width="1498.34" height="1443.98" filterUnits="userSpaceOnUse" color-interpolation-filters="sRGB">
<feFlood flood-opacity="0" result="BackgroundImageFix"/>
<feBlend mode="normal" in="SourceGraphic" in2="BackgroundImageFix" result="shape"/>
<feGaussianBlur stdDeviation="250" result="effect1_foregroundBlur_449_1152"/>
</filter>
</defs>
</svg>
