<svg width="544" height="451" viewBox="0 0 544 451" fill="none" xmlns="http://www.w3.org/2000/svg">
<path d="M372.754 333.85H231.12V259.527C231.12 220.543 262.812 188.71 301.937 188.71C340.921 188.71 372.754 220.403 372.754 259.527V333.85ZM254.819 310.291H349.195V259.527C349.195 233.444 328.02 212.269 301.937 212.269C275.854 212.269 254.679 233.444 254.679 259.527V310.291H254.819Z" fill="#007E77"/>
<path d="M331.312 331.747H271.013V398.637H331.312V331.747Z" fill="#1A171E"/>
<path d="M393.153 279.3H210.712C204.541 279.3 199.633 284.208 199.633 290.378V433.415C199.633 439.445 204.541 444.493 210.712 444.493H393.153C399.183 444.493 404.232 439.585 404.232 433.415V290.378C404.232 284.208 399.183 279.3 393.153 279.3ZM293.589 360.494V348.294C293.589 343.666 297.375 340.02 302.003 340.02C306.63 340.02 310.276 343.807 310.276 348.294V360.494C315.325 363.439 318.83 368.908 318.83 375.219C318.83 385.175 310.136 393.168 299.899 391.906C292.607 391.065 286.577 385.315 285.315 378.164C284.053 370.591 287.699 363.86 293.589 360.494Z" fill="#CAEEEC"/>
<path d="M404.232 290.378V433.415C404.232 439.445 399.323 444.493 393.153 444.493H210.712C204.541 444.493 199.633 439.585 199.633 433.415V426.263C242.965 426.824 307.612 425.001 342.53 410.837C392.592 390.504 392.592 306.084 390.769 279.3H393.153C399.183 279.3 404.232 284.208 404.232 290.378Z" fill="#007E77"/>
<path d="M89.1081 347.357H80.6343V419.04H89.1081V347.357Z" fill="#6C6B7D"/>
<path d="M83.673 418.15L83.2656 438.987L86.0133 439.041L86.4207 418.204L83.673 418.15Z" fill="#6C6B7D"/>
<path d="M84.7567 445.836C87.0334 445.836 88.8791 443.99 88.8791 441.714C88.8791 439.437 87.0334 437.591 84.7567 437.591C82.4799 437.591 80.6343 439.437 80.6343 441.714C80.6343 443.99 82.4799 445.836 84.7567 445.836Z" fill="#6C6B7D"/>
<path d="M106.056 441.713C106.056 444.004 104.224 445.836 101.933 445.836C99.6432 445.836 97.811 444.004 97.811 441.713C97.811 439.423 99.6432 437.591 101.933 437.591C103.995 437.591 106.056 439.423 106.056 441.713Z" fill="#6C6B7D"/>
<path d="M103.307 439.423H100.558V433.697L85.4429 418.582L87.2751 416.521L103.307 432.552V439.423Z" fill="#6C6B7D"/>
<path d="M63.9131 441.713C63.9131 444.004 65.7453 445.836 68.0355 445.836C70.3257 445.836 72.1579 444.004 72.1579 441.713C72.1579 439.423 70.3257 437.591 68.0355 437.591C65.9743 437.591 63.9131 439.423 63.9131 441.713Z" fill="#6C6B7D"/>
<path d="M69.4084 439.423H66.6602V432.552L82.6917 416.521L84.5238 418.582L69.4084 433.697V439.423Z" fill="#6C6B7D"/>
<path d="M121.171 242.006V349.188H43.075C33.6852 349.188 26.1274 341.631 26.1274 332.241V242.006C26.1274 225.288 39.6397 211.775 56.3583 211.775H90.7115C107.659 211.546 121.171 225.059 121.171 242.006Z" fill="#6C6B7D"/>
<path d="M79.7185 329.492V349.188H43.075C33.6852 349.188 26.1274 341.631 26.1274 332.241V329.492H79.7185Z" fill="#888892"/>
<path d="M144.988 329.492H55.2119V349.188H144.988V329.492Z" fill="#6C6B7D"/>
<path d="M109.947 331.553C139.72 336.363 164.683 334.989 165.599 328.347C166.744 321.706 143.613 312.316 113.84 307.506C84.0673 302.697 59.1039 304.071 58.1878 310.712C57.0427 317.354 80.4029 326.515 109.947 331.553Z" fill="#E6D5B9"/>
<path d="M160.559 326.515C181.4 316.667 189.187 408.276 184.607 428.201C180.026 448.125 167.659 414.001 161.704 381.709C155.521 349.417 152.314 330.408 160.559 326.515Z" fill="#E6D5B9"/>
<path d="M184.149 429.574C184.149 429.574 186.897 433.239 193.081 438.048C199.265 442.858 200.868 441.712 201.097 443.545C201.326 445.377 175.446 443.545 175.446 443.545L175.904 429.116C175.675 428.887 184.149 429.116 184.149 429.574Z" fill="#1A171E"/>
<path d="M136.518 321.706C165.603 330.867 190.796 333.157 192.857 326.745C194.918 320.332 172.932 307.736 143.846 298.346C114.76 289.185 89.5681 286.895 87.5069 293.307C85.4457 299.72 107.432 312.316 136.518 321.706Z" fill="#E6D5B9"/>
<path d="M185.525 323.309C210.03 330.409 147.507 405.986 129.185 419.04C110.864 432.094 127.811 400.718 146.362 369.571C164.913 338.424 175.906 320.561 185.525 323.309Z" fill="#E6D5B9"/>
<path d="M128.041 419.956C128.041 419.956 127.812 424.994 129.415 433.468C131.018 441.942 133.079 442.171 131.934 443.774C130.789 445.377 110.635 424.994 110.635 424.994L121.628 413.543C121.628 413.314 128.27 419.498 128.041 419.956Z" fill="#1A171E"/>
<path d="M74.6776 294.452C76.5098 307.278 96.4346 316.668 116.36 323.538C136.284 330.409 155.98 334.073 156.667 335.447C158.041 337.967 126.665 396.825 123.459 403.009C123.23 403.238 123.23 403.467 123.23 403.467L136.513 415.376C136.513 415.376 196.059 349.189 194.227 326.515C192.395 305.216 114.298 288.269 114.298 288.269C114.298 288.269 71.2423 268.802 74.6776 294.452Z" fill="#1A171E"/>
<path d="M156.673 335.447C158.047 337.966 126.671 396.825 123.465 403.008C143.161 383.083 184.843 338.424 174.537 324.454C161.025 306.132 107.663 298.574 107.663 298.574L116.594 323.538C136.29 330.179 155.986 334.073 156.673 335.447Z" fill="#CAEEEC"/>
<path d="M63.6878 334.073C82.6966 340.256 145.678 338.882 147.739 341.63C150.029 344.379 171.786 423.849 171.786 423.849H188.734C188.505 423.849 183.924 346.211 172.015 326.744C160.106 307.048 90.4834 294.681 90.4834 294.681L52.4658 293.078C52.4658 293.078 52.2367 293.765 52.2367 294.681C50.8626 301.552 47.1983 328.576 63.6878 334.073Z" fill="#1A171E"/>
<path d="M63.6878 334.073C82.6966 340.256 145.678 338.882 147.739 341.631C150.029 344.379 171.786 423.849 171.786 423.849H172.244C172.473 403.237 158.503 343.234 151.632 335.447C143.845 326.744 102.163 327.889 80.6354 326.515C62.3137 325.37 54.2979 302.239 52.2367 294.91C50.8626 301.552 47.1983 328.576 63.6878 334.073Z" fill="#CAEEEC"/>
<path d="M103.309 218.188C106.974 212.462 109.951 205.821 113.157 199.866C115.447 195.973 117.509 191.621 117.28 187.27C117.051 183.835 114.989 180.628 114.302 177.422C113.615 174.674 113.615 171.926 113.844 169.177C113.844 165.284 114.073 161.391 114.073 157.726C114.073 155.436 114.76 152.917 113.386 151.085C111.783 148.794 108.348 146.962 106.058 145.13C101.477 141.237 96.8966 137.343 92.3162 133.679L63.2305 154.291L65.9787 206.508C73.0784 209.943 80.1781 213.378 87.2777 216.814C90.026 218.188 92.7743 219.333 95.2935 220.707C97.8127 221.852 99.6449 223.455 101.477 220.936C102.164 219.562 102.622 218.875 103.309 218.188Z" fill="#1A171E"/>
<path d="M91.1711 209.027C92.7743 215.211 94.8355 223.685 97.1257 231.93C99.1869 239.029 101.706 246.129 104.225 250.938C106.745 255.748 109.264 258.496 112.012 257.809C112.928 257.58 113.844 256.893 114.302 255.977C115.447 254.145 115.905 251.396 115.676 248.19C115.676 245.442 114.989 242.235 114.302 238.571C113.615 234.678 112.47 230.784 111.325 226.662C108.119 215.44 103.767 203.989 101.706 197.576C100.561 194.37 95.7516 195.973 92.3162 195.744C84.3005 195.057 88.6519 198.263 91.1711 209.027Z" fill="#E6D5B9"/>
<path d="M105.142 257.122C105.829 259.412 134.457 269.489 154.611 274.298C165.604 277.047 174.307 278.192 174.078 275.673C173.849 269.947 130.334 253.457 115.677 248.19C115.219 247.961 114.761 247.732 114.303 247.732C112.471 247.045 110.41 247.045 108.577 247.503C107.661 247.732 106.745 248.19 105.829 248.877C104.913 249.564 104.455 250.48 104.226 251.167C103.539 252.999 104.684 255.29 105.142 257.122Z" fill="#E6D5B9"/>
<path d="M104.226 250.938C103.539 252.999 104.455 255.061 105.142 257.122C105.829 259.412 134.457 269.489 154.611 274.298C141.786 269.26 123.235 261.473 114.303 255.977C111.555 254.374 109.723 252.999 109.265 251.854C108.578 250.251 108.349 248.877 108.578 247.274C109.265 243.839 112.242 240.403 114.303 238.571C113.616 234.678 112.471 230.784 111.326 226.662L101.02 225.746L97.1265 231.929C99.4167 239.258 101.707 246.129 104.226 250.938Z" fill="#DDCAAF"/>
<path d="M165.607 272.466C167.21 267.886 174.767 271.55 177.287 272.924C181.409 275.214 184.386 280.711 183.699 282.314C182.783 283.917 173.851 278.421 173.393 278.65C172.935 278.879 177.058 282.085 176.142 283.459C175.226 284.833 169.271 281.398 167.439 279.108C165.378 277.047 164.691 275.444 165.607 272.466Z" fill="#E6D5B9"/>
<path d="M94.6031 236.281L97.1223 236.052L110.177 234.678L115.215 234.22C115.215 234.22 113.154 193.912 99.6415 195.973C87.0454 197.576 94.6031 236.281 94.6031 236.281Z" fill="#1A171E"/>
<path d="M94.376 231.471C94.376 231.929 95.5211 233.761 96.8952 236.052L109.949 234.677C110.637 231.7 111.095 228.265 111.553 224.371C112.698 209.027 105.598 200.553 105.598 200.553C105.598 200.553 94.605 229.868 94.376 231.471Z" fill="#CAEEEC"/>
<path d="M52.4653 293.078C52.4653 293.078 95.7504 299.72 113.843 288.04C113.843 288.04 112.927 285.978 111.553 282.314C110.637 279.566 109.263 276.131 108.118 272.237C106.285 265.825 104.682 258.038 104.911 251.167C105.14 234.22 110.179 231.7 110.637 220.707C111.095 209.714 105.827 197.576 101.934 194.141C94.3763 187.041 75.8255 187.041 68.2678 190.705C61.6262 193.912 58.8779 198.263 57.9618 202.386C57.0458 206.737 56.3587 212.004 55.6716 217.959C54.9846 224.601 54.5265 231.929 54.2975 239.258C53.8395 246.129 53.6104 253.228 53.6104 260.099C53.6104 263.534 53.3814 266.741 53.3814 269.718C53.3814 279.566 53.1524 288.269 52.4653 293.078Z" fill="#CAEEEC"/>
<path d="M54.5298 239.029C62.0875 240.174 72.3935 240.861 73.7676 238.113C76.2868 233.303 74.2257 211.317 74.2257 211.317L55.9039 217.959C55.4459 224.372 54.9878 231.7 54.5298 239.029Z" fill="#CAEEEC"/>
<path d="M111.782 165.055C111.553 176.964 109.492 180.17 105.599 183.148C101.934 185.896 93.6894 183.148 92.7733 182.69C92.7733 182.69 92.7733 185.438 92.7733 187.957V192.538C92.7733 193.225 95.2926 198.492 88.1929 198.492C81.0932 198.492 73.9935 192.996 73.9935 192.996C73.9935 192.309 73.9935 176.048 73.9935 176.048C73.9935 176.048 61.6264 160.245 66.6649 146.962C71.7033 133.679 96.4377 139.634 104.224 142.611C112.011 144.901 112.011 153.375 111.782 165.055Z" fill="#E6D5B9"/>
<path d="M92.7722 182.69L83.3823 179.254L92.7722 188.186V182.69Z" fill="#E6D5B9"/>
<path d="M57.5008 272.237C57.9589 272.466 58.4169 272.695 58.875 272.695C60.9362 272.695 62.9974 270.863 64.6005 267.886C65.5166 265.824 66.6617 263.076 67.3488 259.87C68.9519 253.915 70.097 246.816 70.7841 239.258C71.0131 238.113 71.0131 236.739 71.2421 235.365C72.6163 223.226 73.0743 211.088 73.3033 205.134C73.3033 201.698 71.7002 198.263 68.7229 196.889C61.3942 193.454 57.2718 208.569 56.1267 219.791C55.6687 223.226 55.2106 227.578 54.7526 231.929C53.1494 248.648 52.0043 269.26 57.5008 272.237Z" fill="#E6D5B9"/>
<path d="M57.5053 272.237C59.3375 275.443 113.158 279.337 132.166 276.588C136.518 275.901 139.037 274.985 138.579 273.611C136.518 267.428 85.446 261.702 67.3532 259.87C66.4372 259.87 65.7501 259.641 65.063 259.641C62.3148 259.412 59.5665 260.099 57.5053 261.702C57.0473 262.16 56.5892 262.618 56.1312 263.076C53.6119 266.511 56.1312 269.489 57.5053 272.237Z" fill="#E6D5B9"/>
<path d="M57.5013 272.237C59.3335 275.444 113.154 279.337 132.162 276.589C132.391 276.36 132.391 276.131 132.162 275.902C129.643 272.924 80.4035 270.176 64.601 267.657C62.3108 267.428 60.7076 266.97 60.0206 266.512C58.6464 265.825 57.9594 263.763 57.7304 261.473C56.8143 254.832 58.4174 244.068 58.8755 240.861C59.3335 236.968 69.1814 238.8 71.0136 239.029C71.2426 239.029 71.2426 239.029 71.2426 239.029L72.8458 236.51L71.2426 235.136L67.8073 231.929L54.7531 231.7C53.1499 248.648 52.0048 269.26 57.5013 272.237Z" fill="#DDCAAF"/>
<path d="M128.5 272.466C128.958 266.97 138.348 269.031 141.325 269.718C146.364 271.092 151.402 276.36 150.944 278.421C150.486 280.482 139.035 276.818 138.577 277.276C138.119 277.734 143.386 280.024 142.928 281.856C142.241 283.688 134.683 281.627 132.164 279.566C129.416 277.505 128.042 275.902 128.5 272.466Z" fill="#E6D5B9"/>
<path d="M52.6973 234.448C52.6973 234.448 53.6134 195.057 66.2095 195.973C79.7218 196.889 72.8512 236.51 72.8512 236.51L52.6973 234.448Z" fill="#1A171E"/>
<path d="M113.842 159.1C115.445 149.939 115.903 143.985 113.384 138.259C107.43 125.434 75.5956 117.418 64.3736 141.466C63.6865 143.069 62.7704 144.901 62.3124 146.504C57.2739 159.1 54.2966 172.612 52.4644 186.125C51.7774 191.85 51.3193 197.576 51.5483 203.301C51.5483 205.592 51.7774 207.882 52.0064 209.943C52.2354 212.233 52.2354 215.44 53.6095 217.272C54.5256 218.417 55.8998 219.333 57.0449 220.02C58.19 220.707 59.1061 221.394 60.4802 221.394C61.6253 221.394 62.7704 220.707 63.9155 220.249C68.496 217.501 72.6183 213.836 75.5956 209.485C78.3439 204.905 79.718 199.408 78.3439 194.141C77.8858 192.537 77.1988 190.934 76.7407 189.56C75.5956 185.438 75.5956 181.086 76.7407 177.193C77.1988 175.132 78.5729 173.3 79.0309 171.238C79.26 169.406 79.489 167.574 79.489 165.742C79.489 164.826 79.26 163.91 79.489 162.994C79.489 162.077 79.718 161.39 79.947 160.703C80.4051 159.329 80.6341 157.955 81.0921 156.352C81.5502 154.749 82.0082 153.146 83.1533 152.23C83.8404 151.542 84.9855 151.084 85.9016 150.626C90.024 148.794 92.7722 146.046 93.9174 141.695C99.4139 148.336 104.91 157.039 113.842 159.1Z" fill="#1A171E"/>
<path d="M238.207 232.784L213.244 283.627C213.244 283.627 161.485 283.169 161.256 283.627L186.219 232.784C186.219 232.784 239.123 232.784 238.207 232.784Z" fill="#1A171E"/>
<path d="M123.922 283.627H161.481L162.856 280.421L164.688 276.985L124.838 276.756L124.38 280.192L123.922 283.627Z" fill="#1A171E"/>
<path d="M186.215 232.784H184.383L159.877 283.398L161.481 283.627L186.215 232.784Z" fill="#1A171E"/>
<path d="M123.921 283.627H161.481L163.084 280.65C163.084 280.879 124.379 280.421 124.608 280.421L123.921 283.627Z" fill="#1A171E"/>
<path d="M205.224 259.412C203.163 261.931 199.957 262.847 198.125 261.244C196.292 259.641 196.292 256.435 198.354 253.915C200.415 251.396 203.621 250.48 205.453 252.083C207.514 253.686 207.285 256.893 205.224 259.412Z" fill="#F0F0F0"/>
<path d="M37.5742 283.46H31.6196V444.92H37.5742V283.46Z" fill="#1E1C23"/>
<path d="M243.24 283.46H237.286V444.92H243.24V283.46Z" fill="#1E1C23"/>
<path d="M0.000640869 294.958L274.827 294.958V283.049L0.000640869 283.049V294.958Z" fill="#1A171E"/>
<path d="M277.494 32.5109C274.456 31.4477 271.114 30.8401 267.621 30.8401C253.95 30.992 242.558 40.1057 239.064 52.7129H141.7H101.6C98.258 52.7129 95.5239 55.447 95.5239 58.7887V69.1175V78.0793C95.5239 80.9653 97.8023 83.2437 100.688 83.2437H101.6C104.486 83.2437 106.764 80.9653 106.764 78.0793V69.1175H113.296V78.0793C113.296 80.9653 115.574 83.2437 118.46 83.2437H119.675C122.561 83.2437 124.84 80.9653 124.84 78.0793V69.1175H131.371V77.7755C131.371 80.5096 133.346 82.9399 135.928 83.2437C138.966 83.5475 141.7 81.1172 141.7 78.0793V69.1175H239.064C240.128 72.9149 241.95 76.4085 244.381 79.4463C249.849 86.4335 258.355 90.8384 267.924 90.8384C284.936 90.8384 298.759 76.5604 297.999 59.3963C297.24 46.9409 288.734 36.3083 277.494 32.5109ZM286.759 67.2948C285.544 68.0543 284.025 68.5099 282.506 68.5099C278.253 68.5099 274.76 65.0164 274.76 60.7633C274.76 56.5103 278.253 53.0167 282.506 53.0167C284.177 53.0167 285.544 53.4724 286.759 54.3837C288.734 55.7508 290.101 58.1811 290.101 60.7633C290.101 63.4974 288.734 65.9277 286.759 67.2948Z" fill="#ACACAC"/>
<path d="M298.002 59.3963C298.761 76.5604 285.091 90.8385 267.926 90.8385C258.357 90.8385 249.851 86.2817 244.383 79.4464C254.256 84.1551 265.648 86.4336 276.129 80.5097C282.205 77.0161 285.546 72.4593 286.761 67.2948C288.888 65.9278 290.255 63.4975 290.255 60.9153C290.255 58.1812 288.888 55.9028 286.913 54.5357C285.242 45.8777 280.686 37.5235 277.648 32.511C288.888 36.3084 297.394 46.941 298.002 59.3963Z" fill="#FF9F34"/>
<path d="M16.9146 272.056C16.2276 270.453 13.2503 264.041 12.5632 259.918C11.8762 255.796 9.58594 252.589 9.58594 250.528C9.58594 248.467 12.7922 247.322 13.7083 243.2C14.6244 239.077 16.2276 232.206 17.3727 232.436C18.5178 232.665 19.2049 239.993 20.1209 241.825C21.037 243.658 24.0143 245.948 21.7241 248.467C19.6629 251.215 20.808 254.193 22.6402 256.941C24.7014 259.689 18.9758 263.124 19.6629 266.789C20.1209 270.453 19.2048 275.492 19.2048 275.492L16.9146 272.056Z" fill="#007E77"/>
<path d="M18.0608 264.04C17.8317 264.04 17.8318 263.811 17.8318 263.811C17.6027 261.292 16.9156 259.46 16.2286 257.857C15.7705 256.712 15.3125 255.567 15.3125 254.65C15.3125 253.505 15.9996 252.589 16.6866 251.673C17.3737 250.757 17.8317 250.07 18.0608 248.925C18.2898 246.635 16.2286 241.367 16.2286 241.367C16.2286 241.138 16.2286 240.909 16.4576 240.909C16.6866 240.909 16.9156 240.909 16.9156 241.138C16.9156 241.367 19.2059 246.635 18.7478 249.154C18.5188 250.528 17.8317 251.444 17.3737 252.36C16.6866 253.276 16.2286 253.963 16.2286 254.879C16.2286 255.796 16.6866 256.712 17.1447 257.857C17.8317 259.46 18.5188 261.292 18.7478 263.811C18.2898 263.811 18.2898 264.04 18.0608 264.04Z" fill="#CAEEEC"/>
<path d="M11.4235 270.682C10.5074 270.224 10.2784 265.872 8.90424 265.185C7.53011 264.498 6.38499 262.437 5.92695 260.376C5.4689 258.315 1.11749 257.399 0.201405 255.108C-0.714681 252.818 1.80457 251.215 1.57555 249.154C1.34653 247.093 -0.485653 244.115 0.888477 242.512C2.26261 241.138 4.55284 245.948 5.69795 246.864C6.84305 247.78 9.3623 248.925 8.67523 250.757C7.98817 252.589 8.90426 255.566 13.2557 257.17C17.6071 259.002 20.3553 274.804 11.4235 270.682Z" fill="#FF9F34"/>
<path d="M12.1057 263.353C11.8767 263.353 11.8767 263.353 11.8767 263.124C10.9606 260.605 9.81547 259.46 8.21232 258.315C7.52525 257.628 6.60917 257.17 5.9221 256.254C3.63188 253.734 4.54797 249.154 4.77699 248.925C4.77699 248.696 5.00604 248.696 5.23506 248.696C5.46409 248.696 5.46406 248.925 5.46406 249.154C5.46406 249.154 4.31896 253.505 6.60917 256.024C7.29624 256.941 8.21232 257.399 8.89939 258.086C10.5025 259.231 11.8767 260.376 12.7928 263.124C12.5637 262.895 12.3347 263.124 12.1057 263.353Z" fill="#CAEEEC"/>
<path d="M19.4386 271.14C19.6676 270.453 19.8966 267.705 21.4998 267.018C23.1029 266.331 24.4771 265.873 25.8512 264.04C26.9963 261.979 25.8512 259.002 27.2253 256.941C28.5994 254.879 31.5767 256.941 32.9508 254.65C34.554 252.589 31.1187 248.925 32.2638 247.551C33.4089 245.948 35.012 241.825 33.4089 241.367C31.8057 240.909 27.2253 243.657 26.0802 246.406C24.9351 248.925 22.4158 250.528 21.9578 252.589C21.4998 254.65 19.6676 255.796 19.2095 257.857C18.7515 259.918 19.4386 263.124 18.7515 265.414C17.6064 267.705 19.4386 271.14 19.4386 271.14Z" fill="#FF9F34"/>
<path d="M23.3318 283.049H9.59054C8.67445 283.049 7.75836 282.362 7.75836 281.217L7.07129 266.56H25.6221L24.935 281.217C25.164 282.133 24.2479 283.049 23.3318 283.049Z" fill="#ACACAC"/>
<path d="M22.416 263.582C22.187 263.582 22.187 263.353 22.187 263.124C22.6451 257.399 24.4772 254.422 26.5384 251.902C28.1416 250.07 29.0577 246.406 29.0577 246.406C29.0577 246.177 29.2867 246.177 29.5157 246.177C29.7447 246.177 29.7447 246.406 29.7447 246.635C29.7447 246.864 28.8287 250.528 26.9965 252.36C24.9353 254.651 23.1031 257.628 22.645 263.124C22.8741 263.582 22.6451 263.582 22.416 263.582Z" fill="#CAEEEC"/>
<path d="M49.6321 258.954L49.1741 266.74L48.7161 275.443L48.487 283.001H34.0587L33.6006 275.443L33.1426 266.74L32.9136 258.954H49.6321Z" fill="#D4D4D4"/>
<path d="M48.4919 256.664H33.8345V259.183H48.4919V256.664Z" fill="#131016"/>
<path d="M50.5503 258.725H31.7705V262.16H50.5503V258.725Z" fill="#131016"/>
<path d="M49.1736 266.74L48.7156 275.443H33.6001L33.1421 266.74H49.1736Z" fill="#3B3643"/>
<path d="M41.1574 273.382C42.4223 273.382 43.4476 272.357 43.4476 271.092C43.4476 269.827 42.4223 268.802 41.1574 268.802C39.8926 268.802 38.8672 269.827 38.8672 271.092C38.8672 272.357 39.8926 273.382 41.1574 273.382Z" fill="#DFE5E4"/>
<path d="M499.251 299.3H333.955C330.854 299.3 328.809 296.605 329.377 293.293L357.562 128.68C358.065 125.708 360.89 123.046 363.878 122.754L521.899 106.891C525.455 106.534 528.036 108.872 527.663 112.119L506.816 292.676C506.378 296.329 502.985 299.3 499.251 299.3Z" fill="#007E77"/>
<path d="M494.883 294.933H329.588C326.487 294.933 324.442 292.237 325.01 288.925L353.195 124.312C353.698 121.341 356.523 118.678 359.511 118.386L517.532 102.524C521.088 102.167 523.669 104.505 523.296 107.752L502.449 288.308C502.011 291.961 498.618 294.933 494.883 294.933Z" fill="#ADADAD"/>
<path d="M493.34 285.776L333.191 286.539L357.61 141.814L511.978 128.371L493.34 285.776Z" fill="#F0F0F0"/>
<path d="M365.566 129.02C365.339 130.416 364.024 131.634 362.627 131.764C361.247 131.894 360.306 130.871 360.533 129.491C360.76 128.111 362.075 126.877 363.455 126.747C364.852 126.617 365.793 127.64 365.566 129.02Z" fill="#CAEEEC"/>
<path d="M383.179 127.364C382.952 128.761 381.621 130.011 380.208 130.141C378.796 130.27 377.838 129.248 378.065 127.851C378.292 126.455 379.624 125.221 381.036 125.075C382.433 124.945 383.407 125.968 383.179 127.364Z" fill="#CAEEEC"/>
<path d="M374.333 128.192C374.106 129.589 372.775 130.823 371.378 130.952C369.982 131.082 369.024 130.059 369.268 128.663C369.495 127.267 370.81 126.033 372.223 125.903C373.603 125.79 374.561 126.812 374.333 128.192Z" fill="#CAEEEC"/>
<path d="M466.364 249.876C465.826 254.039 462.323 257.182 458.126 257.267L374.608 258.953C369.559 259.055 365.65 254.561 366.45 249.575C367.066 245.738 370.322 242.879 374.207 242.765L457.706 240.315C462.918 240.162 467.032 244.705 466.364 249.876Z" fill="#FF9F34"/>
<path d="M446.353 165.339C444.941 175.779 435.037 184.822 424.37 185.471C413.817 186.105 406.592 178.263 408.102 168.034C409.612 157.871 419.207 149.006 429.663 148.162C440.216 147.318 447.75 154.981 446.353 165.339Z" fill="white"/>
<path d="M423.167 185.845C418.426 185.845 414.286 184.14 411.396 180.99C408.311 177.63 407.029 173.002 407.775 167.986C408.522 162.985 411.185 158.147 415.309 154.364C419.416 150.565 424.514 148.243 429.645 147.837C434.954 147.415 439.662 149.055 442.893 152.464C446.027 155.776 447.374 160.371 446.692 165.388C445.247 175.99 435.246 185.147 424.385 185.796C423.962 185.829 423.557 185.845 423.167 185.845ZM431.252 148.438C430.733 148.438 430.213 148.454 429.677 148.503C424.693 148.909 419.757 151.149 415.747 154.851C411.737 158.536 409.139 163.245 408.425 168.083C407.71 172.905 408.944 177.321 411.883 180.536C414.887 183.815 419.303 185.439 424.336 185.147C434.889 184.513 444.614 175.616 446.01 165.307C446.66 160.485 445.377 156.085 442.39 152.935C439.614 149.996 435.701 148.438 431.252 148.438Z" fill="#03726C"/>
<path d="M433.966 161.573C433.479 164.95 430.281 167.872 426.823 168.116C423.381 168.359 420.994 165.827 421.481 162.482C421.968 159.138 425.15 156.231 428.576 155.955C432.018 155.696 434.437 158.212 433.966 161.573Z" fill="#ACACAC"/>
<path d="M435.8 176.867L415.229 178.182L415.992 173.019C416.236 171.331 417.827 169.869 419.548 169.756L433.803 168.782C435.556 168.668 436.774 169.951 436.53 171.655L435.8 176.867Z" fill="#ACACAC"/>
<path d="M469.433 219.867C468.997 223.254 466.176 225.829 462.764 225.955L378.506 229.073C374.303 229.228 371.005 225.503 371.67 221.35C372.17 218.223 374.8 215.878 377.963 215.737L462.195 211.996C466.529 211.804 469.988 215.566 469.433 219.867Z" fill="white"/>
<path d="M405.068 222.45L404.247 223.833L402.251 223.914L404.165 221.041L402.518 218.508L404.562 218.425L405.412 219.739L406.249 218.356L408.244 218.274L406.296 221.1L407.962 223.681L405.918 223.764L405.068 222.45Z" fill="#03726C"/>
<path d="M410.876 222.213L410.055 223.595L408.06 223.677L409.974 220.804L408.327 218.271L410.371 218.188L411.22 219.502L412.058 218.119L414.053 218.037L412.105 220.863L413.77 223.443L411.726 223.527L410.876 222.213Z" fill="#03726C"/>
<path d="M416.7 221.975L415.879 223.357L413.883 223.439L415.797 220.566L414.15 218.033L416.194 217.95L417.044 219.263L417.881 217.881L419.876 217.799L417.928 220.625L419.593 223.205L417.549 223.289L416.7 221.975Z" fill="#03726C"/>
<path d="M422.504 221.738L421.683 223.12L419.688 223.202L421.602 220.329L419.954 217.796L421.998 217.712L422.848 219.026L423.686 217.643L425.681 217.562L423.733 220.388L425.398 222.968L423.354 223.052L422.504 221.738Z" fill="#03726C"/>
<path d="M428.311 221.5L427.49 222.882L425.495 222.964L427.408 220.091L425.761 217.558L427.805 217.475L428.655 218.789L429.492 217.406L431.487 217.324L429.539 220.15L431.205 222.73L429.161 222.814L428.311 221.5Z" fill="#03726C"/>
<path d="M434.136 221.262L433.315 222.644L431.32 222.726L433.233 219.853L431.586 217.32L433.63 217.237L434.48 218.551L435.317 217.168L437.313 217.086L435.365 219.912L437.03 222.492L434.986 222.576L434.136 221.262Z" fill="#03726C"/>
<path d="M472.089 199.207C471.665 202.513 468.93 205.039 465.6 205.199L381.63 209.241C377.465 209.442 374.17 205.762 374.828 201.644C375.315 198.592 377.864 196.292 380.951 196.121L464.889 191.466C469.181 191.228 472.637 194.943 472.089 199.207Z" fill="white"/>
<path d="M446.256 199.416L398.681 202.609L398.928 200.737L446.486 197.497L446.256 199.416Z" fill="#CAEEEC"/>
<path d="M488.797 450.033H26.3209C24.5622 450.033 23.126 448.597 23.126 446.838C23.126 445.08 24.5622 443.644 26.3209 443.644H488.797C490.556 443.644 491.992 445.08 491.992 446.838C492.021 448.597 490.585 450.033 488.797 450.033Z" fill="#007E77"/>
<path d="M381.88 68.7014C381.92 68.2989 381.92 67.8562 381.92 67.4537C381.92 58.6393 374.755 51.4751 365.939 51.4751C357.124 51.4751 349.959 58.6393 349.959 67.4537C349.959 67.8562 349.999 68.2989 349.999 68.7014H381.88Z" fill="#007E77"/>
<path d="M434.412 68.7014C434.452 68.2989 434.452 67.8562 434.452 67.4537C434.452 58.6393 427.287 51.4751 418.472 51.4751C409.656 51.4751 402.491 58.6393 402.491 67.4537C402.491 67.8562 402.531 68.2989 402.531 68.7014H434.412Z" fill="#007E77"/>
<path d="M416.013 68.7015C416.134 67.7356 416.214 66.7294 416.214 65.7232C416.214 52.7632 405.708 42.2986 392.787 42.2986C379.826 42.2986 369.36 52.8034 369.36 65.7232C369.36 66.7294 369.44 67.7356 369.561 68.7015H416.013Z" fill="#007E77"/>
<g opacity="0.2">
<path d="M479.009 26.4028C479.05 26.0003 479.05 25.5576 479.05 25.1551C479.05 16.3407 471.885 9.17651 463.069 9.17651C454.254 9.17651 447.089 16.3407 447.089 25.1551C447.089 25.5576 447.129 26.0003 447.129 26.4028H479.009Z" fill="#007E77"/>
<path d="M531.541 26.4028C531.581 26.0003 531.581 25.5576 531.581 25.1551C531.581 16.3407 524.416 9.17651 515.601 9.17651C506.786 9.17651 499.621 16.3407 499.621 25.1551C499.621 25.5576 499.661 26.0003 499.661 26.4028H531.541Z" fill="#007E77"/>
<path d="M513.146 26.4029C513.267 25.437 513.347 24.4308 513.347 23.4246C513.347 10.4646 502.841 0 489.92 0C476.958 0 466.493 10.5048 466.493 23.4246C466.493 24.4308 466.573 25.437 466.694 26.4029H513.146Z" fill="#007E77"/>
</g>
<path d="M514.269 157.691C507.661 164.769 497.13 170.557 485.851 173.036C485.851 173.794 485.83 177.963 485.738 197.189C485.625 222.839 510.038 235.377 513.829 237.302C517.506 235.612 542.226 223.095 542.339 197.446C542.421 178.219 542.441 174.04 542.452 173.292C531.193 170.71 520.805 164.821 514.269 157.691Z" fill="white"/>
<path opacity="0.21" d="M514.101 160.515C507.289 166.763 497.864 171.67 487.486 174.343L487.384 197.227C487.333 207.695 491.492 217.17 499.749 225.375C505.168 230.774 510.874 234.113 513.763 235.619C513.886 235.557 514.019 235.486 514.163 235.414V160.566C514.142 160.556 514.122 160.535 514.101 160.515Z" fill="#07B0A7"/>
<path d="M514.27 160.518V235.366C517.282 233.799 522.742 230.572 527.977 225.45C536.306 217.317 540.547 207.883 540.588 197.415L540.691 174.531C530.374 171.775 521.011 166.797 514.27 160.518Z" fill="#007E77"/>
<path d="M535.047 183.453C527.149 184.672 516.402 191.873 509.62 200.529C508.667 196.442 504.396 192.723 502.162 191.904L495.391 198.705C499.622 200.611 504.242 206.009 504.846 211.53L511.608 212.575C514.456 206.941 521.821 193.471 536.471 186.229C536.194 185.143 535.16 183.617 535.047 183.453Z" fill="#07B0A7"/>
</svg>
