<svg width="551" height="363" viewBox="0 0 551 363" fill="none" xmlns="http://www.w3.org/2000/svg">
<path d="M32.4979 353H489.004C489.004 353 569.861 270.52 545.385 206.284C532.306 171.833 495.048 166.657 483.851 140.946C468.096 104.627 495.048 76.2854 453.827 39.2035C398.337 -10.522 256.539 -5.09122 178.259 12.7285C20.0127 48.6225 -44.5938 215.279 32.4979 353Z" fill="#F8F8F8"/>
<path fill-rule="evenodd" clip-rule="evenodd" d="M270.322 48.9199V17.5948C270.585 17.4632 270.322 18.7794 270.585 18.6478H275.192H301.91V18.2529V22.9911V26.2816V31.0198V34.3103V39.0485V38.3904H304.543V14.6992H334.815V17.858V17.3316V22.0698V26.2816V31.0198V34.3103V39.0485V42.0757V46.814V49.8412V54.5794V57.475V60.5022V60.3706L334.683 60.7655H367.719V88.4052H380.881V94.9861H395.359V83.1405H419.05V50.236H422.999V47.0772V47.8669V51.5522H426.158H426.552H441.425V48.9199H442.741V51.5522H446.69V67.8728L446.953 67.3464H453.271V148.949H461.168V155.53H251.896V48.9199H270.322Z" fill="#EEEEEE"/>
<g opacity="0.5">
<path d="M316.919 15.6204H336.135V21.938H316.919V15.6204Z" fill="#ACACAC"/>
<path d="M316.919 25.3601H336.135V31.6778H316.919V25.3601Z" fill="#ACACAC"/>
<path d="M316.919 35.3633H336.135V41.6809H316.919V35.3633Z" fill="#ACACAC"/>
<path d="M316.919 45.498H336.135V51.8157H316.919V45.498Z" fill="#ACACAC"/>
<path d="M316.919 55.2373H336.135V61.555H316.919V55.2373Z" fill="#ACACAC"/>
</g>
<g opacity="0.5">
<path d="M316.919 66.0303H336.135V72.3479H316.919V66.0303Z" fill="#ACACAC"/>
<path d="M316.919 75.7703H336.135V82.0879H316.919V75.7703Z" fill="#ACACAC"/>
<path d="M316.919 85.7734H336.135V92.0911H316.919V85.7734Z" fill="#ACACAC"/>
<path d="M316.919 95.7761H336.135V102.094H316.919V95.7761Z" fill="#ACACAC"/>
<path d="M316.919 105.647H336.135V111.965H316.919V105.647Z" fill="#ACACAC"/>
</g>
<g opacity="0.5">
<path d="M284.145 19.832H303.361V26.1497H284.145V19.832Z" fill="#ACACAC"/>
<path d="M284.145 29.5718H303.361V35.8894H284.145V29.5718Z" fill="#ACACAC"/>
<path d="M284.145 39.4426H303.361V45.7603H284.145V39.4426Z" fill="#ACACAC"/>
<path d="M284.145 49.5779H303.361V55.8955H284.145V49.5779Z" fill="#ACACAC"/>
<path d="M284.145 59.449H303.361V65.7666H284.145V59.449Z" fill="#ACACAC"/>
</g>
<g opacity="0.5">
<path d="M284.145 69.584H303.361V75.9016H284.145V69.584Z" fill="#ACACAC"/>
<path d="M284.145 79.3232H303.361V85.6409H284.145V79.3232Z" fill="#ACACAC"/>
<path d="M284.145 89.3264H303.361V95.6441H284.145V89.3264Z" fill="#ACACAC"/>
<path d="M284.145 99.4612H303.361V105.779H284.145V99.4612Z" fill="#ACACAC"/>
<path d="M284.145 109.201H303.361V115.519H284.145V109.201Z" fill="#ACACAC"/>
</g>
<g opacity="0.5">
<path d="M284.145 120.388H303.361V126.705H284.145V120.388Z" fill="#ACACAC"/>
<path d="M284.145 130.127H303.361V136.445H284.145V130.127Z" fill="#ACACAC"/>
<path d="M284.145 140.13H303.361V146.448H284.145V140.13Z" fill="#ACACAC"/>
<path d="M284.145 150.265H303.361V156.583H284.145V150.265Z" fill="#ACACAC"/>
</g>
<path d="M362.715 49.5781H363.637V62.4767H362.715V49.5781Z" fill="#E8F1FF"/>
<path d="M346.132 38.5222H347.58V63.5296H346.132V38.5222Z" fill="#E8F1FF"/>
<path d="M332.579 12.0664H333.105V15.6201H332.579V12.0664Z" fill="#E8F1FF"/>
<path d="M310.071 12.0664H310.598V15.6201H310.071V12.0664Z" fill="#E8F1FF"/>
<path d="M244 148.949H461.17V156.846H244V148.949Z" fill="#ADADAD"/>
<path d="M449.323 35.5V150.397H454.588L455.801 40.9999C455.538 40.8683 453.267 38.6316 453.004 38.5C452.004 37.5 450.903 36.4213 449.323 35.5Z" fill="#ADADAD"/>
<path d="M254 1.69971C252 2 250.5 2 248.002 2.27826V150H253.723H253.583V3.40811L254 1.69971Z" fill="#ADADAD"/>
<path d="M420.836 135.323C419.946 133.247 416.09 124.941 415.2 119.602C414.31 114.263 411.344 110.11 411.344 107.441C411.344 104.771 415.496 103.288 416.683 97.9486C417.869 92.6093 419.946 83.7106 421.429 84.0072C422.912 84.3039 423.802 93.7958 424.988 96.1688C426.175 98.5418 430.031 101.508 427.065 104.771C424.395 108.33 425.878 112.187 428.251 115.746C430.921 119.305 423.505 123.755 424.395 128.501C424.988 133.247 423.802 139.773 423.802 139.773L420.836 135.323Z" fill="#007E77"/>
<path d="M422.317 124.941C422.021 124.941 422.021 124.644 422.021 124.644C421.724 121.381 420.834 119.008 419.944 116.932C419.351 115.449 418.758 113.966 418.758 112.779C418.758 111.296 419.648 110.11 420.538 108.923C421.427 107.737 422.021 106.847 422.317 105.364C422.614 102.398 419.944 95.5752 419.944 95.5752C419.944 95.2785 419.944 94.9819 420.241 94.9819C420.538 94.9819 420.834 94.9819 420.834 95.2785C420.834 95.5752 423.8 102.398 423.207 105.66C422.911 107.44 422.021 108.627 421.427 109.813C420.538 111 419.944 111.889 419.944 113.076C419.944 114.262 420.538 115.449 421.131 116.932C422.021 119.008 422.911 121.381 423.207 124.644C422.614 124.644 422.614 124.941 422.317 124.941Z" fill="#CAEEEC"/>
<path d="M413.723 133.543C412.537 132.95 412.24 127.314 410.46 126.424C408.681 125.535 407.197 122.865 406.604 120.195C406.011 117.526 400.375 116.339 399.189 113.373C398.002 110.407 401.265 108.33 400.968 105.661C400.672 102.991 398.299 99.1351 400.078 97.0587C401.858 95.279 404.824 101.508 406.308 102.695C407.791 103.881 411.054 105.364 410.164 107.737C409.274 110.11 410.46 113.966 416.096 116.043C421.732 118.416 425.292 138.883 413.723 133.543Z" fill="#FF9F34"/>
<path d="M414.607 124.051C414.311 124.051 414.311 124.051 414.311 123.755C413.124 120.492 411.641 119.009 409.565 117.526C408.675 116.636 407.488 116.042 406.599 114.856C403.632 111.593 404.819 105.661 405.115 105.364C405.115 105.067 405.412 105.067 405.709 105.067C406.005 105.067 406.005 105.364 406.005 105.661C406.005 105.661 404.522 111.296 407.488 114.559C408.378 115.746 409.565 116.339 410.455 117.229C412.531 118.712 414.311 120.195 415.497 123.755C415.201 123.458 414.904 123.755 414.607 124.051Z" fill="#CAEEEC"/>
<path d="M424.104 134.137C424.401 133.247 424.697 129.687 426.774 128.797C428.85 127.907 430.63 127.314 432.41 124.941C433.893 122.272 432.41 118.415 434.189 115.746C435.969 113.076 439.825 115.746 441.605 112.78C443.681 110.11 439.232 105.364 440.715 103.584C442.198 101.508 444.274 96.1687 442.198 95.5754C440.122 94.9822 434.189 98.5416 432.706 102.101C431.223 105.364 427.96 107.44 427.367 110.11C426.774 112.78 424.401 114.263 423.807 116.932C423.214 119.602 424.104 123.755 423.214 126.721C421.731 129.687 424.104 134.137 424.104 134.137Z" fill="#FF9F34"/>
<path d="M429.146 149.561H411.349C410.162 149.561 408.976 148.671 408.976 147.188L408.086 128.204H432.113L431.223 147.188C431.519 148.375 430.333 149.561 429.146 149.561Z" fill="#1A171E"/>
<path d="M427.959 124.348C427.662 124.348 427.662 124.051 427.662 123.755C428.255 116.339 430.628 112.483 433.298 109.22C435.374 106.847 436.561 102.101 436.561 102.101C436.561 101.805 436.857 101.805 437.154 101.805C437.451 101.805 437.451 102.101 437.451 102.398C437.451 102.695 436.264 107.441 433.891 109.814C431.222 112.78 428.849 116.636 428.255 123.755C428.552 124.348 428.255 124.348 427.959 124.348Z" fill="#CAEEEC"/>
<path d="M531.196 352.575H7.39912C6.84234 352.575 6.38672 351.128 6.38672 349.357V348.612C6.38672 346.846 6.84234 345.4 7.39912 345.4H531.196C531.755 345.4 532.212 346.846 532.212 348.612V349.357C532.212 351.128 531.755 352.575 531.196 352.575Z" fill="#1A171E"/>
<path d="M160.764 98.3807C160.764 98.3807 134.04 111.984 153.516 141.193C153.516 141.193 130.555 143.836 124.779 137.27C124.779 137.27 125.65 140.141 126.665 141.547C126.665 141.547 104.423 138.643 96.4475 130.25C88.4808 121.858 113.336 10.2304 172.587 33.076C172.587 33.076 225.259 37.8573 210.315 96.9581C195.363 156.059 215 159.342 215 159.342C215 159.342 209.088 161.109 206.45 160.672C206.45 160.672 202.847 158.559 202.441 156.311C202.441 156.311 202.644 159.771 203.448 161C203.448 161 181.916 159.451 172.672 149.72C163.428 139.989 155.665 110.233 160.764 98.3807Z" fill="#1A171E"/>
<path d="M198.781 127.543L196.623 127.836C187.021 129.142 178.066 122.494 176.736 113.065L175.167 101.986C173.837 92.5576 180.608 83.7652 190.219 82.4505L192.368 82.1658C201.979 80.8511 210.934 87.4999 212.264 96.9371L213.833 108.007C215.163 117.444 208.392 126.237 198.781 127.543Z" fill="#007E77"/>
<path d="M205 216.272C197.055 222.352 192.026 244.299 179.22 247.924C131.205 261.512 105.425 204.989 97 177.396C103.428 173.303 109.621 172.159 113.201 171.549C116.689 170.965 120.371 170.506 123.421 170.197C128.661 165.779 135.924 148.416 136.362 122L138.678 122.493L177.509 130.944C177.509 130.944 176.38 143.104 176.102 154.546C175.9 163.507 175.605 165.653 176.304 166.714C179.329 167.207 182.884 174.865 182.884 174.865L182.901 174.898C183.466 175.709 195.505 193.255 205 216.272Z" fill="#FFC49C"/>
<path d="M177 130.438C177 130.438 176.365 142.609 176.11 154.049C154.769 152.998 143.402 133.014 139 122L177 130.438Z" fill="#99765E"/>
<path d="M374 331.731C374 331.731 351.218 332.566 326.487 332.65C323.563 332.667 320.605 332.667 317.655 332.65C297.513 332.566 277.714 331.858 269.294 329.683C261.067 327.559 229.412 306.042 204.084 279.974L204.076 279.957C202.109 284.652 200.63 288.242 200.588 288.528C199.849 294.378 198.605 300.244 197.101 305.874C191.353 327.349 181.782 345.376 181.454 346L167.891 345.975L62 345.823C62 345.823 82 314.925 76.6302 235.76C76.4874 233.754 95.0672 169.885 95.0672 169.885C95.0672 169.885 109.496 167.349 126.176 166C127.748 167.441 130.983 209.464 151.849 211.891C155.244 212.287 177.008 245.638 177.008 245.638L183.605 211.571L175.807 166.371C185.815 169.312 191.303 170.366 199.622 173.703C205.286 175.979 209.975 180.168 212.899 185.536C227.479 212.245 274.781 298.415 279.613 300.429C284.134 302.308 301.176 305.722 319.21 309.026H319.218C343.344 313.442 369.244 317.639 369.244 317.639L374 331.731Z" fill="#CAEEEC"/>
<path d="M233.473 345.549L227.303 345.57L227.323 345.542L233.473 345.549Z" fill="#BED2FA"/>
<path d="M183.637 142C183.637 142 131.887 140.998 133.018 109.156C134.15 77.3144 128.231 55.7386 161.312 55.0292C194.393 54.3197 200.38 66.6976 202.617 77.4146C204.855 88.1315 197.121 141.441 183.637 142Z" fill="#FFC49C"/>
<path d="M326.926 331.988C324.013 332.004 321.067 332.004 318.129 331.988C298.066 331.904 278.346 331.205 269.959 329.056C261.765 326.957 230.235 305.693 205.008 279.932L205 279.915C205 279.915 210.323 259.642 212.617 256.244C214.91 252.846 223.958 285.837 245.109 299.255C266.252 312.673 299.355 322.076 315.425 318.27C326.248 315.713 327.352 325.391 326.926 331.988Z" fill="#007E77"/>
<path d="M176.48 137.82C147.246 128.377 140.076 100.082 140 99.7898L143.123 99C143.19 99.2661 149.974 125.81 177.446 134.686C177.631 134.746 177.815 134.807 178 134.858L177.068 138C176.867 137.94 176.673 137.88 176.48 137.82Z" fill="#007E77"/>
<path d="M179.563 139.864L176.846 138.882C175.462 138.381 174.684 136.681 175.123 135.104C175.562 133.527 177.053 132.639 178.436 133.14L181.154 134.122C182.545 134.613 183.316 136.322 182.877 137.899C182.438 139.477 180.946 140.355 179.563 139.864Z" fill="#007E77"/>
<path d="M187 50.3121C187 50.3121 173.66 89.6452 153.646 96.3235C133.64 102.993 127 95.0962 127 95.0962C127 95.0962 141.751 81.6127 143.435 59.792C143.435 59.792 175.769 34.2301 187 50.3121Z" fill="#1A171E"/>
<path d="M162 62.1792C162 62.1792 188.795 60.6787 196.805 68.2988C202.575 73.798 202.44 76.6733 202.893 84C202.893 84 214.609 65.9348 202.549 53.2933C189.768 39.8806 162 62.1792 162 62.1792Z" fill="#1A171E"/>
<path d="M186 54.2066C186 54.2066 179.129 91.4618 154 105C154 105 178.339 80.7049 178.769 56.4015C179.198 32.0981 186 54.2066 186 54.2066Z" fill="#1A171E"/>
<path d="M96.445 130.127C104.398 138.509 126.611 141.41 126.611 141.41C125.589 140.014 124.728 137.13 124.728 137.13C136.143 146.345 164.173 139.653 164.173 139.653C141.816 134.734 149.052 102.61 156.659 101.239C161.091 77.0007 169.88 46.835 174 33.2823C173.004 33.1225 172.447 33.0721 172.447 33.0721C113.305 10.2544 88.4919 121.753 96.445 130.127Z" fill="#1A171E"/>
<path d="M145.176 124.533L143.074 124.833C133.707 126.167 124.989 119.375 123.684 109.742L122.163 98.4246C120.866 88.7922 127.457 79.8099 136.824 78.4754L138.926 78.1674C148.293 76.8329 157.011 83.6252 158.316 93.2662L159.837 104.575C161.134 114.216 154.543 123.199 145.176 124.533Z" fill="#007E77"/>
<path d="M131.218 83C129.943 80.6346 134.401 62.2564 140.944 48.0051C144.11 41.1185 152.097 31.9001 157.804 29.5179C159.864 28.6623 162.6 29.0146 164.828 29.5179C166.449 29.8786 171 31.984 171 31.984C152.257 37.7885 135.98 76.8012 137.153 80.8359C137.119 80.71 137.069 80.6178 137.035 80.5507L131.218 83Z" fill="#007E77"/>
<path d="M140.589 112.775L139.538 112.918C134.86 113.573 130.499 110.245 129.849 105.53L129.082 99.9915C128.431 95.2766 131.733 90.881 136.411 90.2254L137.462 90.0826C142.148 89.427 146.509 92.7468 147.159 97.4701L147.918 103.009C148.569 107.724 145.267 112.119 140.589 112.775Z" fill="#1A171E"/>
<path d="M266 312.602C266 312.602 288.007 311.324 290.151 312.492C293.618 314.379 305.442 322.081 307.292 324.315C309.151 326.549 314 335.52 314 335.52C314 335.52 311.898 336.104 310.952 335.241C309.997 334.386 302.821 326.676 302.821 326.676L310.198 338C310.198 338 307.644 337.881 306.639 336.756C305.626 335.63 298.734 328.555 298.734 328.555L296.381 328.081C296.381 328.081 298.776 330.019 300.074 331.78C301.372 333.531 302.226 335.419 302.226 335.419C302.226 335.419 300.124 335.055 299.471 334.742C298.818 334.429 292.638 328.961 292.638 328.961L295.912 333.472C295.912 333.472 293.701 333.362 292.981 332.871C292.253 332.372 287.438 327.895 286.583 327.903C285.729 327.912 279.583 327.65 276.945 326.236C274.307 324.823 266.025 321.581 266.025 321.581L266 312.602Z" fill="#FFC49C"/>
<path d="M129.153 160C129.153 160 114.365 164.325 111 167.738C111 167.738 126.453 207.418 148.736 225.936L154.692 221.695V231.334L177 246C177 246 128.009 172.005 129.153 160Z" fill="#97D2CE"/>
<path d="M546.96 230.485C546.96 230.485 553.738 235.625 540.63 249.61C527.39 263.364 519.206 269.916 519.206 269.916C519.206 269.916 516.546 273.287 519.661 274.712C522.775 276.137 530.038 277.319 530.278 281.473C530.468 285.808 526.491 289.018 519.497 290.439C512.454 292.043 497.399 295.961 496.116 296.394C494.832 296.826 493.123 298.117 495.052 299.611C496.85 300.875 512.208 307.358 508.749 314.407C505.291 321.457 485.142 322.637 482.953 322.825C480.764 323.013 479.975 323.773 479.862 324.911C479.749 326.049 484.955 327.649 489.29 329.598C493.624 331.547 498.257 334.55 495.812 338.563C493.417 342.395 480.012 348.122 453.198 343.024L440.827 339.879L437.326 327.641C431.325 300.903 436.547 287.321 440.51 284.886C444.291 282.402 447.528 286.975 449.677 291.255C451.827 295.535 453.55 300.673 454.735 300.604C455.788 300.304 456.528 299.725 456.572 297.4C456.617 295.076 457.363 275.028 464.171 271.414C471.161 267.849 477.976 282.929 479.446 284.689C480.915 286.448 482.311 284.878 482.521 283.377C482.913 281.926 486.436 266.716 487.936 259.722C489.254 252.679 492.11 248.582 496.572 248.618C501.033 248.655 502.12 256.152 503.657 259.099C505.376 262.094 508.432 259.414 508.432 259.414C508.432 259.414 514.604 250.956 527.976 237.431C541.578 223.775 547.141 230.534 546.96 230.485Z" fill="#CAEEEC"/>
<path d="M439.582 342.65C449.483 332.693 466.651 314.593 481.353 299.131C496.236 283.718 509.588 269.64 519.489 259.683L531.165 247.484L534.372 244.27L530.983 247.435C528.286 250.205 524.241 254.359 519.224 259.222C509.323 269.18 495.97 283.257 481.087 298.671C466.204 314.084 449.036 332.184 439.268 342.371" fill="#007E77"/>
<path d="M520.188 280.512C519.828 280.415 519.599 280.546 519.239 280.449C518.651 280.482 517.882 280.468 516.705 280.535C514.531 280.719 511.769 280.937 508.598 281.237L500.442 282.119L497.86 282.385C497.5 282.288 497.271 282.419 496.863 282.501C497.223 282.598 497.451 282.467 497.811 282.565C498.4 282.531 499.168 282.545 500.345 282.478C502.519 282.294 505.282 282.076 508.452 281.776L516.608 280.895L519.191 280.628C519.551 280.725 519.779 280.594 520.188 280.512Z" fill="#007E77"/>
<path d="M496.146 281.268C496.334 281.319 495.936 275.309 495.26 268.083C494.584 260.857 494.186 254.848 493.998 254.797C493.81 254.746 494.208 260.755 494.883 267.982C495.559 275.208 496.098 281.445 496.146 281.268Z" fill="#007E77"/>
<path d="M474.822 306.589C474.689 306.358 474.606 305.945 474.473 305.713L473.559 303.317C472.91 301.383 471.962 298.39 470.831 295.349C469.932 292.175 469.116 289.414 468.517 287.298C468.217 286.24 468.05 285.413 467.833 284.768C467.701 284.537 467.617 284.123 467.485 283.892C467.386 284.256 467.519 284.488 467.602 284.901C467.637 285.497 467.986 286.373 468.104 287.382C468.521 289.449 469.288 292.392 470.369 295.615C471.269 298.79 472.266 301.6 473.097 303.583C473.397 304.641 473.795 305.335 474.011 305.979C474.689 306.358 474.822 306.589 474.822 306.589Z" fill="#B0C7FD"/>
<path d="M495.617 310.132C495.271 310.038 495.097 309.991 494.751 309.898L492.446 309.483C490.661 309.208 488.01 308.699 485.185 308.144C482.36 307.589 479.657 307.273 477.872 306.998L475.567 306.583C475.394 306.536 475.047 306.443 474.822 306.589C474.995 306.636 475.342 306.729 475.515 306.776L477.82 307.191C479.778 307.513 482.256 307.975 485.081 308.53C487.905 309.086 490.609 309.401 492.342 309.869L494.647 310.284C495.045 310.185 495.444 310.085 495.617 310.132Z" fill="#007E77"/>
<path d="M478.55 334.526L475.666 333.748C473.117 333.163 469.847 332.384 466.037 331.459C462.2 330.63 458.93 329.851 456.381 329.266L453.445 328.681C453.085 328.583 452.725 328.486 452.338 328.485C452.698 328.583 453.059 328.68 453.419 328.777L456.329 329.459C458.878 330.044 462.148 330.823 465.984 331.652C469.795 332.577 473.091 333.26 475.64 333.844L478.55 334.526Z" fill="#B0C7FD"/>
<path d="M197.509 306.004C191.754 327.391 182.172 345.345 181.844 345.966L189.415 345.975L181.818 346H111.393L119.545 345.941C119.352 345.236 131.458 312.501 111.393 299.079C91.2856 285.641 84 252.595 84 252.595L147.964 237C147.964 237 174.322 275.376 181.818 282.687C187.581 288.302 201 288.73 201 288.73L197.509 306.004Z" fill="#007E77"/>
<path d="M175.585 166.564C175.585 166.564 183.016 220.538 177.534 246C177.534 246 186.478 229.155 187.731 226.063L186.231 216.804L192.001 218.865C192.001 218.865 186.907 175.823 182.299 168.279C177.691 160.735 175.105 159.845 175.105 159.845L175.585 166.564Z" fill="#97D2CE"/>
<path d="M374 331.094C374 331.094 345.532 332.12 317.71 331.988C310.81 321.532 319.263 309 319.263 309H319.272C343.374 313.298 369.248 317.382 369.248 317.382L374 331.094Z" fill="#FFC49C"/>
<path d="M343 346H238C238 341.027 241.754 337 246.371 337H343V346Z" fill="#1A171E"/>
<path d="M506 231L466.94 346H303L343.128 231H506Z" fill="#1A171E"/>
<path d="M420.781 287C419.72 291.424 415.159 295 410.59 295C406.011 295 403.16 291.424 404.222 287C405.274 282.585 409.835 279 414.414 279C418.983 279 421.834 282.585 420.781 287Z" fill="white"/>
<path d="M506 231L467.268 346H393L483.555 231H506Z" fill="#1A171E"/>
<path d="M266 321.45C266 321.45 211.907 326.073 182 324.768V296C201.591 301.297 265.975 312.728 265.975 312.728L266 321.45Z" fill="#CAEEEC"/>
<path d="M111.503 168C111.503 168 80.3518 168.703 70.7081 179.026C61.0645 189.35 80.2757 247.706 80.2757 247.706C80.2757 247.706 138.34 318.21 167.389 323.183C167.389 323.183 180.081 324.908 186.009 325C186.009 325 180.199 308.23 191 297.706C191 297.706 178.57 294.248 178.055 292.724C177.539 291.192 111.503 168 111.503 168Z" fill="#CAEEEC"/>
<path opacity="0.2" d="M175 285.188C175 289.238 175 286.312 175 288C173.333 284.625 174.444 287.438 172.778 284.062C171.667 282.375 172.778 284.625 170 279C174 279.113 175 281.25 175 285.188Z" fill="#222C4E"/>
</svg>
