<svg width="507" height="499" viewBox="0 0 507 499" fill="none" xmlns="http://www.w3.org/2000/svg">
<g clip-path="url(#clip0_224_2200)">
<path d="M483.989 499H21.5133C19.7546 499 18.3184 497.564 18.3184 495.805C18.3184 494.047 19.7546 492.611 21.5133 492.611H483.989C485.748 492.611 487.184 494.047 487.184 495.805C487.214 497.564 485.777 499 483.989 499Z" fill="#007E77"/>
<path d="M23.2733 152.314C23.3026 152.021 23.3026 151.699 23.3026 151.406C23.3026 144.987 18.0852 139.77 11.666 139.77C5.24675 139.77 0 144.958 0 151.406C0 151.699 0.0293114 152.021 0.0293114 152.314H23.2733Z" fill="#03726C"/>
<path d="M61.5238 152.314C61.5531 152.021 61.5531 151.699 61.5531 151.406C61.5531 144.987 56.3356 139.77 49.9164 139.77C43.4972 139.77 38.2798 144.987 38.2798 151.406C38.2798 151.699 38.3091 152.021 38.3091 152.314H61.5238Z" fill="#03726C"/>
<path d="M71.4325 152.314C71.4618 152.021 71.4911 151.699 71.4911 151.406C71.4911 146.863 67.7979 143.17 63.2546 143.17C58.7113 143.17 55.0181 146.863 55.0181 151.406C55.0181 151.728 55.0474 152.021 55.0767 152.314H71.4325Z" fill="#03726C"/>
<path d="M48.1294 152.314C48.2174 151.611 48.276 150.878 48.276 150.145C48.276 140.708 40.6257 133.088 31.2167 133.088C21.7784 133.088 14.1575 140.738 14.1575 150.145C14.1575 150.878 14.2161 151.611 14.304 152.314H48.1294Z" fill="#03726C"/>
<path d="M310.292 19.226C310.321 18.9329 310.321 18.6105 310.321 18.3175C310.321 11.899 305.104 6.68213 298.684 6.68213C292.265 6.68213 287.048 11.899 287.048 18.3175C287.048 18.6105 287.077 18.9329 287.077 19.226H310.292Z" fill="#CAEEEC"/>
<path d="M348.544 19.226C348.573 18.9329 348.573 18.6105 348.573 18.3175C348.573 11.899 343.356 6.68213 336.936 6.68213C330.517 6.68213 325.3 11.899 325.3 18.3175C325.3 18.6105 325.329 18.9329 325.329 19.226H348.544Z" fill="#CAEEEC"/>
<path d="M335.147 19.2261C335.235 18.5227 335.293 17.79 335.293 17.0573C335.293 7.62011 327.643 0 318.234 0C308.796 0 301.175 7.64942 301.175 17.0573C301.175 17.79 301.233 18.5227 301.321 19.2261H335.147Z" fill="#CAEEEC"/>
<path d="M249.087 152.959H244.896C244.573 152.959 244.339 152.695 244.339 152.402C244.339 152.08 244.603 151.845 244.896 151.845H249.087C249.41 151.845 249.644 152.109 249.644 152.402C249.644 152.725 249.38 152.959 249.087 152.959ZM240.675 152.959H236.483C236.161 152.959 235.927 152.695 235.927 152.402C235.927 152.08 236.19 151.845 236.483 151.845H240.675C240.997 151.845 241.232 152.109 241.232 152.402C241.261 152.725 240.997 152.959 240.675 152.959ZM232.292 152.959H228.1C227.778 152.959 227.543 152.695 227.543 152.402C227.543 152.08 227.807 151.845 228.1 151.845H232.292C232.614 151.845 232.849 152.109 232.849 152.402C232.849 152.725 232.614 152.959 232.292 152.959ZM223.909 152.959H219.717C219.395 152.959 219.16 152.695 219.16 152.402C219.16 152.08 219.424 151.845 219.717 151.845H223.909C224.231 151.845 224.466 152.109 224.466 152.402C224.466 152.725 224.202 152.959 223.909 152.959ZM215.496 152.959H211.305C210.983 152.959 210.748 152.695 210.748 152.402C210.748 152.08 211.012 151.845 211.305 151.845H215.496C215.819 151.845 216.053 152.109 216.053 152.402C216.083 152.725 215.819 152.959 215.496 152.959ZM207.113 152.959H202.922C202.599 152.959 202.365 152.695 202.365 152.402C202.365 152.08 202.629 151.845 202.922 151.845H207.113C207.436 151.845 207.67 152.109 207.67 152.402C207.67 152.725 207.436 152.959 207.113 152.959ZM198.73 152.959H194.539C194.216 152.959 193.982 152.695 193.982 152.402C193.982 152.08 194.246 151.845 194.539 151.845H198.73C199.053 151.845 199.287 152.109 199.287 152.402C199.287 152.725 199.023 152.959 198.73 152.959ZM190.318 152.959H186.126C185.804 152.959 185.569 152.695 185.569 152.402C185.569 152.08 185.833 151.845 186.126 151.845H190.318C190.64 151.845 190.875 152.109 190.875 152.402C190.875 152.725 190.64 152.959 190.318 152.959ZM181.935 152.959H177.743C177.421 152.959 177.186 152.695 177.186 152.402C177.186 152.08 177.45 151.845 177.743 151.845H181.935C182.257 151.845 182.492 152.109 182.492 152.402C182.492 152.725 182.257 152.959 181.935 152.959ZM173.552 152.959H169.36C169.038 152.959 168.803 152.695 168.803 152.402C168.803 152.08 169.067 151.845 169.36 151.845H173.552C173.874 151.845 174.109 152.109 174.109 152.402C174.109 152.725 173.845 152.959 173.552 152.959ZM165.139 152.959H160.948C160.625 152.959 160.391 152.695 160.391 152.402C160.391 152.08 160.655 151.845 160.948 151.845H165.139C165.462 151.845 165.696 152.109 165.696 152.402C165.696 152.725 165.462 152.959 165.139 152.959ZM156.756 152.959H152.565C152.242 152.959 152.008 152.695 152.008 152.402C152.008 152.08 152.272 151.845 152.565 151.845H156.756C157.079 151.845 157.313 152.109 157.313 152.402C157.313 152.725 157.049 152.959 156.756 152.959ZM148.373 152.959H144.182C143.859 152.959 143.625 152.695 143.625 152.402C143.625 152.08 143.889 151.845 144.182 151.845H148.373C148.696 151.845 148.93 152.109 148.93 152.402C148.93 152.725 148.666 152.959 148.373 152.959ZM139.961 152.959H135.769C135.447 152.959 135.212 152.695 135.212 152.402C135.212 152.08 135.476 151.845 135.769 151.845H139.961C140.283 151.845 140.518 152.109 140.518 152.402C140.518 152.725 140.283 152.959 139.961 152.959ZM131.578 152.959H127.386C127.064 152.959 126.829 152.695 126.829 152.402C126.829 152.08 127.093 151.845 127.386 151.845H131.578C131.9 151.845 132.135 152.109 132.135 152.402C132.135 152.725 131.871 152.959 131.578 152.959ZM123.165 152.959H118.974C118.651 152.959 118.417 152.695 118.417 152.402C118.417 152.08 118.681 151.845 118.974 151.845H123.165C123.488 151.845 123.722 152.109 123.722 152.402C123.752 152.725 123.488 152.959 123.165 152.959ZM114.782 152.959H110.591C110.268 152.959 110.034 152.695 110.034 152.402C110.034 152.08 110.298 151.845 110.591 151.845H114.782C115.105 151.845 115.339 152.109 115.339 152.402C115.339 152.725 115.105 152.959 114.782 152.959ZM106.399 152.959H102.208C101.885 152.959 101.651 152.695 101.651 152.402C101.651 152.08 101.915 151.845 102.208 151.845H106.399C106.722 151.845 106.956 152.109 106.956 152.402C106.956 152.725 106.692 152.959 106.399 152.959ZM97.9869 152.959H97.3127C95.9937 152.959 94.704 152.49 93.7074 151.64C93.4729 151.435 93.4436 151.083 93.6488 150.849C93.854 150.614 94.2057 150.585 94.4402 150.79C95.2316 151.464 96.2282 151.845 97.3127 151.845H97.9869C98.3093 151.845 98.5438 152.109 98.5438 152.402C98.5731 152.725 98.3093 152.959 97.9869 152.959ZM253.074 151.992C252.898 151.992 252.722 151.904 252.634 151.757C252.458 151.523 252.488 151.171 252.751 150.966C253.777 150.204 254.363 149.032 254.363 147.801C254.363 147.478 254.627 147.244 254.92 147.244C255.243 147.244 255.477 147.508 255.477 147.801C255.477 149.383 254.715 150.878 253.425 151.845C253.308 151.933 253.191 151.992 253.074 151.992ZM92.4763 148.065C92.1539 148.065 91.9194 147.801 91.9194 147.508V143.317C91.9194 142.994 92.1832 142.76 92.4763 142.76C92.7988 142.76 93.0333 143.024 93.0333 143.317V147.508C93.0333 147.83 92.7988 148.065 92.4763 148.065ZM254.891 144.167C254.569 144.167 254.334 143.903 254.334 143.61V139.419C254.334 139.096 254.598 138.862 254.891 138.862C255.213 138.862 255.448 139.126 255.448 139.419V143.61C255.448 143.932 255.213 144.167 254.891 144.167ZM92.4763 139.682C92.1539 139.682 91.9194 139.419 91.9194 139.126V134.934C91.9194 134.612 92.1832 134.378 92.4763 134.378C92.7988 134.378 93.0333 134.641 93.0333 134.934V139.126C93.0333 139.419 92.7988 139.682 92.4763 139.682ZM254.891 135.784C254.569 135.784 254.334 135.521 254.334 135.228V131.037C254.334 130.714 254.598 130.48 254.891 130.48C255.213 130.48 255.448 130.743 255.448 131.037V135.228C255.448 135.521 255.213 135.784 254.891 135.784ZM92.4763 131.3C92.1539 131.3 91.9194 131.037 91.9194 130.743V126.552C91.9194 126.23 92.1832 125.996 92.4763 125.996C92.7988 125.996 93.0333 126.259 93.0333 126.552V130.714C93.0333 131.037 92.7988 131.3 92.4763 131.3ZM254.891 127.402C254.569 127.402 254.334 127.139 254.334 126.845V122.654C254.334 122.332 254.598 122.098 254.891 122.098C255.213 122.098 255.448 122.361 255.448 122.654V126.845C255.448 127.139 255.213 127.402 254.891 127.402ZM92.4763 122.889C92.1539 122.889 91.9194 122.625 91.9194 122.332V118.141C91.9194 117.819 92.1832 117.584 92.4763 117.584C92.7988 117.584 93.0333 117.848 93.0333 118.141V122.332C93.0333 122.654 92.7988 122.889 92.4763 122.889ZM254.891 118.991C254.569 118.991 254.334 118.727 254.334 118.434V114.243C254.334 113.921 254.598 113.686 254.891 113.686C255.213 113.686 255.448 113.95 255.448 114.243V118.434C255.448 118.756 255.213 118.991 254.891 118.991ZM92.4763 114.507C92.1539 114.507 91.9194 114.243 91.9194 113.95V109.759C91.9194 109.436 92.1832 109.202 92.4763 109.202C92.7988 109.202 93.0333 109.466 93.0333 109.759V113.95C93.0333 114.243 92.7988 114.507 92.4763 114.507ZM254.891 110.609C254.569 110.609 254.334 110.345 254.334 110.052V105.861C254.334 105.538 254.598 105.304 254.891 105.304C255.213 105.304 255.448 105.568 255.448 105.861V110.052C255.448 110.345 255.213 110.609 254.891 110.609ZM92.4763 106.125C92.1539 106.125 91.9194 105.861 91.9194 105.568V101.377C91.9194 101.054 92.1832 100.82 92.4763 100.82C92.7988 100.82 93.0333 101.084 93.0333 101.377V105.568C93.0333 105.861 92.7988 106.125 92.4763 106.125ZM254.891 102.227C254.569 102.227 254.334 101.963 254.334 101.67V97.4787C254.334 97.1563 254.598 96.9219 254.891 96.9219C255.213 96.9219 255.448 97.1856 255.448 97.4787V101.67C255.448 101.963 255.213 102.227 254.891 102.227ZM92.4763 97.7132C92.1539 97.7132 91.9194 97.4494 91.9194 97.1563V92.9653C91.9194 92.6429 92.1832 92.4084 92.4763 92.4084C92.7988 92.4084 93.0333 92.6722 93.0333 92.9653V97.1563C93.0333 97.4787 92.7988 97.7132 92.4763 97.7132ZM254.891 93.8152C254.569 93.8152 254.334 93.5514 254.334 93.2584V89.0673C254.334 88.7449 254.598 88.5104 254.891 88.5104C255.213 88.5104 255.448 88.7742 255.448 89.0673V93.2584C255.448 93.5807 255.213 93.8152 254.891 93.8152ZM92.4763 89.3311C92.1539 89.3311 91.9194 89.0673 91.9194 88.7742V84.5832C91.9194 84.2608 92.1832 84.0263 92.4763 84.0263C92.7988 84.0263 93.0333 84.2901 93.0333 84.5832V88.7742C93.0333 89.0673 92.7988 89.3311 92.4763 89.3311ZM254.891 85.4331C254.569 85.4331 254.334 85.1693 254.334 84.8762V80.6852C254.334 80.3628 254.598 80.1283 254.891 80.1283C255.213 80.1283 255.448 80.3921 255.448 80.6852V84.8762C255.448 85.1693 255.213 85.4331 254.891 85.4331ZM92.4763 80.9196C92.1539 80.9196 91.9194 80.6559 91.9194 80.3628V76.1717C91.9194 75.8493 92.1832 75.6149 92.4763 75.6149C92.7988 75.6149 93.0333 75.8786 93.0333 76.1717V80.3628C93.0333 80.6852 92.7988 80.9196 92.4763 80.9196ZM254.891 77.0217C254.569 77.0217 254.334 76.7579 254.334 76.4648V72.2737C254.334 71.9514 254.598 71.7169 254.891 71.7169C255.213 71.7169 255.448 71.9807 255.448 72.2737V76.4648C255.448 76.7872 255.213 77.0217 254.891 77.0217ZM92.4763 72.5375C92.1539 72.5375 91.9194 72.2737 91.9194 71.9807V67.7896C91.9194 67.4672 92.1832 67.2034 92.4763 67.2034C92.7988 67.2034 93.0333 67.4379 93.0333 67.7603V71.9807C93.0333 72.3031 92.7988 72.5375 92.4763 72.5375ZM254.891 68.6395C254.569 68.6395 254.334 68.3758 254.334 68.0827V67.7896C254.334 66.6466 253.836 65.5622 252.927 64.8002C252.693 64.595 252.663 64.2433 252.869 64.0088C253.074 63.7744 253.425 63.7451 253.66 63.9502C254.803 64.9174 255.448 66.3242 255.448 67.7896V68.0827C255.448 68.4051 255.213 68.6395 254.891 68.6395ZM94.323 64.7122C94.1471 64.7122 93.9712 64.6243 93.8833 64.4778C93.7074 64.2433 93.7367 63.8916 94.0005 63.6865C94.9678 62.9538 96.111 62.5728 97.3421 62.5728H98.3386C98.6611 62.5728 98.8956 62.8365 98.8956 63.1296C98.8956 63.452 98.6318 63.6865 98.3386 63.6865H97.3127C96.3455 63.6865 95.4368 63.9795 94.6747 64.5657C94.5575 64.6829 94.4402 64.7122 94.323 64.7122ZM249.38 63.7451H245.189C244.867 63.7451 244.632 63.4813 244.632 63.1882C244.632 62.8658 244.896 62.6314 245.189 62.6314H249.38C249.703 62.6314 249.937 62.8951 249.937 63.1882C249.937 63.4813 249.703 63.7451 249.38 63.7451ZM240.997 63.7451H236.806C236.483 63.7451 236.249 63.4813 236.249 63.1882C236.249 62.8658 236.513 62.6314 236.806 62.6314H240.997C241.32 62.6314 241.554 62.8951 241.554 63.1882C241.554 63.4813 241.32 63.7451 240.997 63.7451ZM232.614 63.7451H228.423C228.1 63.7451 227.866 63.4813 227.866 63.1882C227.866 62.8658 228.13 62.6314 228.423 62.6314H232.614C232.937 62.6314 233.171 62.8951 233.171 63.1882C233.171 63.4813 232.907 63.7451 232.614 63.7451ZM224.202 63.7451H220.01C219.688 63.7451 219.454 63.4813 219.454 63.1882C219.454 62.8658 219.717 62.6314 220.01 62.6314H224.202C224.524 62.6314 224.759 62.8951 224.759 63.1882C224.759 63.4813 224.524 63.7451 224.202 63.7451ZM215.819 63.7451H211.627C211.305 63.7451 211.07 63.4813 211.07 63.1882C211.07 62.8658 211.334 62.6314 211.627 62.6314H215.819C216.141 62.6314 216.376 62.8951 216.376 63.1882C216.376 63.4813 216.112 63.7451 215.819 63.7451ZM207.436 63.7451H203.244C202.922 63.7451 202.687 63.4813 202.687 63.1882C202.687 62.8658 202.951 62.6314 203.244 62.6314H207.436C207.758 62.6314 207.993 62.8951 207.993 63.1882C207.993 63.4813 207.729 63.7451 207.436 63.7451ZM199.023 63.7451H194.832C194.509 63.7451 194.275 63.4813 194.275 63.1882C194.275 62.8658 194.539 62.6314 194.832 62.6314H199.023C199.346 62.6314 199.58 62.8951 199.58 63.1882C199.58 63.4813 199.346 63.7451 199.023 63.7451ZM190.64 63.7451H186.449C186.126 63.7451 185.892 63.4813 185.892 63.1882C185.892 62.8658 186.156 62.6314 186.449 62.6314H190.64C190.963 62.6314 191.197 62.8951 191.197 63.1882C191.197 63.4813 190.933 63.7451 190.64 63.7451ZM182.228 63.7451H178.036C177.714 63.7451 177.48 63.4813 177.48 63.1882C177.48 62.8658 177.743 62.6314 178.036 62.6314H182.228C182.55 62.6314 182.785 62.8951 182.785 63.1882C182.814 63.4813 182.55 63.7451 182.228 63.7451ZM173.845 63.7451H169.653C169.331 63.7451 169.096 63.4813 169.096 63.1882C169.096 62.8658 169.36 62.6314 169.653 62.6314H173.845C174.167 62.6314 174.402 62.8951 174.402 63.1882C174.402 63.4813 174.167 63.7451 173.845 63.7451ZM165.462 63.7451H161.27C160.948 63.7451 160.713 63.4813 160.713 63.1882C160.713 62.8658 160.977 62.6314 161.27 62.6314H165.462C165.784 62.6314 166.019 62.8951 166.019 63.1882C166.019 63.4813 165.755 63.7451 165.462 63.7451ZM157.049 63.7451H152.858C152.535 63.7451 152.301 63.4813 152.301 63.1882C152.301 62.8658 152.565 62.6314 152.858 62.6314H157.049C157.372 62.6314 157.606 62.8951 157.606 63.1882C157.636 63.4813 157.372 63.7451 157.049 63.7451ZM148.666 63.7451H144.475C144.152 63.7451 143.918 63.4813 143.918 63.1882C143.918 62.8658 144.182 62.6314 144.475 62.6314H148.666C148.989 62.6314 149.223 62.8951 149.223 63.1882C149.223 63.4813 148.989 63.7451 148.666 63.7451ZM140.283 63.7451H136.092C135.769 63.7451 135.535 63.4813 135.535 63.1882C135.535 62.8658 135.799 62.6314 136.092 62.6314H140.283C140.606 62.6314 140.84 62.8951 140.84 63.1882C140.84 63.4813 140.576 63.7451 140.283 63.7451ZM131.871 63.7451H127.679C127.357 63.7451 127.122 63.4813 127.122 63.1882C127.122 62.8658 127.386 62.6314 127.679 62.6314H131.871C132.193 62.6314 132.428 62.8951 132.428 63.1882C132.457 63.4813 132.193 63.7451 131.871 63.7451ZM123.488 63.7451H119.296C118.974 63.7451 118.739 63.4813 118.739 63.1882C118.739 62.8658 119.003 62.6314 119.296 62.6314H123.488C123.81 62.6314 124.045 62.8951 124.045 63.1882C124.045 63.4813 123.81 63.7451 123.488 63.7451ZM115.105 63.7451H110.913C110.591 63.7451 110.356 63.4813 110.356 63.1882C110.356 62.8658 110.62 62.6314 110.913 62.6314H115.105C115.427 62.6314 115.662 62.8951 115.662 63.1882C115.662 63.4813 115.398 63.7451 115.105 63.7451ZM106.692 63.7451H102.501C102.178 63.7451 101.944 63.4813 101.944 63.1882C101.944 62.8658 102.208 62.6314 102.501 62.6314H106.692C107.015 62.6314 107.249 62.8951 107.249 63.1882C107.249 63.4813 107.015 63.7451 106.692 63.7451Z" fill="#03726C"/>
<path d="M260.753 139.36H111.558C108.422 139.36 105.872 136.81 105.872 133.674V49.0325C105.872 45.8965 108.422 43.3467 111.558 43.3467H260.753C263.89 43.3467 266.44 45.8965 266.44 49.0325V133.674C266.44 136.81 263.89 139.36 260.753 139.36Z" fill="#ACACAC"/>
<path d="M266.412 61.4592H105.844V78.0183H186.128H266.412V61.4592Z" fill="white"/>
<path d="M142.628 120.925H119.003C117.508 120.925 116.277 122.156 116.277 123.651C116.277 125.146 117.508 126.377 119.003 126.377H142.628C144.123 126.377 145.354 125.146 145.354 123.651C145.354 122.156 144.123 120.925 142.628 120.925Z" fill="white"/>
<path d="M178.945 120.925H155.32C153.825 120.925 152.594 122.156 152.594 123.651C152.594 125.146 153.825 126.377 155.32 126.377H178.945C180.44 126.377 181.671 125.146 181.671 123.651C181.641 122.156 180.44 120.925 178.945 120.925Z" fill="white"/>
<path d="M215.233 120.925H191.608C190.113 120.925 188.882 122.156 188.882 123.651C188.882 125.146 190.113 126.377 191.608 126.377H215.233C216.728 126.377 217.959 125.146 217.959 123.651C217.959 122.156 216.757 120.925 215.233 120.925Z" fill="#D1F5FF"/>
<path d="M251.55 120.925H227.925C226.43 120.925 225.199 122.156 225.199 123.651C225.199 125.146 226.43 126.377 227.925 126.377H251.55C253.045 126.377 254.276 125.146 254.276 123.651C254.276 122.156 253.045 120.925 251.55 120.925Z" fill="#D1F5FF"/>
<path d="M117.918 48.2117C116.247 48.2117 114.928 49.5598 114.928 51.2011V52.2562C114.928 53.9268 116.276 55.2456 117.918 55.2456C119.588 55.2456 120.908 53.8974 120.908 52.2562V51.2011C120.937 49.5598 119.588 48.2117 117.918 48.2117Z" fill="white"/>
<path d="M124.395 51.7286C124.395 53.663 125.978 55.2456 127.913 55.2456H140.399C142.334 55.2456 143.917 53.663 143.917 51.7286C143.917 49.7943 142.334 48.2117 140.399 48.2117H127.913C125.978 48.2117 124.395 49.7943 124.395 51.7286Z" fill="white"/>
<path d="M122.754 86.957H138.904C141.484 86.957 143.594 89.0672 143.594 91.6463V105.568C143.594 108.147 141.484 110.257 138.904 110.257H122.754C120.174 110.257 118.064 108.147 118.064 105.568V91.6463C118.064 89.0672 120.174 86.957 122.754 86.957Z" fill="#FF9F34"/>
<path d="M436.391 119.811C438.267 112.367 438.589 104.864 437.504 97.7132L439.791 97.3615L444.275 96.6874H444.334C443.103 88.4811 440.318 80.6852 436.127 73.6805L430.206 77.1975C426.425 70.8669 421.413 65.2398 415.345 60.7849L419.449 55.2457C413.059 50.4685 405.584 46.8343 397.377 44.7534L395.677 51.465C388.203 49.5892 380.728 49.2669 373.576 50.3513L372.55 43.5225C364.343 44.7534 356.546 47.567 349.541 51.7287L353.058 57.649C346.727 61.4297 341.099 66.4414 336.644 72.5082L331.104 68.4051C326.326 74.7942 322.692 82.2678 320.61 90.4741L327.323 92.1739C325.447 99.6475 325.124 107.121 326.209 114.272L321.373 115.005L319.409 115.327H319.379C320.61 123.534 323.424 131.33 327.587 138.334L333.508 134.817C337.289 141.148 342.33 146.775 348.398 151.23L344.294 156.769C350.684 161.546 358.129 165.151 366.336 167.232L368.036 160.52C375.481 162.396 383.015 162.719 390.167 161.634L390.958 166.939L391.192 168.463C399.4 167.232 407.167 164.418 414.173 160.257L410.655 154.336C416.986 150.556 422.614 145.515 427.099 139.477L432.639 143.58C437.387 137.162 440.993 129.747 443.103 121.511L436.391 119.811ZM374.368 135.609C358.012 131.476 348.105 114.858 352.267 98.5045C356.4 82.1799 373.019 72.2737 389.375 76.4355C405.702 80.5679 415.609 97.1856 411.476 113.51C407.314 129.864 390.694 139.741 374.368 135.609Z" stroke="#3B3643" stroke-width="4" stroke-miterlimit="10" stroke-linejoin="round"/>
<path d="M462.711 181.036C460.19 177.871 457.142 175.35 453.8 173.533L454.387 172.478L455.53 170.368V170.339C451.719 168.228 447.528 166.91 443.278 166.441L442.867 170.046C438.998 169.606 435.041 169.928 431.26 171.042L430.234 167.554C426.189 168.727 422.291 170.69 418.803 173.475L421.06 176.317C417.894 178.838 415.373 181.886 413.556 185.227L410.361 183.498C408.25 187.308 406.961 191.499 406.462 195.749L410.068 196.159C409.628 200.028 409.95 203.984 411.064 207.765L407.576 208.791C408.749 212.835 410.713 216.733 413.497 220.221L416.34 217.964C418.861 221.13 421.91 223.65 425.251 225.467L424.02 227.724L423.522 228.662C427.332 230.772 431.524 232.062 435.774 232.56L436.184 228.955C440.053 229.395 444.01 229.072 447.792 227.958L448.817 231.446C452.862 230.274 456.732 228.31 460.249 225.555L457.992 222.712C461.158 220.192 463.678 217.144 465.525 213.803L467.987 215.151L468.691 215.532C470.801 211.722 472.091 207.531 472.56 203.281L468.954 202.871C469.394 199.002 469.072 195.045 467.958 191.235L471.446 190.21C470.273 186.165 468.31 182.296 465.525 178.809L462.711 181.036ZM449.58 212.073C442.633 217.613 432.52 216.47 426.98 209.524C421.441 202.578 422.584 192.466 429.56 186.927C436.507 181.388 446.619 182.531 452.13 189.477C457.67 196.452 456.526 206.534 449.58 212.073Z" stroke="#3B3643" stroke-width="4" stroke-miterlimit="10" stroke-linejoin="round"/>
<path d="M205.942 346.861C203.041 343.227 199.523 340.296 195.654 338.186L196.328 336.955L197.647 334.523L197.677 334.493C193.28 332.061 188.443 330.566 183.519 330.009L183.05 334.171C178.595 333.673 174.022 334.024 169.655 335.314L168.482 331.299C163.822 332.647 159.337 334.904 155.292 338.128L157.901 341.41C154.237 344.312 151.335 347.829 149.225 351.697L145.561 349.675C143.128 354.071 141.633 358.907 141.076 363.831L145.238 364.3C144.74 368.755 145.092 373.327 146.382 377.694L142.366 378.866C143.714 383.526 145.971 388.01 149.195 392.055L152.478 389.446C155.38 393.11 158.898 396.011 162.767 398.121L161.33 400.73L160.744 401.785C165.141 404.217 169.977 405.712 174.902 406.269L175.371 402.107C179.826 402.605 184.398 402.224 188.766 400.935L189.938 404.95C194.599 403.602 199.084 401.345 203.128 398.151L200.52 394.868C204.184 391.967 207.086 388.45 209.196 384.581L212.039 386.164L212.86 386.603C215.293 382.207 216.788 377.371 217.345 372.477L213.182 372.008C213.681 367.553 213.3 362.981 212.039 358.585L216.055 357.412C214.707 352.752 212.45 348.268 209.225 344.253L205.942 346.861ZM190.759 382.676C182.728 389.065 171.062 387.746 164.672 379.716C158.282 371.715 159.601 360.05 167.632 353.661C175.634 347.272 187.3 348.591 193.69 356.621C200.109 364.622 198.761 376.287 190.759 382.676Z" stroke="#3B3643" stroke-width="4" stroke-miterlimit="10"/>
<path d="M381.605 105.392C378.351 86.1072 348.659 77.4026 349.245 90.0051L213.123 90.7964C203.684 90.8551 196.063 99.3251 196.034 109.759L195.741 467.728C195.741 478.514 203.508 487.335 213.123 487.423L352.088 488.625C352.938 490.442 354.55 492.083 357.1 493.461C373.046 493.812 380.667 485.928 383.481 477.048C384.389 474.674 384.888 472.007 384.858 469.252C384.301 464.534 382.631 109.905 381.605 105.392Z" fill="#03726C"/>
<path d="M355.636 493.49L196.123 492.464C186.157 492.406 178.125 483.35 178.125 472.242L178.712 104.102C178.741 93.405 186.655 84.7005 196.416 84.6712L352.822 84.1729C362.67 84.1436 370.702 92.8188 370.79 103.575L373.633 473.414C373.721 484.551 365.66 493.549 355.636 493.49Z" fill="white"/>
<path d="M357.835 490.794C357.16 490.882 356.486 490.911 355.812 490.911L196.358 489.709C187.799 489.651 180.823 481.708 180.823 472.007L181.38 104.278C181.38 94.929 188.268 87.3089 196.651 87.2796L353.057 86.6055C353.291 86.6055 353.555 86.6055 353.79 86.6348C357.717 86.8106 361.411 88.5984 364.166 91.6758C366.98 94.8117 368.533 98.9735 368.563 103.37L371.347 473.59C371.435 482.353 365.631 489.768 357.835 490.794Z" fill="black"/>
<path d="M363.081 105.245L365.777 474.147L186.127 473.092L186.596 105.245H363.081Z" fill="#F0F0F0"/>
<path d="M300.591 290.883H252.491C248.417 290.883 245.105 287.542 245.105 283.497C245.105 279.424 248.446 276.112 252.491 276.112H300.591C304.666 276.112 307.978 279.453 307.978 283.497C307.978 287.542 304.666 290.883 300.591 290.883Z" fill="#FF9F34"/>
<path d="M337.17 235.96H212.831C208.757 235.96 205.445 232.618 205.445 228.574C205.445 224.5 208.786 221.188 212.831 221.188H337.17C341.245 221.188 344.557 224.529 344.557 228.574C344.557 232.618 341.245 235.96 337.17 235.96Z" fill="white"/>
<path d="M337.17 259.787H212.831C208.757 259.787 205.445 256.446 205.445 252.402C205.445 248.328 208.786 245.016 212.831 245.016H337.17C341.245 245.016 344.557 248.357 344.557 252.402C344.557 256.446 341.245 259.787 337.17 259.787Z" fill="white"/>
<path d="M236.046 253.046C236.046 254.482 234.874 255.655 233.438 255.655C232.001 255.655 230.829 254.482 230.829 253.046C230.829 251.61 232.001 250.438 233.438 250.438C234.874 250.438 236.046 251.61 236.046 253.046Z" fill="#007E77"/>
<path d="M244.913 253.58C245.213 252.171 244.314 250.786 242.904 250.486C241.495 250.187 240.11 251.086 239.81 252.495C239.511 253.904 240.41 255.289 241.819 255.589C243.228 255.889 244.614 254.989 244.913 253.58Z" fill="#007E77"/>
<path d="M253.134 254.898C254.153 253.879 254.153 252.227 253.134 251.209C252.115 250.19 250.463 250.19 249.445 251.209C248.426 252.227 248.426 253.879 249.445 254.898C250.463 255.916 252.115 255.916 253.134 254.898Z" fill="#007E77"/>
<path d="M262.07 254.891C263.089 253.872 263.089 252.22 262.07 251.202C261.052 250.183 259.4 250.183 258.381 251.202C257.362 252.22 257.362 253.872 258.381 254.891C259.4 255.909 261.052 255.909 262.07 254.891Z" fill="#007E77"/>
<path d="M270.176 255.453C271.507 254.902 272.139 253.376 271.588 252.045C271.036 250.714 269.51 250.082 268.179 250.634C266.848 251.185 266.216 252.711 266.767 254.042C267.319 255.373 268.845 256.005 270.176 255.453Z" fill="#007E77"/>
<path d="M280.628 253.68C280.959 252.278 280.091 250.873 278.689 250.542C277.287 250.211 275.881 251.079 275.55 252.481C275.219 253.883 276.088 255.288 277.49 255.619C278.892 255.95 280.297 255.082 280.628 253.68Z" fill="#007E77"/>
<path d="M288.862 254.891C289.881 253.872 289.881 252.221 288.862 251.202C287.843 250.183 286.192 250.183 285.173 251.202C284.154 252.221 284.154 253.872 285.173 254.891C286.192 255.909 287.843 255.909 288.862 254.891Z" fill="#007E77"/>
<path d="M297.799 254.884C298.818 253.865 298.818 252.214 297.799 251.195C296.78 250.177 295.129 250.176 294.11 251.195C293.091 252.214 293.091 253.865 294.11 254.884C295.129 255.903 296.78 255.903 297.799 254.884Z" fill="#007E77"/>
<path d="M305.88 255.46C307.211 254.909 307.843 253.383 307.292 252.052C306.741 250.721 305.214 250.089 303.883 250.64C302.552 251.192 301.92 252.718 302.472 254.049C303.023 255.38 304.549 256.012 305.88 255.46Z" fill="#007E77"/>
<path d="M295.243 192.102C306.404 180.943 306.404 162.85 295.243 151.691C284.083 140.532 265.988 140.532 254.827 151.691C243.667 162.85 243.667 180.943 254.827 192.102C265.988 203.262 284.083 203.262 295.243 192.102Z" fill="white"/>
<path d="M275.091 170.749C277.876 170.749 280.455 169.401 282.097 167.32C283.299 165.825 284.031 163.891 284.031 161.752C284.031 156.828 280.016 152.725 275.091 152.725C270.079 152.725 266.063 156.798 266.063 161.752C266.063 163.891 266.767 165.825 267.998 167.32C269.639 169.372 272.219 170.749 275.091 170.749Z" fill="#007E77"/>
<path d="M290.919 186.81C290.919 192.496 259.146 192.496 259.146 186.81V180.186C260.406 171.13 288.34 170.749 290.919 180.186V186.81Z" fill="#007E77"/>
<path d="M218.985 251.024V250.614C218.985 249.002 217.666 247.712 216.083 247.712C214.471 247.712 213.182 249.031 213.182 250.614V251.024H212.742V256.27C212.742 257.179 219.454 257.179 219.454 256.27V251.024H218.985ZM214.208 250.614C214.208 249.617 214.823 248.679 216.083 248.679C217.344 248.679 217.989 249.529 217.989 250.614V251.024H214.208V250.614ZM216.582 253.662V255.186C216.582 255.45 216.347 255.655 216.083 255.655C215.82 255.655 215.614 255.45 215.614 255.186V253.662C215.351 253.515 215.145 253.222 215.145 252.87C215.145 252.372 215.585 251.933 216.083 251.933C216.582 251.933 217.021 252.372 217.021 252.87C216.992 253.251 216.816 253.515 216.582 253.662Z" fill="#4D4D4D"/>
<path d="M216.085 228.017C216.671 228.017 217.228 227.724 217.55 227.284C217.814 226.962 217.961 226.552 217.961 226.112C217.961 225.057 217.111 224.207 216.085 224.207C215.029 224.207 214.179 225.057 214.179 226.112C214.179 226.552 214.326 226.962 214.59 227.284C214.942 227.753 215.469 228.017 216.085 228.017Z" fill="#4D4D4D"/>
<path d="M219.426 231.417C219.426 232.618 212.685 232.618 212.685 231.417L212.714 230.01C212.978 228.105 218.869 228.017 219.426 230.01V231.417Z" fill="#4D4D4D"/>
<path d="M259.642 230.743H232.382C231.18 230.743 230.213 229.776 230.213 228.574C230.213 227.372 231.18 226.405 232.382 226.405H259.642C260.844 226.405 261.811 227.372 261.811 228.574C261.811 229.746 260.844 230.743 259.642 230.743Z" fill="#007E77"/>
<path d="M295.577 230.743H268.318C267.116 230.743 266.149 229.775 266.149 228.574C266.149 227.372 267.116 226.405 268.318 226.405H295.577C296.779 226.405 297.746 227.372 297.746 228.574C297.746 229.746 296.779 230.743 295.577 230.743Z" fill="#007E77"/>
<path d="M238.361 367.201V421.099C238.361 427.078 311.64 427.078 311.64 421.099V367.201H238.361Z" fill="#CECECE"/>
<path d="M283.795 389.658C284.944 384.79 281.93 379.913 277.062 378.763C272.194 377.614 267.315 380.628 266.166 385.496C265.016 390.363 268.031 395.241 272.899 396.39C277.767 397.54 282.645 394.526 283.795 389.658Z" fill="#007E77"/>
<path d="M275 414.798C272.948 414.798 271.277 413.127 271.277 411.076V390.325H278.693V411.076C278.693 413.127 277.051 414.798 275 414.798Z" fill="#007E77"/>
<path d="M305.221 363.362H297.805V359.728C297.805 347.155 287.576 336.926 275.001 336.926C262.427 336.926 252.197 347.155 252.197 359.728V363.362H244.781V359.728C244.781 343.052 258.352 329.511 275.001 329.511C291.65 329.511 305.221 343.081 305.221 359.728V363.362Z" fill="#CECECE"/>
<path d="M421.965 262.103C403.059 282.354 372.927 298.914 340.655 306.006C340.655 308.175 340.597 320.103 340.333 375.115C340.01 448.502 409.86 484.375 420.705 489.885C431.228 485.049 501.956 449.235 502.279 375.847C502.513 320.836 502.572 308.878 502.601 306.739C470.388 299.353 440.666 282.501 421.965 262.103Z" fill="white"/>
<path opacity="0.21" d="M421.487 270.182C401.995 288.06 375.028 302.098 345.336 309.748L345.043 375.222C344.896 405.175 356.797 432.285 380.422 455.761C395.927 471.206 412.254 480.76 420.52 485.069C420.871 484.893 421.252 484.688 421.663 484.483V270.328C421.604 270.299 421.545 270.24 421.487 270.182Z" fill="#07B0A7"/>
<path d="M421.966 270.192V484.346C430.584 479.862 446.207 470.63 461.185 455.976C485.015 432.705 497.15 405.712 497.267 375.759L497.561 310.285C468.044 302.401 441.253 288.158 421.966 270.192Z" fill="#007E77"/>
<path d="M481.41 335.812C458.811 339.3 428.063 359.904 408.659 384.669C405.933 372.975 393.71 362.336 387.32 359.992L367.945 379.452C380.051 384.904 393.27 400.349 395 416.146L414.345 419.135C422.494 403.016 443.569 364.476 485.484 343.755C484.693 340.648 481.732 336.281 481.41 335.812Z" fill="#07B0A7"/>
<path d="M113.376 218.287L109.976 231.974L109.361 234.523C108.686 237.747 87.3183 236.37 88.8132 232.589L90.0736 229.805L96.6393 215.385L113.376 218.287Z" fill="#F7A58E"/>
<path d="M125.892 197.976C126.097 212.835 119.209 224.91 108.422 224.852C97.6355 224.793 87.2007 215.649 86.8196 197.8C86.5851 186.429 95.6717 177.255 106.458 177.285C117.245 177.343 125.716 186.605 125.892 197.976Z" fill="#F7A58E"/>
<path d="M106.78 173.211C106.78 173.211 128.266 174.266 130.054 190.561C132.428 204.834 121.729 194.342 117.332 203.926C112.32 214.916 117.42 222.947 123.957 225.116C118.153 233.205 85.0604 232.912 76.5308 218.726C70.6978 200.936 78.9343 174.178 106.78 173.211Z" fill="black"/>
<path d="M121.847 203.31C122.023 205.509 120.381 207.443 118.183 207.619C115.985 207.795 114.05 206.153 113.874 203.955C113.698 201.757 115.34 199.823 117.538 199.647C119.737 199.471 121.671 201.112 121.847 203.31Z" fill="#F7A58E"/>
<path d="M118.565 479.539C119.561 478.484 124.339 478.455 124.749 480.038C125.189 481.62 124.339 482.734 126.361 485.254C125.218 485.577 121.115 485.606 119.854 485.254C118.594 484.873 117.539 480.624 118.565 479.539Z" fill="white"/>
<path d="M110.709 484.932H122.287C123.372 435.929 123.167 382.588 122.786 342.407C122.639 328.016 122.258 320.748 119.649 312.102C114.373 294.664 89.605 300.027 87.8463 315.853C87.1135 324.617 86.5859 341.733 102.795 399.909C95.7311 425.495 107.983 456.21 110.709 484.932Z" fill="#00050D"/>
<path d="M128.763 485.694C127.063 485.606 123.077 483.965 122.315 482.822C121.201 484.053 118.915 484.405 116.13 483.994C112.847 483.496 112.408 481.972 110.063 482.177C109.066 484.932 106.633 491.145 108.978 492.581C108.978 492.581 122.784 492.581 133.336 492.581C135.505 490.589 135.446 486.339 128.763 485.694Z" fill="#00050D"/>
<path d="M59.5895 480.8C60.4395 479.891 64.4259 479.891 64.8069 481.21C65.1587 482.529 64.4552 483.496 66.1552 485.577C65.188 485.87 61.7585 485.87 60.7033 485.577C59.6481 485.284 58.7394 481.679 59.5895 480.8Z" fill="white"/>
<path d="M97.7527 315.414C95.3785 297.36 63.2532 299.207 61.1134 314.974C60.3513 323.474 57.9771 336.252 64.0153 399.294C51.2648 423.356 54.8701 457.881 51.0596 483.291C50.6492 487.16 61.5824 488.097 62.4324 484.639C74.0984 437.482 90.4249 384.581 96.4923 345.367C98.72 331.123 98.9252 324.353 97.7527 315.414Z" fill="#00050D"/>
<path d="M68.2071 484.932C66.507 484.844 63.9862 482.617 63.2241 481.474C62.1103 482.705 59.9999 484.375 57.2153 483.965C53.9324 483.467 53.4927 481.943 51.1478 482.148C50.1512 484.903 47.7184 491.116 50.0633 492.552C50.0633 492.552 63.2241 492.552 73.7469 492.552C75.9453 490.589 74.8901 485.606 68.2071 484.932Z" fill="#00050D"/>
<path d="M151.98 219.781L145.972 221.1C146.118 224.266 145.737 229.307 145.972 234.846L156.055 233.527C154.531 227.929 153.036 223.035 151.98 219.781Z" fill="#F7A58E"/>
<path d="M145.971 234.875C145.737 245.895 145.444 250.613 145.356 254.951L115.429 235.754C106.313 232.999 95.6729 251.024 107.222 259.171C107.222 259.171 147.056 281.651 156.025 275.174C160.862 271.657 159.601 246.54 156.054 233.527L145.971 234.875Z" fill="#CAEEEC"/>
<path d="M154.677 213.92C151.892 210.667 145.825 211.81 145.356 211.897L145.942 220.895C146.088 225.321 151.57 225.496 153.827 221.657C153.827 221.628 157.08 217.114 154.677 213.92Z" fill="#F7A58E"/>
<path d="M148.316 212.747C146.294 202.959 144.271 204.277 144.271 204.277C144.271 204.277 144.594 207.736 145.503 213.832C146.177 217.29 148.551 215.209 148.316 212.747Z" fill="#F7A58E"/>
<path d="M122.522 261.546C124.545 251.669 125.629 241.909 115.458 235.754C109.42 232.12 89.9865 229.512 80.9293 232.531C71.7841 236.634 73.748 254.453 72.0479 282.618C65.7459 296.657 62.9907 301.287 61.144 314.974C61.144 314.974 64.5149 325.291 88.2864 325.291C99.0731 325.291 114.96 324.324 122.2 318.843C121.467 309.523 117.569 300.525 115.956 287.307C115.898 287.307 122.376 262.689 122.522 261.546Z" fill="#CAEEEC"/>
<path d="M76.0324 234.523C64.8941 243.023 53.9902 256.417 48.8607 263.538C43.7312 270.66 30.3945 299.236 30.3945 299.236L38.8655 305.478L61.7871 274.236L89.7795 251.258C99.5109 241.352 86.8777 226.229 76.0324 234.523Z" fill="#CAEEEC"/>
<path d="M26.8479 306.475L32.3291 295.133C33.6188 298.532 39.9208 301.668 41.7088 301.58C41.7088 301.58 35.7879 310.08 34.3516 311.516C32.9154 312.981 26.9651 310.519 26.8479 306.475Z" fill="#F7A58E"/>
<path d="M35.7592 309.64C35.7298 309.728 35.7592 309.845 35.7298 309.933C35.466 314.066 32.2711 316.029 31.4211 316.469C31.3624 316.528 31.2745 316.528 31.1866 316.557C34.1763 315.971 35.0557 319.957 33.5608 320.894C29.1641 323.855 22.8914 319.781 22.3638 317.29C21.8362 314.769 26.8192 306.446 26.8192 306.446C29.3986 304.365 35.935 304.687 35.7592 309.64Z" fill="#F7A58E"/>
<path d="M35.7294 309.904C35.5535 314.564 31.3327 316.498 31.2741 316.498C28.8119 316.44 27.9326 316.293 25.5876 316.293C27.1118 315.531 30.2775 313.568 29.0464 309.699C31.4499 307.852 35.0846 309.464 35.7294 309.904Z" fill="#E6856A"/>
<path d="M35.8184 309.376C36.4633 313.216 36.1995 318.726 35.2615 321.129C35.2615 321.129 32.8873 321.246 33.1218 316.791C33.1804 315.619 33.0045 313.098 31.8614 312.278C28.3147 309.933 27.7578 307.794 29.0475 306.035C30.7768 303.691 35.6719 306.065 35.8184 309.376Z" fill="#F7A58E"/>
<path d="M24.856 319.898C26.7612 321.217 31.8614 323.796 32.6528 323.181C33.4442 322.536 29.3993 318.227 26.7612 317.641C24.1525 317.084 23.8887 319.224 24.856 319.898Z" fill="#F7A58E"/>
</g>
<defs>
<clipPath id="clip0_224_2200">
<rect width="507" height="499" fill="white"/>
</clipPath>
</defs>
</svg>
